<svg width="149" height="26" viewBox="0 0 149 26" fill="none" xmlns="http://www.w3.org/2000/svg">
<g clip-path="url(#clip0_1_24288)">
<path fill-rule="evenodd" clip-rule="evenodd" d="M44.6048 0.514648H41.9309V19.0104C43.1472 19.4584 44.66 19.8218 46.3902 19.8218C50.8218 19.8218 53.3889 17.1351 53.3889 13.1344C53.3889 9.16127 50.7942 6.86732 47.335 6.86732C46.2813 6.86732 45.1728 7.17498 44.6053 7.48265V0.51519L44.6048 0.514648ZM25.5185 1.63482C24.6269 1.63482 23.8426 2.39044 23.8426 3.34107C23.8426 4.32148 24.6269 5.10473 25.518 5.10473C26.4102 5.10473 27.194 4.32094 27.194 3.34161C27.194 2.39044 26.4102 1.63482 25.5185 1.63482ZM8.96235 17.0268C8.37868 17.2635 7.76375 17.3881 7.09775 17.3881C4.77353 17.3881 3.15126 15.8211 3.15126 13.3592C3.15126 10.757 4.8272 9.32919 6.98936 9.32919C7.62513 9.32919 8.24163 9.44294 8.84092 9.69102C9.12251 8.97192 9.50538 8.30031 9.97698 7.69823C8.98319 7.14844 7.99722 6.86732 6.74651 6.86732C3.23256 6.86677 0.449219 9.35627 0.449219 13.3586C0.449219 17.3323 3.09758 19.8218 6.74704 19.8218C7.97377 19.8218 9.0994 19.5548 10.174 18.9568C9.67945 18.3799 9.27103 17.7297 8.96235 17.0268ZM16.3019 6.86677C19.8961 6.86677 22.4908 9.49711 22.4908 13.3586C22.4908 17.192 19.8956 19.8218 16.3019 19.8218C12.7348 19.8218 10.1406 17.192 10.1406 13.3586C10.1406 9.49711 12.7348 6.86677 16.3019 6.86677ZM12.8416 13.3586C12.8416 10.8404 14.3008 9.24523 16.3009 9.24523C18.3551 9.24523 19.7872 10.8404 19.7872 13.3586C19.7872 15.8492 18.3551 17.4434 16.3009 17.4434C14.3013 17.4434 12.8416 15.8492 12.8416 13.3586ZM24.1944 19.5423H26.8693V7.14627H24.1944V19.5423ZM29.2034 7.93007C30.8794 7.2584 32.9337 6.86677 34.6899 6.86677C37.7437 6.86677 39.6901 8.06982 39.6901 11.5679V19.5423H37.0417V11.8192C37.0417 10.0285 35.9609 9.38444 34.4736 9.38444C33.5277 9.38444 32.5824 9.52419 31.8789 9.7479V19.5412H29.2034V7.93115V7.93007ZM44.6059 17.1926C45.1197 17.3594 45.7961 17.4434 46.4704 17.4434C48.9302 17.4434 50.6874 16.0448 50.6874 13.1902C50.6874 10.7836 49.0391 9.35682 47.0119 9.35682C45.9582 9.35682 45.1473 9.63686 44.6059 9.94507V17.1926ZM58.8217 9.2734C60.1453 9.2734 61.1188 9.88819 61.1188 11.2315V12.2677H59.7941C56.3349 12.2677 54.254 13.4984 54.254 16.0161C54.254 18.8149 56.5245 19.7942 59.6325 19.7942C60.9838 19.7942 62.605 19.5981 63.7401 19.2904V11.0912C63.7401 7.98531 61.875 6.86623 59.2542 6.86623C57.7669 6.86623 56.4161 7.2584 55.3624 7.87319V10.2798C56.3619 9.69211 57.4433 9.27286 58.8217 9.27286V9.2734ZM61.1183 14.1143H59.9838C58.1181 14.1143 56.9018 14.6733 56.9018 15.9326C56.9018 17.2196 58.0374 17.7234 59.6591 17.7234C60.0646 17.7234 60.6321 17.6676 61.1183 17.5831V14.1143ZM69.3328 17.5836C68.117 17.5836 66.7933 17.0517 65.6849 16.1845V18.8149C66.5771 19.4307 67.982 19.8218 69.388 19.8218C71.9822 19.8218 73.901 18.6464 73.901 16.0448C73.901 13.8061 72.7123 12.7428 69.9816 12.1269C68.6032 11.7358 68.0904 11.3155 68.0904 10.5041C68.0904 9.69265 68.7116 9.10548 69.8742 9.10548C71.1437 9.10548 72.1708 9.58161 73.2246 10.3643V7.81848C72.225 7.17498 71.1437 6.86677 69.7924 6.86677C67.3603 6.86677 65.5223 8.09744 65.5223 10.6167C65.5223 12.7709 66.5771 13.8061 69.0634 14.3938C70.6038 14.813 71.3063 15.1765 71.3063 16.1845C71.3063 17.1639 70.5225 17.5831 69.3328 17.5831V17.5836ZM77.5609 13.9745V14.0298C77.7234 16.2398 79.5604 17.4434 81.425 17.4434C83.0733 17.4434 84.2631 17.0517 85.4518 16.2403V18.6751C84.3709 19.4584 82.7763 19.8218 81.2364 19.8218C77.5072 19.8218 74.9662 17.3594 74.9662 13.4426C74.9662 9.49711 77.452 6.86677 80.7502 6.86677C84.236 6.86677 85.8843 9.18944 85.8843 12.5749V13.9745H77.5609ZM80.6704 9.18944C82.4 9.18944 83.3188 10.2522 83.3725 12.1838H77.6437C77.995 10.3091 79.1295 9.18944 80.6704 9.18944Z" fill="#686B7F"/>
<path fill-rule="evenodd" clip-rule="evenodd" d="M95.4297 2.89925C95.4297 2.80268 95.4755 2.71008 95.5571 2.6418C95.6387 2.57352 95.7494 2.53516 95.8648 2.53516C95.9802 2.53516 96.0909 2.57352 96.1725 2.6418C96.2541 2.71008 96.3 2.80268 96.3 2.89925V23.1008C96.3 23.1973 96.2541 23.2899 96.1725 23.3582C96.0909 23.4265 95.9802 23.4648 95.8648 23.4648C95.7494 23.4648 95.6387 23.4265 95.5571 23.3582C95.4755 23.2899 95.4297 23.1973 95.4297 23.1008V2.89925Z" fill="#686B7F" fill-opacity="0.64"/>
<path d="M111.491 6.99983L108.724 18.568L105.832 6.99983H104.5L107.85 19.7958H109.557L112.219 8.52923L114.883 19.7958H116.589L119.939 6.99983H118.67L115.757 18.568L113.01 6.99983H111.491ZM125.199 14.367H124.179C121.412 14.367 119.768 15.3363 119.768 17.1891C119.768 19.1707 121.412 19.9681 123.867 19.9681C124.637 19.9681 125.614 19.8601 126.447 19.6234V13.1393C126.447 11.0279 125.261 10.1879 123.43 10.1879C122.369 10.1879 121.391 10.4895 120.621 10.9204V12.1482C121.453 11.696 122.244 11.3944 123.284 11.3944C124.449 11.3944 125.199 12.0189 125.199 13.2254V14.367ZM125.199 18.7616C124.762 18.8478 124.304 18.8909 123.929 18.8909C122.265 18.8909 121.017 18.4387 121.017 17.1891C121.017 15.9395 122.389 15.4224 124.262 15.4224H125.199V18.7616ZM129.663 5.14697H128.414V19.7963H129.663V5.14697ZM133.029 5.14697H131.781V19.7963H133.029V5.14697ZM142.575 15.1639V14.2808C142.575 11.6099 141.056 10.1879 138.767 10.1879C136.333 10.1879 134.461 12.2775 134.461 15.0996C134.461 18.1584 136.458 20.0112 139.079 20.0112C140.203 20.0112 141.368 19.7314 142.179 19.1063V17.8136C141.264 18.5243 140.369 18.8696 139.079 18.8696C137.311 18.8696 135.709 17.512 135.709 15.207V15.1639H142.575ZM135.792 14.0872C136.146 12.3206 137.29 11.3295 138.705 11.3295C140.224 11.3295 141.243 12.1269 141.327 14.0872H135.792ZM142.812 11.5019H144.206V17.3609C144.206 19.3 145.184 20.0112 146.495 20.0112C147.174 20.0178 147.844 19.8552 148.451 19.5372V18.3956C147.827 18.7185 147.348 18.9127 146.765 18.9127C145.912 18.9127 145.454 18.4387 145.454 17.2322V11.5019H148.014V10.4033H145.454V8.12016H144.206V10.4033H142.812V11.5019Z" fill="#686B7F"/>
</g>
<defs>
<clipPath id="clip0_1_24288">
<rect width="148" height="26" fill="white" transform="translate(0.449219)"/>
</clipPath>
</defs>
</svg>
