<svg width="138" height="28" viewBox="0 0 138 28" fill="none" xmlns="http://www.w3.org/2000/svg">
<g clip-path="url(#clip0_1_24246)">
<path d="M28.4829 7.81813L16.5156 0V4.3715L24.1929 9.3415L23.2892 12.1888H16.5156V15.8112H23.2892L24.1929 18.6585L16.5156 23.6285V28L28.4829 20.2073L26.5263 14.0122L28.4829 7.81725V7.81813Z" fill="url(#paint0_linear_1_24246)"/>
<path d="M6.10306 15.8112H12.8521V12.1888H6.07759L5.19939 9.3415L12.8521 4.3715V0L0.884766 7.81813L2.84141 14.0131L0.884766 20.2073L12.8775 28V23.6294L5.20027 18.6585L6.10306 15.8112Z" fill="url(#paint1_linear_1_24246)"/>
<mask id="mask0_1_24246" style="mask-type:alpha" maskUnits="userSpaceOnUse" x="0" y="0" width="29" height="28">
<path d="M28.4829 7.81813L16.5156 0V4.3715L24.1929 9.3415L23.2892 12.1888H16.5156V15.8112H23.2892L24.1929 18.6585L16.5156 23.6285V28L28.4829 20.2073L26.5263 14.0122L28.4829 7.81725V7.81813Z" fill="url(#paint2_linear_1_24246)"/>
<path d="M6.10306 15.8112H12.8521V12.1888H6.07759L5.19939 9.3415L12.8521 4.3715V0L0.884766 7.81813L2.84141 14.0131L0.884766 20.2073L12.8775 28V23.6294L5.20027 18.6585L6.10306 15.8112Z" fill="url(#paint3_linear_1_24246)"/>
</mask>
<g mask="url(#mask0_1_24246)">
<path d="M28.3004 0H0.900391V28H28.3004V0Z" fill="#686B7F"/>
</g>
<path d="M52.2924 7.69995V10.1473H40.9715V12.6525H50.5922V15.1007H40.9706V17.8517H52.2933V20.3H38.0664V7.69995H52.2933H52.2924ZM53.8996 20.3L60.4044 13.9238L54.084 7.69995H58.0825L62.542 12.1975L66.818 7.69995H70.5591L64.2562 13.9238L70.7611 20.3H66.7258L62.542 15.6695L57.7698 20.3H53.8996Z" fill="#686B7F"/>
<path d="M78.5607 7.7002C83.8308 7.7002 87.0002 10.3296 87.0002 14.0002C87.0002 17.6708 83.8308 20.3002 78.5607 20.3002C73.2906 20.3002 70.1387 17.6708 70.1387 14.0002C70.1387 10.3296 73.2906 7.7002 78.5607 7.7002ZM78.5607 10.0557C75.3903 10.0557 73.0543 11.6447 73.0543 14.0002C73.0543 16.3557 75.3903 17.9447 78.5607 17.9447C81.7485 17.9447 84.0846 16.3557 84.0846 14.0002C84.0846 11.6447 81.7485 10.0557 78.5607 10.0557ZM97.5053 7.7002C101.727 7.7002 104.27 10.0338 104.27 13.9809C104.27 17.9657 101.745 20.3002 97.5422 20.3002H88.9893V7.7002H97.5053ZM101.284 13.9809C101.284 11.5134 99.8097 10.1484 97.1365 10.1484H91.883V17.8519H97.1365C99.8097 17.8519 101.284 16.4668 101.284 13.9809ZM113.841 20.3002C109.396 20.3002 106.025 18.2903 106.025 14.5864V7.7002H108.933V14.3064C108.933 16.5963 111.322 17.6577 113.841 17.6577C116.379 17.6577 118.768 16.6147 118.768 14.3064V7.7002H121.657V14.5864C121.657 18.2903 118.305 20.3002 113.841 20.3002ZM129.797 20.3002C127.409 20.3002 124.834 19.8618 123.006 19.0402L123.958 16.7022C125.599 17.4512 127.857 17.9263 129.89 17.9263C132.223 17.9263 134.405 17.4328 134.405 16.5569C134.405 15.9182 133.715 15.6434 132.278 15.4247L128.211 14.9863C125.077 14.5663 123.547 13.4892 123.547 11.5896C123.547 9.14307 126.14 7.7002 129.946 7.7002C132.241 7.7002 135.394 8.12019 137.017 8.85082L136.066 11.0786C134.461 10.4206 131.737 10.0924 129.815 10.0924C127.838 10.0924 126.532 10.5483 126.532 11.3883C126.532 11.9728 127.185 12.2651 128.864 12.5031L132.819 12.9406C135.842 13.3606 137.408 14.3843 137.408 16.3741C137.408 18.8941 134.088 20.3002 129.797 20.3002Z" fill="#686B7F"/>
</g>
<defs>
<linearGradient id="paint0_linear_1_24246" x1="24.6118" y1="29.925" x2="16.6507" y2="-3.08806" gradientUnits="userSpaceOnUse">
<stop stop-color="#0B46F9"/>
<stop offset="1" stop-color="#BBFBE0"/>
</linearGradient>
<linearGradient id="paint1_linear_1_24246" x1="24.6112" y1="29.925" x2="16.6502" y2="-3.08806" gradientUnits="userSpaceOnUse">
<stop stop-color="#0B46F9"/>
<stop offset="1" stop-color="#BBFBE0"/>
</linearGradient>
<linearGradient id="paint2_linear_1_24246" x1="24.6118" y1="29.925" x2="16.6507" y2="-3.08806" gradientUnits="userSpaceOnUse">
<stop stop-color="#0B46F9"/>
<stop offset="1" stop-color="#BBFBE0"/>
</linearGradient>
<linearGradient id="paint3_linear_1_24246" x1="24.6112" y1="29.925" x2="16.6502" y2="-3.08806" gradientUnits="userSpaceOnUse">
<stop stop-color="#0B46F9"/>
<stop offset="1" stop-color="#BBFBE0"/>
</linearGradient>
<clipPath id="clip0_1_24246">
<rect width="137" height="28" fill="white" transform="translate(0.548828)"/>
</clipPath>
</defs>
</svg>
