<svg xmlns="http://www.w3.org/2000/svg" width="205" height="24" viewBox="0 0 205 24" fill="none">
<g clip-path="url(#clip0_5811_85)">
<path d="M0.71875 9.53756C0.71875 4.6758 4.92114 0.73609 9.93633 0.73609C12.7033 0.73609 14.6748 1.79227 16.1621 3.16697L14.3981 4.86021C13.3432 3.88785 11.9078 3.13344 9.93633 3.13344C6.28735 3.13344 3.43387 5.98344 3.43387 9.5208C3.43387 13.0581 6.28735 15.9081 9.93633 15.9081C12.3056 15.9081 13.6545 14.9861 14.5192 14.1479C15.2282 13.4605 15.6952 12.4714 15.8681 11.1302H9.93633V8.73285H18.2892C18.3757 9.16874 18.4276 9.67168 18.4276 10.2417C18.4276 12.0523 17.9261 14.282 16.2832 15.8579C14.6748 17.4673 12.6342 18.3223 9.93633 18.3223C4.92114 18.3223 0.71875 14.3826 0.71875 9.53756Z" fill="#7F798B"/>
<path d="M25.1556 7.00593C21.9216 7.00593 19.293 9.38651 19.293 12.6724C19.293 15.9415 21.9216 18.3389 25.1556 18.3389C28.3895 18.3389 31.0182 15.9415 31.0182 12.6724C31.0182 9.38651 28.3895 7.00593 25.1556 7.00593ZM25.1556 16.0924C23.3916 16.0924 21.8524 14.6842 21.8524 12.6556C21.8524 10.6103 23.3743 9.21887 25.1556 9.21887C26.9195 9.21887 28.4587 10.6103 28.4587 12.6556C28.4587 14.6842 26.9195 16.0924 25.1556 16.0924Z" fill="#767082"/>
<path d="M37.9524 7.00593C34.7185 7.00593 32.0898 9.38651 32.0898 12.6724C32.0898 15.9415 34.7185 18.3389 37.9524 18.3389C41.1864 18.3389 43.815 15.9415 43.815 12.6724C43.815 9.38651 41.1864 7.00593 37.9524 7.00593ZM37.9524 16.0924C36.1885 16.0924 34.6493 14.6842 34.6493 12.6556C34.6493 10.6103 36.1712 9.21887 37.9524 9.21887C39.7337 9.21887 41.2555 10.6103 41.2555 12.6556C41.2555 14.6842 39.7164 16.0924 37.9524 16.0924Z" fill="#A29BB0"/>
<path d="M53.6547 7.34159V8.26365H53.5682C52.9975 7.59306 51.8907 6.98953 50.4899 6.98953C47.5673 6.98953 44.8867 9.47071 44.8867 12.6728C44.8867 15.8413 47.5673 18.3225 50.4899 18.3225C51.8907 18.3225 52.9975 17.7189 53.5682 17.0316H53.6547V17.8531C53.6547 20.0157 52.4614 21.1725 50.5418 21.1725C48.968 21.1725 47.9996 20.0828 47.6018 19.1607L45.3709 20.066C46.0108 21.5748 47.7229 23.4189 50.5591 23.4189C53.5682 23.4189 56.1104 21.7089 56.1104 17.5178V7.34159H53.6547ZM50.7147 16.0928C48.9508 16.0928 47.4635 14.651 47.4635 12.6728C47.4635 10.6778 48.9508 9.21924 50.7147 9.21924C52.4614 9.21924 53.8276 10.6778 53.8276 12.6728C53.8449 14.6678 52.4614 16.0928 50.7147 16.0928Z" fill="#7F798B"/>
<path d="M60.4345 17.9873H57.875V1.33995H60.4345V17.9873Z" fill="#8E889A"/>
<path d="M67.4731 16.0924C66.1588 16.0924 65.2422 15.5056 64.6369 14.3824L72.4537 11.2474L72.1943 10.6103C71.7101 9.33622 70.2228 7.00593 67.1964 7.00593C64.1873 7.00593 61.6797 9.30269 61.6797 12.6724C61.6797 15.8409 64.1527 18.3389 67.4731 18.3389C70.1536 18.3389 71.6928 16.7462 72.3499 15.8242L70.3612 14.5333C69.6867 15.4721 68.7874 16.0924 67.4731 16.0924ZM67.2829 9.18534C68.3032 9.18534 69.1679 9.67151 69.4446 10.3924L64.2219 12.488C64.1527 10.3086 65.9685 9.18534 67.2829 9.18534Z" fill="#767082"/>
<path d="M84.1375 2.37891C84.887 2.37891 85.5017 2.50243 85.9814 2.74948L85.4192 4.51519C85.0594 4.3408 84.6547 4.2536 84.205 4.2536C83.6953 4.2536 83.2755 4.42799 82.9457 4.77677C82.6309 5.11102 82.4735 5.56153 82.4735 6.1283V7.47983H85.3518V9.31093H82.4735V18.1612H80.4047V9.31093H78.3359V7.47983H80.4047V5.93211C80.4047 4.87124 80.7495 4.01381 81.4391 3.35985C82.1437 2.70588 83.0431 2.37891 84.1375 2.37891Z" fill="#686B7F"/>
<path d="M86.0234 12.8204C86.0234 11.1782 86.5556 9.81938 87.62 8.74397C88.6993 7.66856 90.056 7.13086 91.6901 7.13086C93.3241 7.13086 94.6733 7.66856 95.7377 8.74397C96.817 9.81938 97.3567 11.1782 97.3567 12.8204C97.3567 14.4771 96.817 15.8359 95.7377 16.8967C94.6733 17.9721 93.3241 18.5098 91.6901 18.5098C90.056 18.5098 88.6993 17.9721 87.62 16.8967C86.5556 15.8213 86.0234 14.4625 86.0234 12.8204ZM88.0922 12.8204C88.0922 13.9684 88.437 14.8985 89.1266 15.6106C89.8162 16.3227 90.6707 16.6787 91.6901 16.6787C92.7095 16.6787 93.564 16.3227 94.2535 15.6106C94.9431 14.8985 95.2879 13.9684 95.2879 12.8204C95.2879 11.6868 94.9431 10.764 94.2535 10.0519C93.549 9.32527 92.6945 8.96196 91.6901 8.96196C90.6857 8.96196 89.8312 9.32527 89.1266 10.0519C88.437 10.764 88.0922 11.6868 88.0922 12.8204Z" fill="#686B7F"/>
<path d="M101.108 18.1604H99.0391V7.47901H101.018V9.22291H101.108C101.318 8.65614 101.745 8.17657 102.39 7.78419C103.049 7.37728 103.694 7.17383 104.323 7.17383C104.923 7.17383 105.433 7.26102 105.853 7.43541L105.223 9.37551C104.968 9.27378 104.563 9.22291 104.009 9.22291C103.229 9.22291 102.547 9.5281 101.962 10.1385C101.393 10.7488 101.108 11.4609 101.108 12.2748V18.1604Z" fill="#686B7F"/>
<path d="M121.811 13.9973C121.811 15.3633 121.294 16.4605 120.26 17.2889C119.21 18.1027 117.936 18.5096 116.437 18.5096C115.103 18.5096 113.926 18.1318 112.907 17.3761C111.887 16.6204 111.183 15.5886 110.793 14.2806L112.772 13.4959C112.907 13.9609 113.094 14.3824 113.334 14.7602C113.574 15.1381 113.851 15.4651 114.166 15.7412C114.496 16.0028 114.856 16.2135 115.245 16.3733C115.635 16.5187 116.047 16.5913 116.482 16.5913C117.427 16.5913 118.199 16.3588 118.798 15.8938C119.398 15.4142 119.698 14.782 119.698 13.9973C119.698 13.3433 119.45 12.7838 118.956 12.3188C118.491 11.8682 117.621 11.4323 116.347 11.0108C115.058 10.5603 114.256 10.2551 113.941 10.0953C112.232 9.25239 111.378 8.00985 111.378 6.36768C111.378 5.2196 111.85 4.23866 112.794 3.42484C113.754 2.61102 114.931 2.2041 116.325 2.2041C117.554 2.2041 118.618 2.50929 119.518 3.11966C120.417 3.71549 121.017 4.46391 121.317 5.36493L119.383 6.14969C119.203 5.56838 118.843 5.08881 118.304 4.71096C117.779 4.31859 117.134 4.1224 116.37 4.1224C115.56 4.1224 114.878 4.34039 114.323 4.77636C113.769 5.18327 113.491 5.71371 113.491 6.36768C113.491 6.90538 113.709 7.37042 114.143 7.7628C114.623 8.15518 115.665 8.62022 117.269 9.15793C118.903 9.69563 120.065 10.3569 120.755 11.1416C121.459 11.9118 121.811 12.8637 121.811 13.9973Z" fill="#686B7F"/>
<path d="M127.732 18.3356C126.833 18.3356 126.083 18.0667 125.484 17.529C124.899 16.9913 124.599 16.2429 124.584 15.2838V9.31088H122.65V7.47978H124.584V4.20996H126.653V7.47978H129.351V9.31088H126.653V14.6298C126.653 15.3419 126.795 15.8287 127.08 16.0903C127.365 16.3374 127.687 16.4609 128.047 16.4609C128.212 16.4609 128.369 16.4464 128.519 16.4173C128.684 16.3737 128.834 16.3228 128.969 16.2647L129.621 18.0522C129.082 18.2411 128.452 18.3356 127.732 18.3356Z" fill="#686B7F"/>
<path d="M132.607 14.8912C132.607 15.4144 132.832 15.8504 133.282 16.1992C133.746 16.5479 134.286 16.7223 134.901 16.7223C135.77 16.7223 136.542 16.4099 137.217 15.785C137.906 15.1601 138.251 14.4262 138.251 13.5833C137.606 13.0892 136.707 12.8421 135.553 12.8421C134.713 12.8421 134.009 13.0383 133.439 13.4307C132.884 13.8231 132.607 14.3099 132.607 14.8912ZM135.283 7.13086C136.812 7.13086 138.019 7.5305 138.903 8.32979C139.788 9.11455 140.23 10.1972 140.23 11.5778V18.1611H138.251V16.6787H138.161C137.307 17.8995 136.167 18.5098 134.743 18.5098C133.529 18.5098 132.509 18.1611 131.685 17.4635C130.875 16.7659 130.471 15.894 130.471 14.8476C130.471 13.7432 130.898 12.8639 131.752 12.21C132.622 11.556 133.776 11.229 135.215 11.229C136.445 11.229 137.457 11.447 138.251 11.883V11.4252C138.251 10.7277 137.966 10.1391 137.397 9.65952C136.827 9.16542 136.16 8.91836 135.395 8.91836C134.241 8.91836 133.327 9.39067 132.652 10.3353L130.83 9.22354C131.835 7.82842 133.319 7.13086 135.283 7.13086Z" fill="#686B7F"/>
<path d="M155.47 18.3356C154.57 18.3356 153.821 18.0667 153.221 17.529C152.637 16.9913 152.337 16.2429 152.322 15.2838V9.31088H150.388V7.47978H152.322V4.20996H154.39V7.47978H157.089V9.31088H154.39V14.6298C154.39 15.3419 154.533 15.8287 154.818 16.0903C155.103 16.3374 155.425 16.4609 155.785 16.4609C155.95 16.4609 156.107 16.4464 156.257 16.4173C156.422 16.3737 156.572 16.3228 156.707 16.2647L157.359 18.0522C156.819 18.2411 156.189 18.3356 155.47 18.3356ZM142.562 7.47978H144.541V9.22368H144.631C145.246 7.85762 146.513 7.1746 148.432 7.1746L148.859 7.21819V9.31088L147.937 9.22368C146.977 9.22368 146.183 9.51434 145.553 10.0956C144.939 10.6624 144.631 11.389 144.631 12.2755V18.1612H142.562V7.47978Z" fill="#686B7F"/>
<path d="M168.746 18.1609H166.767V16.6786H166.677C166.362 17.2018 165.875 17.6377 165.215 17.9865C164.571 18.3353 163.896 18.5097 163.191 18.5097C161.842 18.5097 160.8 18.1391 160.066 17.398C159.346 16.6423 158.986 15.5741 158.986 14.1935V7.47949H161.055V14.0627C161.1 15.8066 162.007 16.6786 163.776 16.6786C164.6 16.6786 165.29 16.3589 165.845 15.7194C166.399 15.0655 166.677 14.288 166.677 13.387V7.47949H168.746V18.1609Z" fill="#686B7F"/>
<path d="M176.682 16.6787C177.671 16.6787 178.503 16.3154 179.178 15.5888C179.853 14.8767 180.19 13.9539 180.19 12.8204C180.19 11.7013 179.853 10.7785 179.178 10.0519C178.503 9.32527 177.671 8.96196 176.682 8.96196C175.678 8.96196 174.838 9.32527 174.164 10.0519C173.504 10.7785 173.174 11.7013 173.174 12.8204C173.174 13.9539 173.504 14.884 174.164 15.6106C174.838 16.3227 175.678 16.6787 176.682 16.6787ZM177.019 18.5098C176.21 18.5098 175.468 18.3427 174.793 18.0085C174.134 17.6742 173.624 17.231 173.264 16.6787H173.174L173.264 18.1611V22.8696H171.195V7.47964H173.174V8.96196H173.264C173.624 8.40972 174.134 7.96648 174.793 7.63223C175.468 7.29798 176.21 7.13086 177.019 7.13086C178.473 7.13086 179.703 7.6831 180.707 8.78757C181.742 9.90658 182.259 11.2508 182.259 12.8204C182.259 14.4044 181.742 15.7487 180.707 16.8531C179.703 17.9576 178.473 18.5098 177.019 18.5098Z" fill="#686B7F"/>
<path d="M192.455 15.1964C192.455 16.1265 192.035 16.9113 191.196 17.5507C190.356 18.1901 189.299 18.5098 188.025 18.5098C186.916 18.5098 185.941 18.2337 185.102 17.6815C184.262 17.1147 183.663 16.3736 183.303 15.458L185.147 14.695C185.416 15.3345 185.806 15.8359 186.316 16.1992C186.841 16.5479 187.41 16.7223 188.025 16.7223C188.685 16.7223 189.232 16.5843 189.666 16.3082C190.116 16.032 190.341 15.7051 190.341 15.3272C190.341 14.6442 189.801 14.1428 188.722 13.8231L186.833 13.3653C184.689 12.8422 183.618 11.8394 183.618 10.3571C183.618 9.3834 184.022 8.60591 184.832 8.02461C185.656 7.42878 186.706 7.13086 187.98 7.13086C188.954 7.13086 189.831 7.35611 190.611 7.80662C191.405 8.25713 191.96 8.86023 192.275 9.61592L190.431 10.3571C190.221 9.90657 189.876 9.55779 189.397 9.31074C188.932 9.04916 188.407 8.91836 187.823 8.91836C187.283 8.91836 186.796 9.04916 186.361 9.31074C185.941 9.57233 185.731 9.89204 185.731 10.2699C185.731 10.8803 186.323 11.3162 187.508 11.5778L189.172 11.992C191.36 12.5152 192.455 13.5833 192.455 15.1964Z" fill="#686B7F"/>
</g>
<defs>
<clipPath id="clip0_5811_85">
<rect width="204" height="24" fill="white" transform="translate(0.349609)"/>
</clipPath>
</defs>
</svg>