<svg width="179" height="28" viewBox="0 0 179 28" fill="none" xmlns="http://www.w3.org/2000/svg">
<g clip-path="url(#clip0_1_24275)">
<path d="M22.0727 7.62703H23.0561L25.8589 4.87882L25.9965 3.71203C24.3909 2.32245 22.4506 1.35716 20.3587 0.907341C18.2669 0.457522 16.0926 0.538024 14.0413 1.14124C11.99 1.74446 10.1294 2.85049 8.63522 4.35484C7.14106 5.85918 6.06268 7.71219 5.50195 9.73882C5.81419 9.61333 6.16008 9.59298 6.48538 9.68096L12.0909 8.77453C12.0909 8.77453 12.3761 8.31167 12.5236 8.3406C13.7247 7.04717 15.3846 6.25283 17.1634 6.12017C18.9423 5.98752 20.7056 6.52659 22.0923 7.62703H22.0727Z" fill="#686B7F"/>
<path d="M29.8164 9.75738C29.1722 7.43117 27.8495 5.33993 26.0105 3.74023L22.0768 7.59738C22.8967 8.25421 23.5537 9.08502 23.9983 10.0271C24.4429 10.9692 24.6636 11.998 24.6436 13.0359V13.7206C25.1033 13.7206 25.5586 13.8094 25.9834 13.9819C26.4081 14.1544 26.7941 14.4073 27.1192 14.7261C27.4443 15.0448 27.7021 15.4233 27.8781 15.8398C28.054 16.2562 28.1446 16.7026 28.1446 17.1534C28.1446 17.6043 28.054 18.0507 27.8781 18.4671C27.7021 18.8836 27.4443 19.2621 27.1192 19.5808C26.7941 19.8996 26.4081 20.1525 25.9834 20.325C25.5586 20.4975 25.1033 20.5863 24.6436 20.5863H17.6416L16.9434 21.2806V25.3981L17.6416 26.0827H24.6436C26.5989 26.0977 28.5071 25.4951 30.0861 24.3642C31.665 23.2332 32.8308 21.634 33.4109 19.803C33.9911 17.9721 33.9548 16.0067 33.3074 14.1975C32.6601 12.3883 31.4361 10.8315 29.8164 9.75738Z" fill="#73768A"/>
<path d="M10.6282 26.0828H17.6302V20.5864H10.6282C10.1293 20.5863 9.63634 20.4811 9.18257 20.2778L8.19915 20.5768L5.37672 23.325L5.13086 24.2893C6.71362 25.4612 8.64491 26.0913 10.6282 26.0828Z" fill="#7D8096"/>
<path d="M10.6283 8.25396C8.73109 8.26508 6.8848 8.85693 5.34729 9.94687C3.80979 11.0368 2.65785 12.5704 2.05237 14.3334C1.44689 16.0964 1.4181 18.0009 1.97004 19.7807C2.52197 21.5606 3.62705 23.127 5.13095 24.2611L9.19249 20.2786C8.67635 20.05 8.2245 19.7019 7.87569 19.2644C7.52688 18.8269 7.29153 18.3129 7.18984 17.7666C7.08815 17.2203 7.12315 16.6579 7.29185 16.1278C7.46054 15.5976 7.75788 15.1155 8.15837 14.7228C8.55885 14.3301 9.05052 14.0386 9.59118 13.8732C10.1318 13.7078 10.7054 13.6734 11.2625 13.7731C11.8197 13.8729 12.3439 14.1036 12.7901 14.4456C13.2363 14.7877 13.5912 15.2307 13.8244 15.7368L17.886 11.7543C17.0335 10.6616 15.9348 9.77696 14.6757 9.16972C13.4167 8.56248 12.0314 8.24906 10.6283 8.25396Z" fill="#8E90A6"/>
<path d="M52.4634 22.2061C51.2579 22.2212 50.0616 21.9975 48.9464 21.5485C47.8311 21.0995 46.8197 20.4343 45.9728 19.5929C45.0993 18.7872 44.406 17.8123 43.9371 16.73C43.4681 15.6477 43.2337 14.4816 43.2487 13.3058C43.2343 12.13 43.469 10.9641 43.9379 9.8819C44.4068 8.79968 45.0997 7.82469 45.9728 7.01863C46.8156 6.16852 47.8251 5.49446 48.9405 5.03707C50.056 4.57968 51.2544 4.34841 52.4634 4.3572C53.6154 4.34215 54.759 4.55178 55.8277 4.97391C56.8964 5.39604 57.8688 6.02225 58.6885 6.81613L56.938 8.56149C55.7392 7.42551 54.1303 6.80142 52.4634 6.82577C51.5987 6.81536 50.7413 6.98144 49.9455 7.31345C49.1498 7.64547 48.4332 8.13616 47.8413 8.75435C47.2262 9.35276 46.7409 10.0671 46.4147 10.8542C46.0885 11.6414 45.9281 12.4852 45.9433 13.3347C45.9361 14.1745 46.1003 15.0073 46.4263 15.784C46.7522 16.5607 47.2333 17.2656 47.8413 17.8572C49.0592 19.0472 50.7026 19.7242 52.4218 19.744C54.141 19.7638 55.8002 19.1249 57.0462 17.9633C57.8176 17.1349 58.2908 16.0815 58.3935 14.9643H52.4929V12.4958H60.8422C60.9243 12.9929 60.9572 13.4967 60.9405 14.0001C60.9925 15.0419 60.8284 16.0832 60.4582 17.0611C60.088 18.039 59.5195 18.9331 58.7868 19.6893C57.9723 20.5209 56.9882 21.1748 55.8987 21.6085C54.8091 22.0421 53.6386 22.2458 52.4634 22.2061ZM71.8762 20.5668C70.7557 21.62 69.2636 22.208 67.7114 22.208C66.1593 22.208 64.6671 21.62 63.5466 20.5668C62.9889 20.0366 62.5497 19.3985 62.2568 18.693C61.9639 17.9875 61.8238 17.23 61.8453 16.4686C61.8244 15.7073 61.9648 14.95 62.2577 14.2446C62.5505 13.5392 62.9894 12.901 63.5466 12.3704C64.6683 11.3194 66.16 10.733 67.7114 10.733C69.2629 10.733 70.7546 11.3194 71.8762 12.3704C72.4335 12.901 72.8724 13.5392 73.1652 14.2446C73.4581 14.95 73.5985 15.7073 73.5776 16.4686C73.5978 17.2307 73.4561 17.9887 73.1615 18.6942C72.8669 19.3997 72.4259 20.0375 71.8664 20.5668H71.8762ZM65.3856 18.9565C65.6837 19.2686 66.0439 19.5174 66.4439 19.6874C66.844 19.8575 67.2754 19.9453 67.7114 19.9453C68.1475 19.9453 68.5789 19.8575 68.9789 19.6874C69.379 19.5174 69.7392 19.2686 70.0372 18.9565C70.3622 18.6272 70.6166 18.2374 70.7855 17.8101C70.9544 17.3828 71.0344 16.9267 71.0207 16.4686C71.0352 16.009 70.9556 15.5513 70.7867 15.1223C70.6178 14.6934 70.363 14.3019 70.0372 13.9711C69.7352 13.6622 69.3726 13.4164 68.9713 13.2485C68.5699 13.0806 68.138 12.994 67.7016 12.994C67.2652 12.994 66.8333 13.0806 66.4319 13.2485C66.0306 13.4164 65.668 13.6622 65.366 13.9711C65.0402 14.3019 64.7854 14.6934 64.6165 15.1223C64.4476 15.5513 64.368 16.009 64.3825 16.4686C64.3701 16.9274 64.4516 17.3839 64.6222 17.8112C64.7928 18.2385 65.0491 18.6279 65.3758 18.9565H65.3856ZM84.6804 20.5668C83.5599 21.62 82.0678 22.208 80.5156 22.208C78.9635 22.208 77.4713 21.62 76.3508 20.5668C75.7931 20.0366 75.3539 19.3985 75.061 18.693C74.7681 17.9875 74.628 17.23 74.6495 16.4686C74.6286 15.7073 74.769 14.95 75.0619 14.2446C75.3547 13.5392 75.7936 12.901 76.3508 12.3704C77.4713 11.3172 78.9635 10.7293 80.5156 10.7293C82.0678 10.7293 83.5599 11.3172 84.6804 12.3704C85.2377 12.901 85.6766 13.5392 85.9694 14.2446C86.2623 14.95 86.4027 15.7073 86.3818 16.4686C86.4033 17.23 86.2631 17.9875 85.9702 18.693C85.6774 19.3985 85.2382 20.0366 84.6804 20.5668ZM78.1898 18.9565C78.4879 19.2686 78.8481 19.5174 79.2481 19.6874C79.6482 19.8575 80.0796 19.9453 80.5156 19.9453C80.9517 19.9453 81.3831 19.8575 81.7831 19.6874C82.1832 19.5174 82.5434 19.2686 82.8414 18.9565C83.1664 18.6272 83.4208 18.2374 83.5897 17.8101C83.7586 17.3828 83.8386 16.9267 83.8249 16.4686C83.8394 16.009 83.7598 15.5513 83.5909 15.1223C83.422 14.6934 83.1672 14.3019 82.8414 13.9711C82.5394 13.6622 82.1768 13.4164 81.7755 13.2485C81.3741 13.0806 80.9422 12.994 80.5058 12.994C80.0694 12.994 79.6375 13.0806 79.2361 13.2485C78.8347 13.4164 78.4722 13.6622 78.1702 13.9711C77.8444 14.3019 77.5896 14.6934 77.4207 15.1223C77.2518 15.5513 77.1722 16.009 77.1867 16.4686C77.1743 16.9274 77.2558 17.3839 77.4264 17.8112C77.597 18.2385 77.8533 18.6279 78.18 18.9565H78.1898ZM93.0986 27.3554C91.9198 27.3922 90.7639 27.0314 89.8238 26.3333C88.989 25.7179 88.3316 24.9005 87.9159 23.9611L90.1581 23.0451C90.4021 23.6065 90.7839 24.1 91.2694 24.4818C91.7891 24.8926 92.4412 25.108 93.1084 25.0893C93.5315 25.1146 93.9552 25.0501 94.3506 24.9004C94.746 24.7506 95.1038 24.5191 95.3998 24.2215C95.9923 23.5207 96.2848 22.6221 96.216 21.7143V20.8851H96.1275C95.7528 21.3215 95.2795 21.6664 94.7452 21.8923C94.2109 22.1183 93.6303 22.2191 93.0494 22.1868C92.311 22.189 91.5802 22.0411 90.9032 21.7523C90.2261 21.4635 89.6174 21.0401 89.1157 20.509C88.5712 19.9821 88.1415 19.3523 87.8524 18.6579C87.5634 17.9634 87.421 17.2186 87.434 16.4686C87.4204 15.7143 87.5624 14.965 87.8514 14.2657C88.1404 13.5665 88.5704 12.9317 89.1157 12.3993C89.6162 11.866 90.2244 11.4405 90.9016 11.15C91.5788 10.8595 92.3102 10.7103 93.0494 10.7118C93.675 10.7108 94.293 10.8458 94.8589 11.1072C95.3485 11.3168 95.7849 11.6296 96.1373 12.0233H96.2259V11.1072H98.6647V21.3768C98.7289 22.1892 98.6234 23.0059 98.3545 23.7769C98.0857 24.5479 97.6591 25.257 97.1011 25.8608C96.5696 26.3594 95.9415 26.7485 95.2541 27.0053C94.5666 27.262 93.8337 27.381 93.0986 27.3554ZM93.2756 19.9497C93.6955 19.9588 94.1123 19.8771 94.4964 19.7104C94.8805 19.5437 95.2225 19.2962 95.4981 18.9854C96.1049 18.3036 96.4248 17.4212 96.393 16.5168C96.4295 15.5972 96.1098 14.6981 95.4981 14.0001C95.223 13.6887 94.8811 13.4409 94.4968 13.2742C94.1126 13.1075 93.6956 13.0261 93.2756 13.0358C92.8442 13.0271 92.4158 13.1086 92.019 13.2749C91.6222 13.4411 91.2661 13.6883 90.9744 14.0001C90.3238 14.673 89.9704 15.5705 89.9909 16.4976C89.9809 16.9523 90.0627 17.4044 90.2314 17.8281C90.4002 18.2517 90.6527 18.6385 90.9744 18.9661C91.2647 19.2809 91.6201 19.5314 92.0169 19.7009C92.4137 19.8705 92.8428 19.9553 93.2756 19.9497ZM103.002 5.00327V21.859H100.435V5.00327H103.002ZM110.043 22.2061C109.274 22.2255 108.51 22.0891 107.797 21.8053C107.085 21.5216 106.44 21.0967 105.903 20.5572C105.358 20.0217 104.929 19.3831 104.644 18.6803C104.358 17.9774 104.221 17.225 104.241 16.4686C104.212 15.7104 104.339 14.9542 104.614 14.2451C104.889 13.5361 105.308 12.8887 105.844 12.3415C106.349 11.8193 106.96 11.4063 107.637 11.129C108.315 10.8517 109.044 10.7162 109.777 10.7311C110.452 10.7241 111.122 10.8521 111.744 11.1072C112.305 11.3292 112.816 11.6568 113.249 12.0715C113.62 12.423 113.95 12.8144 114.232 13.2383C114.461 13.5961 114.655 13.9738 114.813 14.3665L115.078 15.0222L107.211 18.1947C107.449 18.7308 107.847 19.1835 108.352 19.4934C108.858 19.8032 109.447 19.9556 110.043 19.9304C110.623 19.932 111.193 19.7862 111.698 19.5074C112.203 19.2285 112.625 18.8261 112.924 18.3393L114.891 19.6411C114.389 20.3453 113.747 20.9423 113.003 21.3961C112.118 21.9442 111.089 22.2258 110.043 22.2061ZM106.758 16.2951L111.99 14.164C111.829 13.7882 111.541 13.4784 111.174 13.2865C110.763 13.0591 110.298 12.9426 109.827 12.949C109.026 12.9693 108.266 13.2985 107.712 13.8651C107.381 14.1763 107.123 14.5554 106.958 14.9755C106.793 15.3955 106.725 15.8461 106.758 16.2951Z" fill="#686B7F"/>
<path d="M128.523 22.2062C127.431 22.2247 126.347 22.0267 125.335 21.6241C124.324 21.2215 123.405 20.6226 122.636 19.8634C121.866 19.1042 121.261 18.2003 120.856 17.206C120.452 16.2117 120.256 15.1475 120.281 14.0773C120.256 13.007 120.452 11.9428 120.856 10.9485C121.261 9.95424 121.866 9.05035 122.636 8.29114C123.405 7.53192 124.324 6.93304 125.335 6.53045C126.347 6.12786 127.431 5.92986 128.523 5.94834C129.627 5.91447 130.726 6.12584 131.736 6.56666C132.745 7.00748 133.641 7.66635 134.354 8.49405L132.938 9.84405C132.414 9.19788 131.742 8.68207 130.977 8.33858C130.211 7.99509 129.374 7.83361 128.532 7.86727C127.723 7.84938 126.918 7.99221 126.165 8.28717C125.413 8.58214 124.73 9.02315 124.156 9.58369C123.56 10.1719 123.094 10.8748 122.787 11.6481C122.481 12.4214 122.341 13.2484 122.376 14.0773C122.341 14.9061 122.481 15.7332 122.787 16.5065C123.094 17.2798 123.56 17.9826 124.156 18.5708C124.73 19.1314 125.413 19.5724 126.165 19.8674C126.918 20.1623 127.723 20.3052 128.532 20.2873C129.472 20.2976 130.402 20.1001 131.254 19.7094C132.105 19.3188 132.856 18.745 133.45 18.0308L134.866 19.4194C134.124 20.2888 133.193 20.9841 132.142 21.4541C131.008 21.9673 129.771 22.2243 128.523 22.2062Z" fill="#686B7F"/>
<path d="M138.67 21.8589H136.635V6.28564H138.67V21.8589Z" fill="#686B7F"/>
<path d="M141.996 12.4859C143.063 11.4472 144.505 10.8643 146.008 10.8643C147.512 10.8643 148.954 11.4472 150.021 12.4859C150.542 13.026 150.95 13.6618 151.22 14.3569C151.49 15.0519 151.617 15.7925 151.594 16.5359C151.617 17.2794 151.49 18.02 151.22 18.715C150.95 19.4101 150.542 20.0459 150.021 20.5859C148.954 21.6247 147.512 22.2076 146.008 22.2076C144.505 22.2076 143.063 21.6247 141.996 20.5859C141.474 20.0459 141.067 19.4101 140.797 18.715C140.527 18.02 140.4 17.2794 140.423 16.5359C140.4 15.7925 140.527 15.0519 140.797 14.3569C141.067 13.6618 141.474 13.026 141.996 12.4859ZM143.511 19.3324C143.831 19.6648 144.218 19.9295 144.646 20.1104C145.075 20.2914 145.537 20.3847 146.004 20.3847C146.47 20.3847 146.932 20.2914 147.361 20.1104C147.789 19.9295 148.176 19.6648 148.496 19.3324C148.852 18.958 149.129 18.518 149.309 18.0379C149.49 17.5578 149.571 17.0472 149.549 16.5359C149.571 16.0247 149.49 15.5141 149.309 15.034C149.129 14.5539 148.852 14.1139 148.496 13.7395C148.176 13.4071 147.789 13.1424 147.361 12.9615C146.932 12.7805 146.47 12.6872 146.004 12.6872C145.537 12.6872 145.075 12.7805 144.646 12.9615C144.218 13.1424 143.831 13.4071 143.511 13.7395C143.155 14.1139 142.878 14.5539 142.698 15.034C142.517 15.5141 142.436 16.0247 142.458 16.5359C142.438 17.0463 142.522 17.5554 142.704 18.0338C142.887 18.5122 143.164 18.9503 143.52 19.3227L143.511 19.3324Z" fill="#686B7F"/>
<path d="M162.874 21.8591H160.907V20.3837H160.848C160.498 20.9441 160.002 21.4033 159.412 21.7145C158.799 22.0625 158.104 22.2455 157.396 22.2448C156.821 22.2834 156.245 22.1941 155.71 21.9837C155.175 21.7733 154.696 21.4473 154.308 21.0298C153.563 20.1059 153.189 18.9465 153.256 17.7705V11.2134H155.291V17.4041C155.291 19.3905 156.186 20.3837 157.976 20.3837C158.374 20.3959 158.769 20.3147 159.128 20.147C159.487 19.9793 159.8 19.7298 160.041 19.4195C160.569 18.7638 160.85 17.9499 160.838 17.1148V11.2134H162.874V21.8591Z" fill="#686B7F"/>
<path d="M169.788 22.206C169.098 22.2083 168.415 22.0637 167.787 21.7824C167.158 21.5011 166.6 21.0896 166.15 20.5764C165.13 19.4722 164.584 18.025 164.625 16.536C164.584 15.047 165.13 13.5998 166.15 12.4956C166.6 11.9824 167.158 11.5709 167.787 11.2896C168.415 11.0083 169.098 10.8638 169.788 10.866C170.562 10.854 171.326 11.0331 172.011 11.3867C172.612 11.6835 173.122 12.1331 173.486 12.6885H173.574L173.486 11.2131V6.28564H175.522V21.8589H173.555V20.3835H173.466C173.102 20.9389 172.593 21.3885 171.991 21.6853C171.312 22.0358 170.555 22.2147 169.788 22.206ZM170.123 20.3835C170.583 20.3901 171.039 20.3006 171.461 20.1211C171.883 19.9415 172.262 19.676 172.571 19.3421C173.263 18.57 173.616 17.5618 173.555 16.536C173.616 15.5102 173.263 14.502 172.571 13.7299C172.26 13.3942 171.88 13.126 171.457 12.9425C171.033 12.7589 170.576 12.6641 170.113 12.6641C169.65 12.6641 169.192 12.7589 168.769 12.9425C168.345 13.126 167.966 13.3942 167.654 13.7299C167.311 14.1097 167.047 14.5522 166.878 15.032C166.709 15.5119 166.639 16.0197 166.671 16.5264C166.639 17.033 166.709 17.5408 166.878 18.0207C167.047 18.5006 167.311 18.943 167.654 19.3228C167.964 19.6627 168.345 19.9333 168.771 20.1163C169.197 20.2993 169.658 20.3904 170.123 20.3835Z" fill="#686B7F"/>
</g>
<defs>
<clipPath id="clip0_1_24275">
<rect width="178" height="27" fill="white" transform="translate(0.548828 0.5)"/>
</clipPath>
</defs>
</svg>
