<svg xmlns="http://www.w3.org/2000/svg" width="144" height="25" viewBox="0 0 144 25" fill="none">
<path d="M42.485 10.9968V19.0634H39.2207V7.44426C39.2207 6.20211 39.888 5.427 40.9263 5.427C41.4243 5.427 41.7804 5.59345 42.2435 6.02075L50.403 13.5134V5.44688H53.6649V17.2325C53.6649 18.4746 52.9801 19.2497 51.9593 19.2497C51.7103 19.2502 51.4642 19.1974 51.2374 19.095C51.0107 18.9926 50.8085 18.8429 50.6446 18.656L42.485 10.9968Z" fill="#686B7F"/>
<path d="M62.7446 19.0633C58.8304 19.0633 55.957 16.1045 55.957 12.1992C55.957 8.2392 58.8304 5.61328 62.7446 5.61328H66.1359C70.1622 5.61328 72.9434 8.29634 72.9434 12.1992C72.9434 16.102 70.0875 19.0633 66.1359 19.0633H62.7446ZM66.1359 15.6425C68.1403 15.6425 69.5322 14.2711 69.5322 12.3656C69.5322 10.4602 68.1204 9.01679 66.1359 9.01679H62.7446C62.3004 9.00409 61.8582 9.08203 61.4453 9.24584C61.0323 9.40964 60.6572 9.65585 60.3429 9.96939C60.0287 10.2829 59.7819 10.6572 59.6177 11.0692C59.4536 11.4813 59.3755 11.9224 59.3882 12.3656C59.3882 14.291 60.7776 15.6425 62.7446 15.6425H66.1359Z" fill="#686B7F"/>
<path d="M75.2841 19.0635V15.6427H85.5377C86.3345 15.6427 86.8175 15.27 86.8175 14.6042C86.8175 13.9384 86.3345 13.5136 85.5377 13.5136H79.5295C76.7681 13.5136 75.0625 11.9212 75.0625 9.59087C75.0625 7.31524 76.6561 5.61597 79.5668 5.61597H89.3772V9.01947H79.5668C79.4389 9.00887 79.3102 9.02659 79.19 9.07136C79.0697 9.11612 78.9609 9.18684 78.8712 9.27846C78.7815 9.37007 78.7132 9.48032 78.6712 9.60132C78.6292 9.72232 78.6145 9.85109 78.6281 9.97842C78.6154 10.1062 78.6309 10.2353 78.6735 10.3564C78.7161 10.4776 78.7847 10.588 78.8747 10.6799C78.9646 10.7718 79.0736 10.8429 79.1941 10.8882C79.3145 10.9336 79.4434 10.952 79.5718 10.9423H85.5477C88.4958 10.9423 90.0744 12.1845 90.0744 14.9172C90.0744 17.2848 88.5804 19.0611 85.5477 19.0611L75.2841 19.0635Z" fill="#686B7F"/>
<path d="M94.754 8.01589C94.9359 7.36116 95.2911 6.76735 95.7823 6.29674C96.2654 5.84211 96.9277 5.61356 97.7743 5.61356H101.798C102.547 5.57513 103.283 5.81899 103.86 6.29674C104.376 6.75586 104.75 7.35222 104.938 8.01589L108.257 19.0636H104.554L103.651 15.834L102.744 12.6044L101.706 8.84068H97.971L95.1225 19.0611H91.4199L94.754 8.01589Z" fill="#686B7F"/>
<path d="M129.891 8.01589C130.072 7.36143 130.426 6.76765 130.917 6.29674C131.4 5.84211 132.062 5.61356 132.908 5.61356H136.932C137.681 5.57513 138.417 5.81899 138.994 6.29674C139.51 6.75586 139.884 7.35222 140.072 8.01589L143.384 19.0636H139.691L138.787 15.834L137.881 12.6044L136.843 8.84316H133.108L130.259 19.0636H126.557L129.891 8.01589Z" fill="#686B7F"/>
<path d="M113.579 10.9968V19.0634H110.314V7.44426C110.314 6.20211 110.984 5.427 112.023 5.427C112.521 5.427 112.874 5.59345 113.337 6.02075L121.497 13.5134V5.44688H124.761V17.2325C124.761 18.4746 124.074 19.2497 123.056 19.2497C122.806 19.2495 122.56 19.1965 122.333 19.0942C122.106 18.9918 121.903 18.8424 121.738 18.656L113.579 10.9968Z" fill="#686B7F"/>
<path d="M8.34743 2.7812C7.94848 1.98586 7.29201 1.34825 6.48442 0.97174C5.67684 0.595226 4.76547 0.50187 3.89805 0.706805C3.03064 0.91174 2.25801 1.40295 1.70541 2.10082C1.15281 2.79869 0.852626 3.66232 0.853518 4.5517V24.0744H3.46694V4.5517C3.4716 4.25217 3.57624 3.96273 3.76432 3.72922C3.9524 3.4957 4.21316 3.33143 4.50534 3.26241C4.79751 3.1934 5.10441 3.22358 5.37746 3.34817C5.65051 3.47276 5.87412 3.68466 6.01289 3.95032L14.818 21.4669H11.8942L7.30386 12.3383H4.38006L10.2839 24.0744H19.0553L8.34743 2.7812Z" fill="#7D8095"/>
<path d="M24.9041 0.602295V20.125C24.8986 20.4237 24.7935 20.7121 24.6056 20.9448C24.4177 21.1775 24.1575 21.3411 23.8661 21.41C23.5746 21.4789 23.2685 21.4491 22.9959 21.3254C22.7234 21.2016 22.4998 20.9908 22.3604 20.7263L13.5553 3.2098H16.4791L21.0695 12.3383H23.9933L18.0917 0.602295H9.32031L20.0236 21.8955C20.4234 22.6901 21.0801 23.3269 21.8876 23.7028C22.6951 24.0788 23.6061 24.1719 24.4733 23.9671C25.3404 23.7623 26.1129 23.2715 26.6658 22.5743C27.2187 21.877 27.5196 21.014 27.5198 20.125V0.602295H24.9041Z" fill="#7D8095"/>
</svg>