<svg width="123" height="24" viewBox="0 0 123 24" fill="none" xmlns="http://www.w3.org/2000/svg">
<g clip-path="url(#clip0_1_24286)">
<path d="M0.949219 20.1072C0.949219 23.1901 2.59443 23.9001 4.30576 23.9001C7.92601 23.9001 10.6476 20.7283 12.2705 18.2222C12.0729 18.776 11.9629 19.3305 11.9629 19.8636C11.9629 21.3273 12.7971 22.3698 14.4423 22.3698C16.7026 22.3698 19.1158 20.3729 20.3666 18.2214C20.279 18.5324 20.2352 18.8204 20.2352 19.0861C20.2352 20.1072 20.8056 20.7506 21.968 20.7506C25.6329 20.7506 29.3185 14.2072 29.3185 8.48404C29.3185 4.02551 27.0797 0.100098 21.4629 0.100098C11.5909 0.100098 0.949219 12.2556 0.949219 20.1072ZM18.0626 7.99614C18.0626 6.88706 18.6768 6.11118 19.5763 6.11118C20.4543 6.11118 21.0685 6.88706 21.0685 7.99614C21.0685 9.10522 20.4551 9.90411 19.5771 9.90411C18.6768 9.90411 18.0634 9.10522 18.0634 7.99614H18.0626ZM22.7584 7.99614C22.7584 6.88706 23.3718 6.11118 24.2721 6.11118C25.1493 6.11118 25.7636 6.88706 25.7636 7.99614C25.7636 9.10522 25.1501 9.90411 24.2721 9.90411C23.3718 9.90411 22.7584 9.10522 22.7584 7.99614ZM33.706 21.4828H36.9964V18.488C36.9964 16.9132 36.8872 16.181 36.2507 14.7395L36.6012 14.5618C37.6553 16.9799 39.2128 17.9334 40.8365 17.9334C43.4473 17.9334 45.5315 15.6264 45.5315 12.0548C45.5315 8.63954 43.6226 6.1334 40.8803 6.1334C39.2567 6.1334 37.6553 7.06477 36.602 9.48285L36.2515 9.30514C36.6897 8.35156 36.9964 7.39797 36.9964 6.48881H33.706V21.4828ZM36.9964 12.0334C36.9964 10.5697 38.0943 8.95052 39.7172 8.95052C41.0341 8.95052 42.1089 10.0374 42.1089 12.0112C42.1089 13.9628 41.0779 15.1163 39.6948 15.1163C38.1596 15.1163 36.9964 13.5415 36.9964 12.0334ZM46.5609 17.5788H49.8529V13.674C49.8529 10.9235 50.8177 8.97194 52.6175 8.97194C53.7576 8.97194 54.1089 9.74782 54.1089 11.6772V17.578H57.4001V11.1457C57.4001 7.64073 56.1493 6.13181 53.7576 6.13181C51.3228 6.13181 50.5325 7.79622 49.5892 9.7034L49.2386 9.50427C49.7206 8.30634 49.8521 7.55267 49.8521 6.48722V2.73952H46.5617L46.5609 17.5788ZM62.1023 17.9334C64.1873 17.9334 65.4374 16.5134 66.3153 14.8283L66.6882 15.0275C66.3376 15.8263 66.0078 16.7807 66.0078 17.5788H69.2337V11.5455C69.2337 7.95172 67.7414 6.1334 64.2526 6.1334C60.83 6.1334 59.141 7.86286 58.8111 9.68198L61.9709 10.2373C62.0808 9.28293 62.8488 8.63954 64.0774 8.63954C65.3059 8.63954 66.0078 9.26072 66.0078 10.0152C66.0078 10.7688 65.2844 11.1243 63.3532 11.1465C60.5009 11.1909 58.3944 12.2333 58.3944 14.4515C58.3944 16.2698 59.8205 17.9334 62.1023 17.9334ZM61.6641 14.2516C61.6641 12.4547 64.4064 13.7192 65.9425 12.3436V12.7657C65.9425 14.3404 64.5379 15.4709 63.2217 15.4709C62.476 15.4709 61.6641 15.1615 61.6641 14.2516ZM70.7092 17.5788H73.9996V13.674C73.9996 10.9235 74.9652 8.97194 76.7642 8.97194C77.9051 8.97194 78.2564 9.74782 78.2564 11.6772V17.578H81.5476V11.1457C81.5476 7.64073 80.2968 6.13181 77.9051 6.13181C75.4703 6.13181 74.68 7.79622 73.7367 9.7034L73.3861 9.50427C73.8681 8.30634 73.9996 7.55267 73.9996 6.48722H70.7092V17.5788ZM90.4421 17.6232V14.872C89.7394 15.1155 87.7867 15.5368 87.7867 13.9184V9.19328H90.705V6.48802H87.7867V3.5154L84.474 4.51341V6.48722H82.4997V9.19328H84.474L84.4963 14.1841C84.4963 17.889 87.7652 18.4213 90.4421 17.6232ZM97.3416 17.9334C100.676 17.9334 103.221 15.3607 103.221 12.0112C103.221 8.68396 100.676 6.1326 97.3416 6.1326C94.0066 6.1326 91.4396 8.68396 91.4396 12.0112C91.4396 15.3607 94.0066 17.9334 97.3416 17.9334ZM94.84 12.0334C94.84 10.1929 95.8709 8.9061 97.3416 8.9061C98.8116 8.9061 99.8202 10.1921 99.8202 12.0334C99.8202 13.874 98.8116 15.1607 97.3416 15.1607C95.8709 15.1607 94.84 13.874 94.84 12.0334ZM104.306 17.5788H107.596V13.674C107.596 10.8125 108.408 8.97194 109.856 8.97194C110.8 8.97194 111.195 9.72561 111.195 11.6772V17.578H114.486V13.674C114.486 10.9902 115.363 8.97194 116.746 8.97194C117.667 8.97194 118.084 9.83668 118.084 11.6772V17.578H121.375V11.1457C121.375 7.61852 120.234 6.13181 117.996 6.13181C115.671 6.13181 114.749 7.72958 114.135 9.65897L113.762 9.45984C114.091 8.30634 113.893 7.68516 113.498 7.19726C112.928 6.48722 112.116 6.1326 111.085 6.1326C109.022 6.1326 108.123 7.5963 107.333 9.63676L106.982 9.41462C107.355 8.4174 107.596 7.61852 107.596 6.48722H104.306V17.5788Z" fill="#686B7F"/>
</g>
<defs>
<clipPath id="clip0_1_24286">
<rect width="121.1" height="23.8" fill="white" transform="translate(0.949219 0.100098)"/>
</clipPath>
</defs>
</svg>
