<svg width="137" height="22" viewBox="0 0 137 22" fill="none" xmlns="http://www.w3.org/2000/svg">
<g clip-path="url(#clip0_1_24268)">
<mask id="mask0_1_24268" style="mask-type:luminance" maskUnits="userSpaceOnUse" x="0" y="0" width="137" height="22">
<path d="M0.349609 0.5H136.15V21.5H0.349609V0.5Z" fill="white"/>
</mask>
<g mask="url(#mask0_1_24268)">
<path d="M23.1674 17.0573L19.4424 21.2135C19.3618 21.3038 19.2642 21.3759 19.1557 21.4252C19.0472 21.4745 18.9301 21.5 18.8117 21.5001H1.15351C1.06929 21.5 0.986906 21.4744 0.916456 21.4264C0.846005 21.3784 0.79054 21.31 0.756853 21.2297C0.723166 21.1494 0.712719 21.0606 0.72679 20.9742C0.740862 20.8878 0.778842 20.8075 0.836079 20.7432L4.55691 16.587C4.63748 16.4967 4.73506 16.4247 4.84356 16.3754C4.95207 16.326 5.06917 16.3005 5.18756 16.3004H22.8458C22.9308 16.2986 23.0144 16.323 23.0861 16.3705C23.1578 16.418 23.2144 16.4865 23.2488 16.5674C23.2832 16.6483 23.2938 16.738 23.2793 16.8252C23.2648 16.9123 23.2259 16.9931 23.1674 17.0573ZM19.4424 8.68572C19.3615 8.59585 19.2638 8.52409 19.1554 8.47482C19.047 8.42555 18.93 8.39981 18.8117 8.39916H1.15351C1.06929 8.39921 0.986906 8.42481 0.916456 8.47283C0.846005 8.52086 0.79054 8.58922 0.756853 8.66954C0.723166 8.74986 0.712719 8.83867 0.72679 8.92507C0.740862 9.01148 0.778842 9.09174 0.836079 9.15603L4.55691 13.3145C4.63779 13.4043 4.73543 13.4761 4.84387 13.5254C4.9523 13.5746 5.06925 13.6004 5.18756 13.601H22.8458C22.9298 13.6006 23.0119 13.5746 23.082 13.5265C23.1522 13.4783 23.2073 13.4099 23.2407 13.3297C23.2742 13.2494 23.2844 13.1608 23.2703 13.0746C23.2562 12.9884 23.2182 12.9083 23.1611 12.8442L19.4424 8.68572ZM1.15351 5.69978H18.8117C18.9301 5.69968 19.0472 5.67418 19.1557 5.62488C19.2642 5.57557 19.3618 5.50352 19.4424 5.41322L23.1674 1.25697C23.2111 1.20894 23.244 1.15146 23.2638 1.08864C23.2837 1.02582 23.2899 0.959224 23.2821 0.8936C23.2744 0.827976 23.2528 0.764949 23.2189 0.709025C23.185 0.653101 23.1396 0.605661 23.086 0.570096C23.0143 0.522618 22.9307 0.498263 22.8458 0.500096H5.18756C5.06917 0.500226 4.95207 0.525738 4.84356 0.575041C4.73506 0.624344 4.63748 0.696381 4.55691 0.786659L0.836079 4.94291C0.778842 5.0072 0.740862 5.08746 0.72679 5.17387C0.712719 5.26028 0.723166 5.34908 0.756853 5.4294C0.79054 5.50973 0.846005 5.57808 0.916456 5.62611C0.986906 5.67413 1.06929 5.69973 1.15351 5.69978Z" fill="#686B7F"/>
<path d="M44.6961 9.3815H35.249V6.144H47.1514V2.9065H35.2174C34.8097 2.90414 34.4055 2.98539 34.0279 3.14561C33.6503 3.30584 33.3068 3.5419 33.0169 3.8403C32.727 4.13871 32.4964 4.49362 32.3384 4.88477C32.1803 5.27591 32.0979 5.69563 32.0957 6.11994V9.40119C32.0973 9.82587 32.1794 10.2461 32.3372 10.6377C32.495 11.0294 32.7254 11.3848 33.0154 11.6837C33.3053 11.9825 33.6491 12.219 34.0269 12.3795C34.4048 12.54 34.8093 12.6214 35.2174 12.619H44.6772V15.8565H32.3206V19.094H44.6961C45.3102 19.0976 45.9115 18.9115 46.424 18.5594C46.9365 18.2072 47.337 17.7048 47.575 17.1156C47.7331 16.7245 47.8156 16.3049 47.8178 15.8806V12.5993C47.8162 12.1746 47.7341 11.7545 47.5763 11.3628C47.4185 10.9712 47.188 10.6158 46.8981 10.3169C46.6081 10.018 46.2644 9.7816 45.8866 9.62109C45.5087 9.46059 45.1042 9.37917 44.6961 9.3815ZM62.9976 2.9065H53.5147C52.8995 2.9014 52.2968 3.08653 51.7829 3.43839C51.269 3.79026 50.8671 4.29302 50.6282 4.88291C50.4695 5.27453 50.3867 5.69492 50.3846 6.11994V15.8806C50.3867 16.3056 50.4695 16.726 50.6282 17.1178C50.8671 17.7077 51.269 18.2105 51.7829 18.5623C52.2968 18.9142 52.8995 19.0992 53.5147 19.094H62.9976C63.4053 19.0964 63.8095 19.0151 64.1871 18.8549C64.5647 18.6947 64.9082 18.4586 65.1981 18.1602C65.488 17.8618 65.7186 17.5069 65.8766 17.1157C66.0347 16.7246 66.1171 16.3049 66.1193 15.8806V6.11994C66.1172 5.69564 66.0347 5.27594 65.8766 4.88483C65.7185 4.49371 65.4879 4.13886 65.1979 3.84056C64.9081 3.54206 64.5646 3.30592 64.1871 3.14565C63.8095 2.98537 63.4053 2.90411 62.9976 2.9065ZM62.9744 15.8565H53.5378V6.144H62.9702L62.9744 15.8565ZM96.2118 2.9065H86.9623C86.5545 2.90414 86.1503 2.98539 85.7727 3.14561C85.3951 3.30584 85.0516 3.5419 84.7617 3.8403C84.4718 4.13871 84.2413 4.49362 84.0832 4.88477C83.9252 5.27591 83.8427 5.69563 83.8405 6.11994V19.094H86.9938V13.7762H96.2013V19.094H99.3545V6.11994C99.3525 5.69375 99.2694 5.27221 99.11 4.8796C98.9507 4.48699 98.7182 4.13107 98.4261 3.83237C98.134 3.53366 97.7879 3.29807 97.4079 3.13916C97.0278 2.98026 96.6213 2.90119 96.2118 2.9065ZM96.1887 10.5387H86.9812V6.144H96.1887V10.5387ZM133.031 2.9065H123.782C123.374 2.90414 122.97 2.98539 122.592 3.14561C122.215 3.30584 121.871 3.5419 121.581 3.8403C121.291 4.13871 121.061 4.49362 120.903 4.88477C120.745 5.27591 120.662 5.69563 120.66 6.11994V19.094H123.813V13.7762H133V19.094H136.153V6.11994C136.151 5.69564 136.068 5.27594 135.91 4.88483C135.752 4.49371 135.522 4.13886 135.232 3.84056C134.646 3.23792 133.855 2.90193 133.031 2.9065ZM133 10.5387H123.792V6.144H133V10.5387ZM114.711 15.8565H113.45L108.94 4.26275C108.786 3.86272 108.52 3.51987 108.177 3.27821C107.834 3.03654 107.429 2.9071 107.015 2.9065H104.217C103.807 2.9042 103.406 3.02842 103.065 3.26343C102.723 3.49843 102.456 3.83366 102.297 4.22666C102.192 4.4875 102.137 4.76734 102.136 5.05025V19.094H105.289V6.144H106.55L111.057 17.7378C111.214 18.137 111.482 18.4785 111.827 18.7186C112.171 18.9586 112.577 19.0863 112.991 19.0853H115.789C116.061 19.0868 116.331 19.0325 116.583 18.9255C116.834 18.8185 117.063 18.661 117.257 18.4618C117.647 18.0598 117.868 17.5129 117.87 16.9415V2.9065H114.711V15.8565ZM72.0579 2.9065H68.9047V15.8806C68.9068 16.3058 68.9896 16.7264 69.1483 17.1182C69.307 17.51 69.5386 17.8654 69.8296 18.1639C70.1206 18.4624 70.4654 18.6982 70.8442 18.8578C71.2229 19.0174 71.6283 19.0977 72.0369 19.094H81.4966V15.8565H72.0579V2.9065Z" fill="#686B7F"/>
</g>
</g>
<defs>
<clipPath id="clip0_1_24268">
<rect width="135.8" height="21" fill="white" transform="translate(0.349609 0.5)"/>
</clipPath>
</defs>
</svg>
