<svg width="160" height="36" viewBox="0 0 160 36" fill="none" xmlns="http://www.w3.org/2000/svg">
<g clip-path="url(#clip0_1_24257)">
<path d="M57.486 16.59C57.2866 16.3266 57.065 16.0994 56.81 15.9083C56.5552 15.7172 56.2893 15.5624 56.0067 15.4384C55.7241 15.3145 55.4415 15.2215 55.1589 15.1647C54.8764 15.1079 54.6048 15.0718 54.3499 15.0667H54.3334H48.9035C48.4547 15.0667 48.1056 14.9427 47.8562 14.6999C47.6068 14.4521 47.4795 14.1215 47.4795 13.6981C47.4795 13.2798 47.6068 12.944 47.8562 12.691C48.1056 12.438 48.4547 12.3089 48.9035 12.3089H56.9375V10.1089H48.9035C48.5211 10.1089 48.1112 10.1709 47.6678 10.3C47.2246 10.4292 46.8145 10.6304 46.4378 10.9196C46.061 11.2036 45.7452 11.5755 45.4959 12.03C45.2466 12.4844 45.1191 13.0422 45.1191 13.7032C45.1191 14.3643 45.2466 14.922 45.4959 15.3764C45.7452 15.8309 46.061 16.2027 46.4378 16.4867C46.8145 16.7709 47.2246 16.9722 47.6678 17.1013C48.1112 17.2304 48.5211 17.2923 48.9035 17.2923H54.3334C54.5495 17.2923 54.7489 17.3285 54.9262 17.3957C55.1035 17.4628 55.2587 17.561 55.3806 17.6849C55.5025 17.8088 55.6021 17.9534 55.6688 18.1238C55.7352 18.2943 55.7684 18.4802 55.7684 18.6816C55.7684 19.0999 55.641 19.4304 55.3917 19.6783C55.1423 19.9262 54.7877 20.0501 54.3334 20.0501H45.2244V22.25H54.3334C54.5883 22.25 54.8598 22.2243 55.1479 22.1675C55.436 22.1107 55.7185 22.0229 55.9956 21.9041C56.2727 21.7853 56.5441 21.6356 56.8046 21.4496C57.065 21.2637 57.2922 21.0365 57.486 20.7731C57.6799 20.5097 57.8352 20.1999 57.9515 19.8538C58.0679 19.5079 58.1288 19.1153 58.1288 18.6816C58.1288 18.2478 58.0734 17.8604 57.9569 17.5144C57.8406 17.1632 57.6855 16.8586 57.486 16.59Z" fill="#686B7F"/>
<path d="M72.2086 11.3737C71.7268 10.9244 71.1502 10.5732 70.4854 10.3202C69.8205 10.0671 69.1003 9.93799 68.319 9.93799H65.122C64.3407 9.93799 63.6148 10.0671 62.9499 10.3202C62.2851 10.5732 61.7089 10.9244 61.2269 11.3737C60.7447 11.8229 60.3625 12.3601 60.0855 12.9797C59.8085 13.5995 59.6699 14.2813 59.6699 15.0145V17.3333C59.6699 18.0717 59.8085 18.7535 60.0855 19.3732C60.3625 19.9929 60.7393 20.53 61.2269 20.9793C61.7089 21.4285 62.2851 21.7797 62.9499 22.0328C63.6148 22.2858 64.3407 22.4098 65.122 22.4098H68.319C69.1003 22.4098 69.8205 22.2858 70.4854 22.0328C71.1502 21.7797 71.7209 21.4285 72.2086 20.9793C72.6903 20.53 73.0727 19.9929 73.3448 19.3732C73.616 18.7535 73.7541 18.0717 73.7541 17.3333V15.0145C73.7541 14.2813 73.616 13.6047 73.3448 12.9797C73.0727 12.3549 72.6903 11.8229 72.2086 11.3737ZM71.3881 17.3385C71.3881 17.7723 71.3166 18.1647 71.1669 18.521C71.0174 18.8722 70.8068 19.177 70.5353 19.4248C70.2638 19.6778 69.9369 19.869 69.5601 20.0084C69.1833 20.1478 68.7623 20.2149 68.3024 20.2149H65.122C64.6621 20.2149 64.241 20.1478 63.8642 20.0084C63.4875 19.869 63.1606 19.6778 62.8891 19.4248C62.6175 19.1718 62.407 18.8722 62.2574 18.521C62.1079 18.1699 62.0358 17.7773 62.0358 17.3385V15.0198C62.0358 14.5859 62.1079 14.1934 62.2574 13.837C62.407 13.4859 62.6175 13.1812 62.8891 12.9333C63.1606 12.6803 63.4875 12.4892 63.8642 12.3497C64.241 12.2103 64.6621 12.1431 65.122 12.1431H68.319C68.7733 12.1431 69.1889 12.2103 69.5656 12.3497C69.9424 12.4892 70.2693 12.6803 70.5353 12.9333C70.8068 13.1864 71.0118 13.4859 71.1614 13.837C71.3107 14.1883 71.3832 14.5807 71.3832 15.0198V17.3385H71.3881Z" fill="#686B7F"/>
<path d="M78.4449 10.1094H76.084V21.1351C76.084 21.2952 76.1118 21.4398 76.1734 21.5741C76.234 21.7084 76.3174 21.8272 76.4227 21.9253C76.528 22.0234 76.6551 22.1008 76.7991 22.1577C76.9431 22.2145 77.1041 22.2403 77.2699 22.2403H88.0418V20.0404H78.4449V10.1094Z" fill="#686B7F"/>
<path d="M90.4964 10.1918C90.3524 10.2486 90.2242 10.3261 90.119 10.4295C90.0137 10.5327 89.9312 10.6515 89.8696 10.7858C89.8091 10.92 89.7812 11.0646 89.7812 11.2196V22.2453H92.1422V17.2876H101.6V15.0721H92.1422V12.3144H101.605V10.1144H90.9722C90.8003 10.1093 90.6404 10.1351 90.4964 10.1918Z" fill="#686B7F"/>
<path d="M105.874 10.1094H103.514V21.1351C103.514 21.2952 103.541 21.4398 103.602 21.5741C103.664 21.7084 103.747 21.8272 103.852 21.9253C103.958 22.0234 104.085 22.1008 104.229 22.1577C104.372 22.2145 104.534 22.2403 104.701 22.2403H115.47V20.0404H105.874V10.1094Z" fill="#686B7F"/>
<path d="M129.635 10.4296C129.525 10.3263 129.397 10.2488 129.253 10.192C129.108 10.1352 128.954 10.1094 128.788 10.1094H123.468C122.531 10.1094 121.662 10.2591 120.869 10.5588C120.077 10.8582 119.391 11.2765 118.808 11.8137C118.226 12.3507 117.772 12.991 117.446 13.7347C117.119 14.4783 116.957 15.2943 116.957 16.1825V22.2506H119.318V19.2657H127.619V22.2455H129.979V11.2197C129.979 11.07 129.951 10.9253 129.89 10.7859C129.829 10.6517 129.746 10.5329 129.635 10.4296ZM127.619 17.0657H119.323V16.1774C119.323 15.5628 119.417 15.0413 119.601 14.6074C119.784 14.1737 120.022 13.8173 120.304 13.5281C120.586 13.2389 120.902 13.0169 121.24 12.8516C121.579 12.6863 121.899 12.5676 122.21 12.4901C122.515 12.4126 122.786 12.361 123.02 12.3404C123.252 12.3197 123.406 12.3094 123.479 12.3094H127.63V17.0657H127.619Z" fill="#686B7F"/>
<path d="M142.293 18.1812C142.624 18.1192 142.951 18.0211 143.273 17.8816C143.594 17.7421 143.905 17.5666 144.204 17.3549C144.503 17.138 144.764 16.8849 144.99 16.5803C145.218 16.2807 145.401 15.9295 145.534 15.537C145.666 15.1446 145.733 14.6953 145.733 14.1891V12.7844C145.733 12.516 145.683 12.2216 145.582 11.9117C145.484 11.6019 145.317 11.3127 145.091 11.0441C144.863 10.7756 144.569 10.5535 144.204 10.3779C143.838 10.2024 143.394 10.1094 142.868 10.1094H133.909C133.738 10.1094 133.582 10.1352 133.438 10.192C133.294 10.2488 133.166 10.3263 133.061 10.4296C132.956 10.5329 132.873 10.6517 132.812 10.7859C132.751 10.9202 132.723 11.0648 132.723 11.2197V22.2455H135.084V18.2741H137.727L142.646 22.2455H146.297L141.367 18.2741C141.655 18.2741 141.966 18.2431 142.293 18.1812ZM135.078 16.0742V12.3094H142.868C142.918 12.3094 142.968 12.3145 143.03 12.3197C143.084 12.3249 143.14 12.3456 143.19 12.3765C143.24 12.4075 143.284 12.454 143.317 12.5212C143.35 12.5882 143.367 12.6812 143.367 12.8052V14.1943C143.367 14.4835 143.317 14.7366 143.222 14.9586C143.129 15.1806 142.99 15.3718 142.808 15.5319C142.63 15.692 142.42 15.816 142.17 15.9089C141.926 16.0018 141.655 16.0586 141.356 16.0844H135.078V16.0742Z" fill="#686B7F"/>
<path d="M159.87 12.3094V10.1094H149.236C149.065 10.1094 148.909 10.1352 148.766 10.192C148.622 10.2488 148.495 10.3263 148.389 10.4296C148.284 10.5329 148.201 10.6517 148.139 10.7859C148.079 10.9202 148.051 11.0648 148.051 11.2197V19.1571C148.051 19.7253 148.161 20.2056 148.384 20.598C148.605 20.9906 148.882 21.3107 149.209 21.5534C149.541 21.8013 149.896 21.9768 150.284 22.0802C150.672 22.1887 151.027 22.2403 151.353 22.2403H159.87V20.0404H151.369C151.053 20.0404 150.816 19.9628 150.655 19.8131C150.494 19.6633 150.411 19.4412 150.411 19.152V17.2826H159.797V15.0671H150.411V12.3094H159.87Z" fill="#686B7F"/>
<path d="M20.0155 33.7452C20.4191 33.7452 20.7464 34.0483 20.7464 34.4221C20.7464 34.796 20.4191 35.0992 20.0155 35.0992C19.6118 35.0992 19.2846 34.796 19.2846 34.4221C19.2846 34.0483 19.6118 33.7452 20.0155 33.7452ZM19.2215 1.40597C19.5786 1.43359 19.8672 1.68706 19.9154 2.01567L20.7847 7.93099C21.0768 9.88534 23.5936 10.7321 25.1472 9.40401L33.857 1.97972C34.0671 1.80063 34.3944 1.81304 34.5879 2.00744C34.7655 2.1858 34.7708 2.45886 34.6004 2.64304L27.0052 10.848C25.607 12.3558 26.6386 14.7103 28.7701 14.8784L35.4716 15.4834C35.8054 15.5135 36.0495 15.7883 36.017 16.0971C35.99 16.3518 35.7806 16.5575 35.5074 16.5975L28.4656 17.6272C26.4211 17.8882 25.4952 20.1556 26.825 21.6286L29.3006 24.3618C29.5 24.5821 29.4688 24.9102 29.2308 25.0947C29.0292 25.251 28.7373 25.2571 28.5282 25.1093L25.4765 22.9509C23.8297 21.791 21.4559 22.7768 21.2818 24.6964L20.6094 32.1826C20.5816 32.4918 20.2881 32.7217 19.954 32.696C19.6703 32.6742 19.4411 32.473 19.4026 32.212L18.3363 24.9806C18.0504 23.0263 15.5337 22.1795 13.9738 23.5076L4.70824 31.4088C4.51645 31.5724 4.21768 31.5611 4.04092 31.3836C3.87875 31.2208 3.87382 30.9715 4.02944 30.8033L12.1159 22.0636C13.5141 20.5558 12.4887 18.2013 10.3571 18.0332L3.65415 17.4281C3.3204 17.3979 3.07623 17.1231 3.10879 16.8143C3.13565 16.5596 3.34512 16.3539 3.61828 16.314L10.6554 15.2844C12.7 15.0234 13.6321 12.756 12.3023 11.2829L10.6171 9.4224C10.3698 9.14936 10.4085 8.74251 10.7036 8.51368C10.9538 8.31973 11.3158 8.31231 11.575 8.49579L13.6445 9.96071C15.2913 11.1206 17.6651 10.1347 17.8392 8.21522L18.3959 2.05207C18.431 1.6627 18.8007 1.37343 19.2215 1.40597ZM1.39494 16.1225C1.79859 16.1225 2.12582 16.4256 2.12582 16.7995C2.12582 17.1734 1.79859 17.4765 1.39494 17.4765C0.991288 17.4765 0.664062 17.1734 0.664062 16.7995C0.664062 16.4256 0.991288 16.1225 1.39494 16.1225ZM38.0513 15.4351C38.455 15.4351 38.7822 15.7382 38.7822 16.1121C38.7822 16.486 38.455 16.7891 38.0513 16.7891C37.6477 16.7891 37.3204 16.486 37.3204 16.1121C37.3204 15.7382 37.6477 15.4351 38.0513 15.4351ZM19.116 -0.750244C19.5196 -0.750244 19.8468 -0.447144 19.8468 -0.0732529C19.8468 0.300641 19.5196 0.603744 19.116 0.603744C18.7123 0.603744 18.385 0.300641 18.385 -0.0732529C18.385 -0.447144 18.7123 -0.750244 19.116 -0.750244Z" fill="#686B7F"/>
<path d="M19.5524 22.8505C23.3654 22.8505 26.4564 19.9874 26.4564 16.4556C26.4564 12.9237 23.3654 10.0605 19.5524 10.0605C15.7395 10.0605 12.6484 12.9237 12.6484 16.4556C12.6484 19.9874 15.7395 22.8505 19.5524 22.8505Z" fill="#686B7F"/>
</g>
<defs>
<clipPath id="clip0_1_24257">
<rect width="159" height="36" fill="white" transform="translate(0.949219)"/>
</clipPath>
</defs>
</svg>
