<svg width="66" height="66" viewBox="0 0 66 66" fill="none" xmlns="http://www.w3.org/2000/svg">
<circle cx="33.2891" cy="32.7476" r="32.15" fill="#130728" fill-opacity="0.31" stroke="url(#paint0_linear_1_23889)" stroke-width="0.7"/>
<path d="M31.2036 27.0825C29.7518 28.1854 28.3783 29.3881 27.0929 30.682C21.0355 36.7538 17.9685 43.5194 20.2389 45.7974C22.5094 48.0732 29.2612 44.9968 35.3165 38.9271C36.6074 37.6381 37.8073 36.2605 38.9075 34.8046" stroke="#25A9CF" stroke-width="2" stroke-linecap="round" stroke-linejoin="round"/>
<path d="M38.9093 34.8045C42.4811 39.5568 43.9359 44.0274 42.1723 45.7951C39.8997 48.0731 33.1501 44.9966 27.0926 38.927C21.0395 32.8531 17.9724 26.0897 20.2429 23.8117C22.0064 22.0461 26.4664 23.5042 31.2076 27.0824" stroke="#25A9CF" stroke-width="2" stroke-linecap="round" stroke-linejoin="round"/>
<path d="M30.1465 34.8053C30.1465 35.0884 30.2587 35.3599 30.4584 35.5601C30.6581 35.7603 30.929 35.8727 31.2114 35.8727C31.4939 35.8727 31.7647 35.7603 31.9645 35.5601C32.1642 35.3599 32.2764 35.0884 32.2764 34.8053C32.2764 34.5221 32.1642 34.2506 31.9645 34.0504C31.7647 33.8503 31.4939 33.7378 31.2114 33.7378C30.929 33.7378 30.6581 33.8503 30.4584 34.0504C30.2587 34.2506 30.1465 34.5221 30.1465 34.8053ZM35.4925 25.5098C34.8216 25.3923 34.8216 24.4295 35.4925 24.3142C36.6775 24.1076 37.7742 23.5519 38.6429 22.7181C39.5115 21.8842 40.1128 20.81 40.37 19.6323L40.4083 19.4465C40.5532 18.7847 41.4946 18.7804 41.6437 19.4401L41.6948 19.6558C41.9616 20.8283 42.5681 21.8956 43.4382 22.7236C44.3083 23.5517 45.403 24.1036 46.585 24.3099C47.2581 24.4273 47.2581 25.3966 46.585 25.5119C45.403 25.7183 44.3083 26.2701 43.4382 27.0982C42.5681 27.9262 41.9616 28.9936 41.6948 30.166L41.6437 30.3817C41.4946 31.0435 40.5532 31.0392 40.4083 30.3774L40.3657 30.1917C40.1085 29.014 39.5073 27.9397 38.6386 27.1059C37.7699 26.272 36.6732 25.7164 35.4883 25.5098H35.4925Z" stroke="#25A9CF" stroke-width="2" stroke-linecap="round" stroke-linejoin="round"/>
<defs>
<linearGradient id="paint0_linear_1_23889" x1="33.2891" y1="0.247559" x2="33.2891" y2="69.1286" gradientUnits="userSpaceOnUse">
<stop stop-color="#5F4B9E" stop-opacity="0.43"/>
<stop offset="0.804651" stop-color="white" stop-opacity="0"/>
</linearGradient>
</defs>
</svg>
