<svg width="66" height="66" viewBox="0 0 66 66" fill="none" xmlns="http://www.w3.org/2000/svg">
<circle cx="32.8984" cy="32.8486" r="32.15" fill="url(#paint0_radial_1_1391)" stroke="url(#paint1_linear_1_1391)" stroke-width="0.7"/>
<path d="M24.2119 44.7923C26.6872 46.7422 29.7477 47.8002 32.8986 47.7954C36.1772 47.7954 39.1944 46.6736 41.5853 44.7923M28.7621 20.2852C23.0132 22.0514 18.8345 27.4033 18.8345 33.7313C18.8345 35.3239 19.0992 36.8544 19.5873 38.2815M37.0351 20.2852C42.7841 22.0514 46.9628 27.4033 46.9628 33.7313C46.9628 35.3239 46.698 36.8544 46.2099 38.2815" stroke="#8B72D8" stroke-width="2"/>
<path d="M48.6172 42.0047C48.6172 43.1149 48.1804 44.1226 47.4689 44.8655C46.8045 45.5596 45.9191 46.0008 44.9649 46.1133C44.0106 46.2257 43.047 46.0025 42.2394 45.4819C41.4318 44.9612 40.8306 44.1757 40.5391 43.2601C40.2476 42.3445 40.2839 41.356 40.6419 40.4643C40.9998 39.5726 41.657 38.8333 42.5006 38.3734C43.3442 37.9134 44.3217 37.7615 45.2651 37.9437C46.2085 38.1259 47.0591 38.6309 47.6708 39.3719C48.2824 40.113 48.6171 41.0438 48.6172 42.0047ZM25.4527 42.0047C25.4527 43.1149 25.0159 44.1226 24.3044 44.8655C23.64 45.5596 22.7547 46.0008 21.8004 46.1133C20.8461 46.2257 19.8825 46.0025 19.0749 45.4819C18.2673 44.9612 17.6662 44.1757 17.3746 43.2601C17.0831 42.3445 17.1195 41.356 17.4774 40.4643C17.8353 39.5726 18.4925 38.8333 19.3361 38.3734C20.1798 37.9134 21.1572 37.7615 22.1006 37.9437C23.0441 38.1259 23.8946 38.6309 24.5063 39.3719C25.118 40.113 25.4526 41.0438 25.4527 42.0047ZM37.035 19.6675C37.035 20.7777 36.5981 21.7854 35.8867 22.5283C35.2222 23.2224 34.3369 23.6636 33.3826 23.7761C32.4284 23.8886 31.4647 23.6653 30.6571 23.1447C29.8495 22.6241 29.2484 21.8385 28.9569 20.923C28.6654 20.0074 28.7017 19.0189 29.0596 18.1272C29.4175 17.2354 30.0747 16.4962 30.9184 16.0362C31.762 15.5763 32.7394 15.4243 33.6829 15.6066C34.6263 15.7888 35.4769 16.2937 36.0885 17.0348C36.7002 17.7758 37.0348 18.7066 37.035 19.6675Z" stroke="#8B72D8" stroke-width="2" stroke-linecap="round" stroke-linejoin="round"/>
<defs>
<radialGradient id="paint0_radial_1_1391" cx="0" cy="0" r="1" gradientUnits="userSpaceOnUse" gradientTransform="translate(31.694 69.943) rotate(-90.2152) scale(93.2464 84.8004)">
<stop stop-color="#2C1459"/>
<stop offset="0.151546" stop-color="#1E0E3D"/>
<stop offset="0.448217" stop-color="#0C041B"/>
</radialGradient>
<linearGradient id="paint1_linear_1_1391" x1="32.8984" y1="0.348633" x2="32.8984" y2="69.2297" gradientUnits="userSpaceOnUse">
<stop offset="0.17413" stop-color="#2E1D63"/>
<stop offset="0.804651" stop-opacity="0"/>
</linearGradient>
</defs>
</svg>
