<svg width="52" height="52" viewBox="0 0 52 52" fill="none" xmlns="http://www.w3.org/2000/svg">
<rect width="52" height="52" rx="26" fill="#343A46"/>
<circle cx="26.001" cy="26" r="21.3018" fill="white"/>
<mask id="mask0_42_83" style="mask-type:luminance" maskUnits="userSpaceOnUse" x="13" y="13" width="26" height="26">
<path d="M38.8027 13.1973H13.1973V38.8027H38.8027V13.1973Z" fill="white"/>
</mask>
<g mask="url(#mask0_42_83)">
<path fill-rule="evenodd" clip-rule="evenodd" d="M21.493 28.4429C22.1822 28.4429 23.5532 28.4051 25.4482 27.6249C27.6564 26.7157 32.0498 25.0653 35.2192 23.37C37.4357 22.1843 38.4074 20.6161 38.4074 18.5043C38.4074 15.5733 36.0313 13.1973 33.1004 13.1973H20.8201C16.6101 13.1973 13.1973 16.6101 13.1973 20.8201C13.1973 25.0301 16.3927 28.4429 21.493 28.4429Z" fill="#39594D"/>
<path fill-rule="evenodd" clip-rule="evenodd" d="M23.5703 33.6921C23.5703 31.6284 24.8127 29.7678 26.7187 28.9768L30.586 27.3718C34.4978 25.7483 38.8034 28.623 38.8034 32.8584C38.8034 36.1397 36.1429 38.7995 32.8615 38.7986L28.6744 38.7975C25.8552 38.7968 23.5703 36.5113 23.5703 33.6921Z" fill="#D18EE2"/>
<path d="M17.5916 29.4478C15.1647 29.4478 13.1973 31.415 13.1973 33.842V34.4111C13.1973 36.8379 15.1646 38.8053 17.5915 38.8053C20.0184 38.8053 21.9859 36.8379 21.9859 34.4111V33.842C21.9859 31.415 20.0185 29.4478 17.5916 29.4478Z" fill="#FF7759"/>
</g>
</svg>
