<svg width="66" height="66" viewBox="0 0 66 66" fill="none" xmlns="http://www.w3.org/2000/svg">
<circle cx="32.8984" cy="32.9971" r="32.15" fill="url(#paint0_radial_102_230)" stroke="url(#paint1_linear_102_230)" stroke-width="0.7"/>
<path d="M32.8985 50.3295C32.6317 50.3295 32.3775 50.3031 32.1358 50.2502C31.8942 50.1974 31.6557 50.103 31.4203 49.9671L18.4242 42.761C17.9459 42.4879 17.5646 42.121 17.2801 41.6604C16.9944 41.1985 16.8516 40.6825 16.8516 40.1123V25.8853C16.8516 25.3139 16.9944 24.7979 17.2801 24.3372C17.5658 23.8766 17.9472 23.5091 18.4242 23.2347L31.4203 16.0287C31.6557 15.8953 31.8948 15.8009 32.1377 15.7455C32.3781 15.6914 32.6317 15.6643 32.8985 15.6643C33.1653 15.6643 33.4196 15.6914 33.6612 15.7455C33.9029 15.8009 34.1414 15.8953 34.3767 16.0287L47.3729 23.2347C47.8512 23.5078 48.2325 23.8747 48.5169 24.3353C48.8026 24.7972 48.9455 25.3133 48.9455 25.8834V40.1086C48.9455 40.68 48.8026 41.196 48.5169 41.6566C48.2312 42.1173 47.8499 42.4848 47.3729 42.7591L34.3767 49.9652C34.1414 50.0986 33.9023 50.193 33.6593 50.2483C33.419 50.3025 33.1653 50.3295 32.8985 50.3295ZM27.6049 28.9682C28.3223 28.0998 29.1385 27.4535 30.0535 27.0293C30.9697 26.6039 31.9181 26.3912 32.8985 26.3912C33.9029 26.3912 34.8569 26.6039 35.7606 27.0293C36.6655 27.4535 37.476 28.0998 38.1921 28.9682L45.9608 24.6449L33.48 17.6994C33.2862 17.6038 33.0924 17.556 32.8985 17.556C32.7047 17.556 32.5109 17.6044 32.3171 17.7013L19.8363 24.6449L27.6049 28.9682ZM31.9546 48.0943V39.5875C30.3184 39.293 28.9654 38.5378 27.8957 37.322C26.8259 36.105 26.291 34.6639 26.291 32.9988C26.291 32.5797 26.3249 32.1889 26.3929 31.8264C26.4609 31.4627 26.566 31.0788 26.7082 30.6748L18.7394 26.21V40.0746C18.7394 40.2923 18.7879 40.4861 18.8848 40.656C18.9817 40.8247 19.1265 40.9694 19.319 41.0903L31.9546 48.0943ZM32.8985 37.7185C34.2037 37.7185 35.3163 37.2579 36.2363 36.3366C37.1576 35.4165 37.6182 34.304 37.6182 32.9988C37.6182 31.6937 37.1576 30.5811 36.2363 29.661C35.3163 28.7398 34.2037 28.2791 32.8985 28.2791C31.5934 28.2791 30.4808 28.7398 29.5608 29.661C28.6395 30.5811 28.1788 31.6937 28.1788 32.9988C28.1788 34.304 28.6395 35.4165 29.5608 36.3366C30.4808 37.2579 31.5934 37.7185 32.8985 37.7185ZM33.8425 48.0943L46.4762 41.0903C46.67 40.9694 46.8153 40.8247 46.9123 40.656C47.0092 40.4861 47.0576 40.2923 47.0576 40.0746V26.21L39.0889 30.6748C39.2311 31.1103 39.3362 31.5017 39.4042 31.8491C39.4721 32.1965 39.5061 32.5797 39.5061 32.9988C39.5061 34.6639 38.9712 36.105 37.9014 37.322C36.8316 38.5378 35.4786 39.293 33.8425 39.5875V48.0943Z" fill="#8B72D8"/>
<defs>
<radialGradient id="paint0_radial_102_230" cx="0" cy="0" r="1" gradientUnits="userSpaceOnUse" gradientTransform="translate(31.694 70.0915) rotate(-90.2152) scale(93.2464 84.8004)">
<stop stop-color="#2C1459"/>
<stop offset="0.151546" stop-color="#1E0E3D"/>
<stop offset="0.448217" stop-color="#0C041B"/>
</radialGradient>
<linearGradient id="paint1_linear_102_230" x1="32.8984" y1="0.49707" x2="32.8984" y2="69.3781" gradientUnits="userSpaceOnUse">
<stop offset="0.17413" stop-color="#2E1D63"/>
<stop offset="0.804651" stop-opacity="0"/>
</linearGradient>
</defs>
</svg>
