<svg width="66" height="66" viewBox="0 0 66 66" fill="none" xmlns="http://www.w3.org/2000/svg">
<circle cx="32.5664" cy="33.1128" r="32.15" fill="#130728" fill-opacity="0.44" stroke="url(#paint0_linear_1_23900)" stroke-width="0.7"/>
<path d="M32.5658 50.2389L17.1523 41.6759V24.5498L32.5658 15.9868L47.9792 24.5498V41.6759L32.5658 50.2389ZM27.5992 28.4032C28.2557 27.7182 29.0121 27.1901 29.8684 26.819C30.7247 26.448 31.6239 26.2625 32.5658 26.2625C33.5077 26.2625 34.4068 26.448 35.2631 26.819C36.1195 27.1901 36.8759 27.7182 37.5324 28.4032L42.6702 25.5346L32.5658 19.9258L22.4614 25.5346L27.5992 28.4032ZM30.8532 45.358V39.7492C29.3118 39.3496 28.0702 38.5361 27.1283 37.3088C26.1863 36.0814 25.7154 34.6828 25.7154 33.1129C25.7154 32.7989 25.7296 32.506 25.7582 32.2343C25.7867 31.9626 25.8438 31.6846 25.9294 31.4003L20.5776 28.4032V39.6636L30.8532 45.358ZM32.5658 36.5381C33.5077 36.5381 34.3144 36.2024 34.9857 35.5311C35.657 34.8597 35.9921 34.0537 35.991 33.1129C35.991 32.1709 35.6559 31.3649 34.9857 30.6947C34.3155 30.0245 33.5089 29.6888 32.5658 29.6877C31.6239 29.6877 30.8178 30.0233 30.1476 30.6947C29.4774 31.366 29.1417 32.1721 29.1406 33.1129C29.1406 34.0548 29.4763 34.8614 30.1476 35.5328C30.8189 36.2041 31.625 36.5392 32.5658 36.5381ZM34.2784 45.358L44.554 39.6636V28.4032L39.2021 31.4003C39.2878 31.6857 39.3449 31.9643 39.3734 32.236C39.4019 32.5078 39.4162 32.8 39.4162 33.1129C39.4162 34.6828 38.9453 36.0814 38.0033 37.3088C37.0614 38.5361 35.8197 39.3496 34.2784 39.7492V45.358Z" fill="#8B72D8"/>
<defs>
<linearGradient id="paint0_linear_1_23900" x1="32.5664" y1="0.612793" x2="32.5664" y2="69.4938" gradientUnits="userSpaceOnUse">
<stop stop-color="#5F4B9E" stop-opacity="0.43"/>
<stop offset="0.804651" stop-color="white" stop-opacity="0"/>
</linearGradient>
</defs>
</svg>
