<svg width="52" height="52" viewBox="0 0 52 52" fill="none" xmlns="http://www.w3.org/2000/svg">
<rect width="52" height="52" rx="26" fill="#343A46"/>
<circle cx="26.001" cy="26" r="21.3018" fill="white"/>
<g clip-path="url(#clip0_42_101)">
<path d="M23.2615 27.4526H18.6141L18.5517 22.9031H23.1992L23.2615 27.4526Z" fill="black"/>
<path d="M27.9509 32.0019H23.3036L23.2411 27.4524H27.8886L27.9509 32.0019Z" fill="black"/>
<path d="M27.9509 27.4526H23.3036L23.2411 22.9031H27.8886L27.9509 27.4526Z" fill="black"/>
<path d="M32.6423 27.4526H27.995L27.9325 22.9031H32.58L32.6423 27.4526Z" fill="black"/>
<path d="M23.2654 22.9028H18.618L18.5556 18.3533H23.2031L23.2654 22.9028Z" fill="black"/>
<path d="M32.6443 22.9028H27.9969L27.9345 18.3533H32.582L32.6443 22.9028Z" fill="black"/>
<path d="M18.572 27.4526H13.9246L13.8622 22.9031H18.5097L18.572 27.4526Z" fill="black"/>
<path d="M18.574 22.9028H13.9266L13.8642 18.3533H18.5117L18.574 22.9028Z" fill="black"/>
<path d="M18.5779 18.3532H13.9305L13.8681 13.8037H18.5156L18.5779 18.3532Z" fill="black"/>
<path d="M37.3376 18.3532H32.6903L32.6279 13.8037H37.2753L37.3376 18.3532Z" fill="black"/>
<path d="M18.572 32.0019H13.9246L13.8622 27.4524H18.5097L18.572 32.0019Z" fill="black"/>
<path d="M18.5681 36.5517H13.9207L13.8583 32.0022H18.5058L18.5681 36.5517Z" fill="black"/>
<path d="M37.3318 27.4526H32.6844L32.622 22.9031H37.2695L37.3318 27.4526Z" fill="black"/>
<path d="M37.3357 22.9028H32.6883L32.6259 18.3533H37.2734L37.3357 22.9028Z" fill="black"/>
<path d="M37.3318 32.0019H32.6844L32.622 27.4524H37.2695L37.3318 32.0019Z" fill="black"/>
<path d="M37.3298 36.5515H32.6825L32.62 32.002H37.2675L37.3298 36.5515Z" fill="black"/>
<path d="M25.2075 27.4524H20.5405L20.5079 22.9028H25.1751L25.2075 27.4524Z" fill="#FF7000"/>
<path d="M29.8951 32.0017H25.228L25.1954 27.4521H29.8626L29.8951 32.0017Z" fill="#FF4900"/>
<path d="M29.9025 27.4524H25.2569L25.1919 22.9028H29.8377L29.9025 27.4524Z" fill="#FF7000"/>
<path d="M34.592 27.4524H29.9463L29.8813 22.9028H34.5271L34.592 27.4524Z" fill="#FF7000"/>
<path d="M25.217 22.9026H20.5722L20.5061 18.353H25.1512L25.217 22.9026Z" fill="#FFA300"/>
<path d="M34.598 22.9026H29.9531L29.887 18.353H34.5321L34.598 22.9026Z" fill="#FFA300"/>
<path d="M20.518 27.4524H15.851L15.8184 22.9028H20.4857L20.518 27.4524Z" fill="#FF7000"/>
<path d="M20.52 22.9026H15.853L15.8204 18.353H20.4876L20.52 22.9026Z" fill="#FFA300"/>
<path d="M20.5297 18.353H15.8855L15.8185 13.8035H20.4629L20.5297 18.353Z" fill="#FFCE00"/>
<path d="M39.2915 18.353H34.6473L34.5802 13.8035H39.2246L39.2915 18.353Z" fill="#FFCE00"/>
<path d="M20.518 32.0017H15.851L15.8184 27.4521H20.4857L20.518 32.0017Z" fill="#FF4900"/>
<path d="M20.5141 36.5512H15.8471L15.8145 32.0017H20.4817L20.5141 36.5512Z" fill="#FF0107"/>
<path d="M39.2779 27.4524H34.6108L34.5782 22.9028H39.2454L39.2779 27.4524Z" fill="#FF7000"/>
<path d="M39.2818 22.9026H34.6147L34.5821 18.353H39.2493L39.2818 22.9026Z" fill="#FFA300"/>
<path d="M39.276 32.0017H34.6089L34.5762 27.4521H39.2435L39.276 32.0017Z" fill="#FF4900"/>
<path d="M39.276 36.5512H34.6089L34.5762 32.0017H39.2435L39.276 36.5512Z" fill="#FF0107"/>
</g>
<defs>
<clipPath id="clip0_42_101">
<rect width="27" height="26" fill="white" transform="translate(13 13)"/>
</clipPath>
</defs>
</svg>
