<svg width="750" height="4439" viewBox="0 0 820 4439" fill="none" xmlns="http://www.w3.org/2000/svg">
<path d="M630.672 316.667H629.672V316.403L629.802 316.173L630.672 316.667ZM630.672 691.941H631.672V692.378L631.351 692.675L630.672 691.941ZM90.9635 1191.79L89.9693 1191.9L89.915 1191.4L90.284 1191.06L90.9635 1191.79ZM125.357 1508.41L126.351 1508.3L126.368 1508.46L126.335 1508.62L125.357 1508.41ZM61.1201 1815.46L60.6082 1816.32L59.9951 1815.95L60.1412 1815.26L61.1201 1815.46ZM695.861 2193.68L696.373 2192.82L696.927 2193.15L696.855 2193.79L695.861 2193.68ZM627.289 2802.59L628.283 2802.7L628.244 2803.05L627.996 2803.3L627.289 2802.59ZM17.6474 3411.98L16.6779 3412.22L16.5387 3411.67L16.9404 3411.27L17.6474 3411.98ZM102.672 3748.46L102.287 3749.38L101.825 3749.19L101.702 3748.7L102.672 3748.46ZM570.726 3943.41L571.111 3942.49L571.544 3942.67L571.682 3943.11L570.726 3943.41ZM703.515 4370.68L703.81 4371.64L701.899 4372.23L701.604 4371.27L703.515 4370.68ZM796.096 27.7879L795.602 28.6572L793.863 27.6686L794.357 26.7993L796.096 27.7879ZM789.445 35.4373L789.94 34.568L791.678 35.5567L791.184 36.426L789.445 35.4373ZM786.272 45.064L785.777 45.9333L784.039 44.9446L784.533 44.0753L786.272 45.064ZM779.621 52.7134L780.115 51.8441L781.854 52.8327L781.36 53.702L779.621 52.7134ZM776.448 62.34L775.953 63.2093L774.215 62.2207L774.709 61.3514L776.448 62.34ZM769.797 69.9894L770.291 69.1201L772.03 70.1088L771.535 70.9781L769.797 69.9894ZM766.623 79.6161L766.129 80.4854L764.39 79.4967L764.885 78.6274L766.623 79.6161ZM759.973 87.2655L760.467 86.3962L762.206 87.3848L761.711 88.2541L759.973 87.2655ZM756.799 96.8921L756.305 97.7614L754.566 96.7728L755.061 95.9035L756.799 96.8921ZM750.149 104.542L750.643 103.672L752.381 104.661L751.887 105.53L750.149 104.542ZM746.975 114.168L746.481 115.037L744.742 114.049L745.236 113.18L746.975 114.168ZM740.324 121.818L740.819 120.948L742.557 121.937L742.063 122.806L740.324 121.818ZM737.151 131.444L736.656 132.314L734.918 131.325L735.412 130.456L737.151 131.444ZM730.5 139.094L730.994 138.224L732.733 139.213L732.239 140.082L730.5 139.094ZM727.327 148.72L726.832 149.59L725.094 148.601L725.588 147.732L727.327 148.72ZM720.676 156.37L721.17 155.5L722.909 156.489L722.415 157.358L720.676 156.37ZM717.502 165.996L717.008 166.866L715.27 165.877L715.764 165.008L717.502 165.996ZM710.852 173.646L711.346 172.776L713.085 173.765L712.59 174.634L710.852 173.646ZM707.678 183.272L707.184 184.142L705.445 183.153L705.94 182.284L707.678 183.272ZM701.028 190.922L701.522 190.053L703.261 191.041L702.766 191.91L701.028 190.922ZM697.854 200.548L697.36 201.418L695.621 200.429L696.116 199.56L697.854 200.548ZM691.203 208.198L691.698 207.329L693.436 208.317L692.942 209.187L691.203 208.198ZM688.03 217.825L687.536 218.694L685.797 217.705L686.291 216.836L688.03 217.825ZM681.379 225.474L681.874 224.605L683.612 225.593L683.118 226.463L681.379 225.474ZM678.206 235.101L677.711 235.97L675.973 234.981L676.467 234.112L678.206 235.101ZM671.555 242.75L672.049 241.881L673.788 242.869L673.294 243.739L671.555 242.75ZM668.382 252.377L667.887 253.246L666.149 252.257L666.643 251.388L668.382 252.377ZM661.731 260.026L662.225 259.157L663.964 260.145L663.469 261.015L661.731 260.026ZM658.557 269.653L658.063 270.522L656.324 269.533L656.819 268.664L658.557 269.653ZM651.907 277.302L652.401 276.433L654.14 277.421L653.645 278.291L651.907 277.302ZM648.733 286.929L648.239 287.798L646.5 286.809L646.995 285.94L648.733 286.929ZM642.083 294.578L642.577 293.709L644.315 294.698L643.821 295.567L642.083 294.578ZM638.909 304.205L638.415 305.074L636.676 304.085L637.17 303.216L638.909 304.205ZM632.258 311.854L632.753 310.985L634.491 311.974L633.997 312.843L632.258 311.854ZM631.672 321.605V322.605H629.672V321.605H631.672ZM629.672 331.481V330.481H631.672V331.481H629.672ZM631.672 341.357V342.357H629.672V341.357H631.672ZM629.672 351.232V350.232H631.672V351.232H629.672ZM631.672 361.108V362.108H629.672V361.108H631.672ZM629.672 370.983V369.983H631.672V370.983H629.672ZM631.672 380.859V381.859H629.672V380.859H631.672ZM629.672 390.735V389.735H631.672V390.735H629.672ZM631.672 400.61V401.61H629.672V400.61H631.672ZM629.672 410.486V409.486H631.672V410.486H629.672ZM631.672 420.362V421.362H629.672V420.362H631.672ZM629.672 430.237V429.237H631.672V430.237H629.672ZM631.672 440.113V441.113H629.672V440.113H631.672ZM629.672 449.988V448.988H631.672V449.988H629.672ZM631.672 459.864V460.864H629.672V459.864H631.672ZM629.672 469.74V468.74H631.672V469.74H629.672ZM631.672 479.615V480.615H629.672V479.615H631.672ZM629.672 489.491V488.491H631.672V489.491H629.672ZM631.672 499.367V500.367H629.672V499.367H631.672ZM629.672 509.242V508.242H631.672V509.242H629.672ZM631.672 519.118V520.118H629.672V519.118H631.672ZM629.672 528.993V527.993H631.672V528.993H629.672ZM631.672 538.869V539.869H629.672V538.869H631.672ZM629.672 548.745V547.745H631.672V548.745H629.672ZM631.672 558.62V559.62H629.672V558.62H631.672ZM629.672 568.496V567.496H631.672V568.496H629.672ZM631.672 578.372V579.372H629.672V578.372H631.672ZM629.672 588.247V587.247H631.672V588.247H629.672ZM631.672 598.123V599.123H629.672V598.123H631.672ZM629.672 607.998V606.998H631.672V607.998H629.672ZM631.672 617.874V618.874H629.672V617.874H631.672ZM629.672 627.75V626.75H631.672V627.75H629.672ZM631.672 637.625V638.625H629.672V637.625H631.672ZM629.672 647.501V646.501H631.672V647.501H629.672ZM631.672 657.376V658.376H629.672V657.376H631.672ZM629.672 667.252V666.252H631.672V667.252H629.672ZM631.672 677.128V678.128H629.672V677.128H631.672ZM629.672 687.003V686.003H631.672V687.003H629.672ZM627.704 696.052L626.971 696.732L625.612 695.264L626.345 694.585L627.704 696.052ZM619.052 701.34L619.786 700.66L621.145 702.128L620.411 702.807L619.052 701.34ZM613.118 709.562L612.384 710.241L611.025 708.774L611.759 708.094L613.118 709.562ZM604.465 714.849L605.199 714.17L606.558 715.637L605.824 716.317L604.465 714.849ZM598.531 723.071L597.797 723.751L596.438 722.283L597.172 721.604L598.531 723.071ZM589.879 728.359L590.612 727.679L591.971 729.147L591.238 729.826L589.879 728.359ZM583.944 736.581L583.211 737.26L581.852 735.793L582.585 735.113L583.944 736.581ZM575.292 741.868L576.026 741.189L577.385 742.656L576.651 743.335L575.292 741.868ZM569.358 750.09L568.624 750.77L567.265 749.302L567.999 748.623L569.358 750.09ZM560.705 755.378L561.439 754.698L562.798 756.165L562.064 756.845L560.705 755.378ZM554.771 763.6L554.037 764.279L552.678 762.812L553.412 762.132L554.771 763.6ZM546.119 768.887L546.852 768.208L548.211 769.675L547.478 770.354L546.119 768.887ZM540.184 777.109L539.451 777.789L538.092 776.321L538.825 775.642L540.184 777.109ZM531.532 782.397L532.266 781.717L533.625 783.184L532.891 783.864L531.532 782.397ZM525.598 790.619L524.864 791.298L523.505 789.831L524.239 789.151L525.598 790.619ZM516.945 795.906L517.679 795.227L519.038 796.694L518.304 797.373L516.945 795.906ZM511.011 804.128L510.277 804.808L508.918 803.34L509.652 802.661L511.011 804.128ZM502.358 809.416L503.092 808.736L504.451 810.203L503.717 810.883L502.358 809.416ZM496.424 817.638L495.69 818.317L494.331 816.85L495.065 816.17L496.424 817.638ZM487.772 822.925L488.505 822.246L489.864 823.713L489.131 824.392L487.772 822.925ZM481.837 831.147L481.104 831.827L479.745 830.359L480.478 829.68L481.837 831.147ZM473.185 836.435L473.919 835.755L475.278 837.222L474.544 837.902L473.185 836.435ZM467.251 844.657L466.517 845.336L465.158 843.869L465.892 843.189L467.251 844.657ZM458.598 849.944L459.332 849.265L460.691 850.732L459.957 851.411L458.598 849.944ZM452.664 858.166L451.93 858.846L450.571 857.378L451.305 856.699L452.664 858.166ZM444.012 863.454L444.745 862.774L446.104 864.241L445.371 864.921L444.012 863.454ZM438.077 871.676L437.344 872.355L435.985 870.888L436.718 870.208L438.077 871.676ZM429.425 876.963L430.159 876.284L431.518 877.751L430.784 878.43L429.425 876.963ZM423.491 885.185L422.757 885.865L421.398 884.397L422.132 883.718L423.491 885.185ZM414.838 890.473L415.572 889.793L416.931 891.26L416.197 891.94L414.838 890.473ZM408.904 898.695L408.17 899.374L406.811 897.907L407.545 897.227L408.904 898.695ZM400.252 903.982L400.985 903.303L402.344 904.77L401.61 905.449L400.252 903.982ZM394.317 912.204L393.583 912.884L392.224 911.416L392.958 910.737L394.317 912.204ZM385.665 917.492L386.398 916.812L387.757 918.279L387.024 918.959L385.665 917.492ZM379.73 925.714L378.997 926.393L377.638 924.926L378.371 924.246L379.73 925.714ZM371.078 931.001L371.812 930.322L373.171 931.789L372.437 932.468L371.078 931.001ZM365.144 939.223L364.41 939.903L363.051 938.435L363.785 937.756L365.144 939.223ZM356.491 944.511L357.225 943.831L358.584 945.298L357.85 945.978L356.491 944.511ZM350.557 952.733L349.823 953.412L348.464 951.945L349.198 951.265L350.557 952.733ZM341.905 958.02L342.638 957.341L343.997 958.808L343.264 959.487L341.905 958.02ZM335.97 966.242L335.237 966.922L333.878 965.454L334.611 964.775L335.97 966.242ZM327.318 971.529L328.052 970.85L329.411 972.317L328.677 972.997L327.318 971.529ZM321.384 979.752L320.65 980.431L319.291 978.964L320.025 978.284L321.384 979.752ZM312.731 985.039L313.465 984.359L314.824 985.827L314.09 986.506L312.731 985.039ZM306.797 993.261L306.063 993.941L304.704 992.473L305.438 991.794L306.797 993.261ZM298.145 998.548L298.878 997.869L300.237 999.336L299.504 1000.02L298.145 998.548ZM292.21 1006.77L291.477 1007.45L290.118 1005.98L290.851 1005.3L292.21 1006.77ZM283.558 1012.06L284.292 1011.38L285.651 1012.85L284.917 1013.53L283.558 1012.06ZM277.624 1020.28L276.89 1020.96L275.531 1019.49L276.265 1018.81L277.624 1020.28ZM268.971 1025.57L269.705 1024.89L271.064 1026.36L270.33 1027.03L268.971 1025.57ZM263.037 1033.79L262.303 1034.47L260.944 1033L261.678 1032.32L263.037 1033.79ZM254.385 1039.08L255.118 1038.4L256.477 1039.86L255.744 1040.54L254.385 1039.08ZM248.45 1047.3L247.717 1047.98L246.358 1046.51L247.091 1045.83L248.45 1047.3ZM239.798 1052.59L240.532 1051.91L241.891 1053.37L241.157 1054.05L239.798 1052.59ZM233.864 1060.81L233.13 1061.49L231.771 1060.02L232.505 1059.34L233.864 1060.81ZM225.211 1066.1L225.945 1065.42L227.304 1066.88L226.57 1067.56L225.211 1066.1ZM219.277 1074.32L218.543 1075L217.184 1073.53L217.918 1072.85L219.277 1074.32ZM210.624 1079.61L211.358 1078.93L212.717 1080.39L211.983 1081.07L210.624 1079.61ZM204.69 1087.83L203.956 1088.51L202.597 1087.04L203.331 1086.36L204.69 1087.83ZM196.038 1093.11L196.771 1092.44L198.13 1093.9L197.397 1094.58L196.038 1093.11ZM190.103 1101.34L189.37 1102.02L188.011 1100.55L188.744 1099.87L190.103 1101.34ZM181.451 1106.62L182.185 1105.94L183.544 1107.41L182.81 1108.09L181.451 1106.62ZM175.517 1114.85L174.783 1115.53L173.424 1114.06L174.158 1113.38L175.517 1114.85ZM166.864 1120.13L167.598 1119.45L168.957 1120.92L168.223 1121.6L166.864 1120.13ZM160.93 1128.36L160.196 1129.04L158.837 1127.57L159.571 1126.89L160.93 1128.36ZM152.278 1133.64L153.011 1132.96L154.37 1134.43L153.637 1135.11L152.278 1133.64ZM146.343 1141.87L145.61 1142.54L144.251 1141.08L144.984 1140.4L146.343 1141.87ZM137.691 1147.15L138.425 1146.47L139.784 1147.94L139.05 1148.62L137.691 1147.15ZM131.757 1155.37L131.023 1156.05L129.664 1154.59L130.398 1153.91L131.757 1155.37ZM123.104 1160.66L123.838 1159.98L125.197 1161.45L124.463 1162.13L123.104 1160.66ZM117.17 1168.88L116.436 1169.56L115.077 1168.1L115.811 1167.42L117.17 1168.88ZM108.518 1174.17L109.251 1173.49L110.61 1174.96L109.877 1175.64L108.518 1174.17ZM102.583 1182.39L101.85 1183.07L100.491 1181.61L101.224 1180.93L102.583 1182.39ZM93.931 1187.68L94.6646 1187L96.0236 1188.47L95.2899 1189.15L93.931 1187.68ZM92.495 1196.63L92.603 1197.63L90.6147 1197.84L90.5067 1196.85L92.495 1196.63ZM91.5815 1206.74L91.4735 1205.75L93.4618 1205.53L93.5698 1206.53L91.5815 1206.74ZM94.6446 1216.42L94.7526 1217.41L92.7643 1217.63L92.6563 1216.64L94.6446 1216.42ZM93.7311 1226.53L93.6231 1225.54L95.6114 1225.32L95.7194 1226.31L93.7311 1226.53ZM96.7942 1236.21L96.9022 1237.2L94.9139 1237.42L94.8059 1236.43L96.7942 1236.21ZM95.8807 1246.32L95.7727 1245.33L97.761 1245.11L97.869 1246.1L95.8807 1246.32ZM98.9438 1256L99.0517 1256.99L97.0634 1257.21L96.9555 1256.21L98.9438 1256ZM98.0302 1266.11L97.9222 1265.11L99.9106 1264.9L100.019 1265.89L98.0302 1266.11ZM101.093 1275.79L101.201 1276.78L99.213 1277L99.105 1276L101.093 1275.79ZM100.18 1285.9L100.072 1284.9L102.06 1284.69L102.168 1285.68L100.18 1285.9ZM103.243 1295.58L103.351 1296.57L101.363 1296.79L101.255 1295.79L103.243 1295.58ZM102.329 1305.69L102.221 1304.69L104.21 1304.48L104.318 1305.47L102.329 1305.69ZM105.392 1315.36L105.5 1316.36L103.512 1316.57L103.404 1315.58L105.392 1315.36ZM104.479 1325.47L104.371 1324.48L106.359 1324.26L106.467 1325.26L104.479 1325.47ZM107.542 1335.15L107.65 1336.15L105.662 1336.36L105.554 1335.37L107.542 1335.15ZM106.629 1345.26L106.521 1344.27L108.509 1344.05L108.617 1345.05L106.629 1345.26ZM109.692 1354.94L109.8 1355.94L107.811 1356.15L107.703 1355.16L109.692 1354.94ZM108.778 1365.05L108.67 1364.06L110.658 1363.84L110.766 1364.84L108.778 1365.05ZM111.841 1374.73L111.949 1375.72L109.961 1375.94L109.853 1374.95L111.841 1374.73ZM110.928 1384.84L110.82 1383.85L112.808 1383.63L112.916 1384.62L110.928 1384.84ZM113.991 1394.52L114.099 1395.51L112.11 1395.73L112.002 1394.74L113.991 1394.52ZM113.077 1404.63L112.969 1403.64L114.958 1403.42L115.066 1404.41L113.077 1404.63ZM116.14 1414.31L116.248 1415.3L114.26 1415.52L114.152 1414.52L116.14 1414.31ZM115.227 1424.42L115.119 1423.42L117.107 1423.21L117.215 1424.2L115.227 1424.42ZM118.29 1434.1L118.398 1435.09L116.41 1435.31L116.302 1434.31L118.29 1434.1ZM117.376 1444.21L117.268 1443.21L119.257 1443L119.365 1443.99L117.376 1444.21ZM120.439 1453.89L120.547 1454.88L118.559 1455.1L118.451 1454.1L120.439 1453.89ZM119.526 1464L119.418 1463L121.406 1462.79L121.514 1463.78L119.526 1464ZM122.589 1473.67L122.697 1474.67L120.709 1474.88L120.601 1473.89L122.589 1473.67ZM121.676 1483.78L121.568 1482.79L123.556 1482.57L123.664 1483.57L121.676 1483.78ZM124.739 1493.46L124.847 1494.46L122.858 1494.67L122.75 1493.68L124.739 1493.46ZM123.825 1503.57L123.717 1502.58L125.705 1502.36L125.813 1503.36L123.825 1503.57ZM125.332 1513.41L125.127 1514.39L123.169 1513.98L123.374 1513.01L125.332 1513.41ZM121.367 1522.6L121.572 1521.62L123.529 1522.03L123.324 1523.01L121.367 1522.6ZM121.317 1532.61L121.112 1533.58L119.155 1533.17L119.359 1532.2L121.317 1532.61ZM117.352 1541.79L117.557 1540.81L119.514 1541.22L119.31 1542.2L117.352 1541.79ZM117.302 1551.8L117.097 1552.77L115.14 1552.37L115.345 1551.39L117.302 1551.8ZM113.337 1560.98L113.542 1560L115.5 1560.41L115.295 1561.39L113.337 1560.98ZM113.287 1570.99L113.083 1571.97L111.125 1571.56L111.33 1570.58L113.287 1570.99ZM109.322 1580.17L109.527 1579.19L111.485 1579.6L111.28 1580.58L109.322 1580.17ZM109.273 1590.18L109.068 1591.16L107.11 1590.75L107.315 1589.77L109.273 1590.18ZM105.308 1599.36L105.512 1598.38L107.47 1598.79L107.265 1599.77L105.308 1599.36ZM105.258 1609.37L105.053 1610.35L103.095 1609.94L103.3 1608.96L105.258 1609.37ZM101.293 1618.55L101.498 1617.57L103.455 1617.98L103.25 1618.96L101.293 1618.55ZM101.243 1628.56L101.038 1629.54L99.0806 1629.13L99.2854 1628.15L101.243 1628.56ZM97.278 1637.74L97.4828 1636.76L99.4404 1637.17L99.2356 1638.15L97.278 1637.74ZM97.2282 1647.75L97.0235 1648.73L95.0659 1648.32L95.2706 1647.34L97.2282 1647.75ZM93.2632 1656.93L93.468 1655.96L95.4256 1656.37L95.2208 1657.34L93.2632 1656.93ZM93.2135 1666.94L93.0087 1667.92L91.0511 1667.51L91.2558 1666.53L93.2135 1666.94ZM89.2484 1676.12L89.4532 1675.15L91.4108 1675.56L91.2061 1676.53L89.2484 1676.12ZM89.1987 1686.13L88.9939 1687.11L87.0363 1686.7L87.241 1685.72L89.1987 1686.13ZM85.2337 1695.32L85.4384 1694.34L87.396 1694.75L87.1913 1695.72L85.2337 1695.32ZM85.1839 1705.32L84.9791 1706.3L83.0215 1705.89L83.2263 1704.91L85.1839 1705.32ZM81.2189 1714.51L81.4236 1713.53L83.3813 1713.94L83.1765 1714.92L81.2189 1714.51ZM81.1691 1724.51L80.9643 1725.49L79.0067 1725.08L79.2115 1724.1L81.1691 1724.51ZM77.2041 1733.7L77.4089 1732.72L79.3665 1733.13L79.1617 1734.11L77.2041 1733.7ZM77.1543 1743.7L76.9495 1744.68L74.9919 1744.27L75.1967 1743.29L77.1543 1743.7ZM73.1893 1752.89L73.3941 1751.91L75.3517 1752.32L75.1469 1753.3L73.1893 1752.89ZM73.1395 1762.89L72.9347 1763.87L70.9771 1763.46L71.1819 1762.48L73.1395 1762.89ZM69.1745 1772.08L69.3793 1771.1L71.3369 1771.51L71.1321 1772.49L69.1745 1772.08ZM69.1247 1782.08L68.92 1783.06L66.9623 1782.65L67.1671 1781.67L69.1247 1782.08ZM65.1597 1791.27L65.3645 1790.29L67.3221 1790.7L67.1173 1791.68L65.1597 1791.27ZM65.1099 1801.27L64.9052 1802.25L62.9475 1801.84L63.1523 1800.86L65.1099 1801.27ZM61.1449 1810.46L61.3497 1809.48L63.3073 1809.89L63.1025 1810.87L61.1449 1810.46ZM65.9207 1817.16L66.7798 1817.67L65.756 1819.39L64.897 1818.88L65.9207 1817.16ZM73.4745 1823.99L72.6155 1823.47L73.6392 1821.76L74.4983 1822.27L73.4745 1823.99ZM83.0759 1827.38L83.9349 1827.89L82.9112 1829.61L82.0521 1829.1L83.0759 1827.38ZM90.6297 1834.21L89.7706 1833.7L90.7944 1831.98L91.6535 1832.49L90.6297 1834.21ZM100.231 1837.6L101.09 1838.11L100.066 1839.83L99.2073 1839.32L100.231 1837.6ZM107.785 1844.43L106.926 1843.92L107.95 1842.2L108.809 1842.71L107.785 1844.43ZM117.386 1847.82L118.245 1848.34L117.221 1850.05L116.362 1849.54L117.386 1847.82ZM124.94 1854.65L124.081 1854.14L125.105 1852.42L125.964 1852.93L124.94 1854.65ZM134.541 1858.05L135.4 1858.56L134.377 1860.28L133.518 1859.76L134.541 1858.05ZM142.095 1864.87L141.236 1864.36L142.26 1862.64L143.119 1863.16L142.095 1864.87ZM151.697 1868.27L152.556 1868.78L151.532 1870.5L150.673 1869.99L151.697 1868.27ZM159.25 1875.1L158.391 1874.59L159.415 1872.87L160.274 1873.38L159.25 1875.1ZM168.852 1878.49L169.711 1879L168.687 1880.72L167.828 1880.21L168.852 1878.49ZM176.405 1885.32L175.546 1884.81L176.57 1883.09L177.429 1883.6L176.405 1885.32ZM186.007 1888.71L186.866 1889.22L185.842 1890.94L184.983 1890.43L186.007 1888.71ZM193.561 1895.54L192.702 1895.03L193.725 1893.31L194.584 1893.82L193.561 1895.54ZM203.162 1898.93L204.021 1899.45L202.997 1901.16L202.138 1900.65L203.162 1898.93ZM210.716 1905.76L209.857 1905.25L210.881 1903.53L211.74 1904.05L210.716 1905.76ZM220.317 1909.16L221.176 1909.67L220.152 1911.39L219.293 1910.87L220.317 1909.16ZM227.871 1915.99L227.012 1915.47L228.036 1913.76L228.895 1914.27L227.871 1915.99ZM237.472 1919.38L238.331 1919.89L237.308 1921.61L236.449 1921.1L237.472 1919.38ZM245.026 1926.21L244.167 1925.7L245.191 1923.98L246.05 1924.49L245.026 1926.21ZM254.627 1929.6L255.487 1930.11L254.463 1931.83L253.604 1931.32L254.627 1929.6ZM262.181 1936.43L261.322 1935.92L262.346 1934.2L263.205 1934.71L262.181 1936.43ZM271.783 1939.82L272.642 1940.33L271.618 1942.05L270.759 1941.54L271.783 1939.82ZM279.336 1946.65L278.477 1946.14L279.501 1944.42L280.36 1944.93L279.336 1946.65ZM288.938 1950.04L289.797 1950.56L288.773 1952.27L287.914 1951.76L288.938 1950.04ZM296.492 1956.87L295.633 1956.36L296.656 1954.64L297.515 1955.16L296.492 1956.87ZM306.093 1960.27L306.952 1960.78L305.928 1962.5L305.069 1961.98L306.093 1960.27ZM313.647 1967.1L312.788 1966.58L313.811 1964.87L314.671 1965.38L313.647 1967.1ZM323.248 1970.49L324.107 1971L323.083 1972.72L322.224 1972.21L323.248 1970.49ZM330.802 1977.32L329.943 1976.81L330.967 1975.09L331.826 1975.6L330.802 1977.32ZM340.403 1980.71L341.262 1981.22L340.239 1982.94L339.379 1982.43L340.403 1980.71ZM347.957 1987.54L347.098 1987.03L348.122 1985.31L348.981 1985.82L347.957 1987.54ZM357.558 1990.93L358.417 1991.44L357.394 1993.16L356.535 1992.65L357.558 1990.93ZM365.112 1997.76L364.253 1997.25L365.277 1995.53L366.136 1996.04L365.112 1997.76ZM374.714 2001.15L375.573 2001.67L374.549 2003.38L373.69 2002.87L374.714 2001.15ZM382.267 2007.98L381.408 2007.47L382.432 2005.75L383.291 2006.27L382.267 2007.98ZM391.869 2011.38L392.728 2011.89L391.704 2013.61L390.845 2013.09L391.869 2011.38ZM399.423 2018.21L398.563 2017.69L399.587 2015.98L400.446 2016.49L399.423 2018.21ZM409.024 2021.6L409.883 2022.11L408.859 2023.83L408 2023.32L409.024 2021.6ZM416.578 2028.43L415.719 2027.92L416.742 2026.2L417.601 2026.71L416.578 2028.43ZM426.179 2031.82L427.038 2032.33L426.014 2034.05L425.155 2033.54L426.179 2031.82ZM433.733 2038.65L432.874 2038.14L433.898 2036.42L434.757 2036.93L433.733 2038.65ZM443.334 2042.04L444.193 2042.55L443.169 2044.27L442.31 2043.76L443.334 2042.04ZM450.888 2048.87L450.029 2048.36L451.053 2046.64L451.912 2047.15L450.888 2048.87ZM460.489 2052.27L461.348 2052.78L460.325 2054.5L459.466 2053.98L460.489 2052.27ZM468.043 2059.09L467.184 2058.58L468.208 2056.86L469.067 2057.38L468.043 2059.09ZM477.644 2062.49L478.504 2063L477.48 2064.72L476.621 2064.21L477.644 2062.49ZM485.198 2069.32L484.339 2068.8L485.363 2067.09L486.222 2067.6L485.198 2069.32ZM494.8 2072.71L495.659 2073.22L494.635 2074.94L493.776 2074.43L494.8 2072.71ZM502.353 2079.54L501.494 2079.03L502.518 2077.31L503.377 2077.82L502.353 2079.54ZM511.955 2082.93L512.814 2083.44L511.79 2085.16L510.931 2084.65L511.955 2082.93ZM519.509 2089.76L518.65 2089.25L519.673 2087.53L520.532 2088.04L519.509 2089.76ZM529.11 2093.15L529.969 2093.67L528.945 2095.38L528.086 2094.87L529.11 2093.15ZM536.664 2099.98L535.805 2099.47L536.828 2097.75L537.688 2098.26L536.664 2099.98ZM546.265 2103.38L547.124 2103.89L546.1 2105.61L545.241 2105.09L546.265 2103.38ZM553.819 2110.2L552.96 2109.69L553.984 2107.97L554.843 2108.49L553.819 2110.2ZM563.42 2113.6L564.279 2114.11L563.256 2115.83L562.397 2115.32L563.42 2113.6ZM570.974 2120.43L570.115 2119.91L571.139 2118.2L571.998 2118.71L570.974 2120.43ZM580.575 2123.82L581.435 2124.33L580.411 2126.05L579.552 2125.54L580.575 2123.82ZM588.129 2130.65L587.27 2130.14L588.294 2128.42L589.153 2128.93L588.129 2130.65ZM597.731 2134.04L598.59 2134.55L597.566 2136.27L596.707 2135.76L597.731 2134.04ZM605.284 2140.87L604.425 2140.36L605.449 2138.64L606.308 2139.15L605.284 2140.87ZM614.886 2144.26L615.745 2144.78L614.721 2146.49L613.862 2145.98L614.886 2144.26ZM622.44 2151.09L621.581 2150.58L622.604 2148.86L623.463 2149.37L622.44 2151.09ZM632.041 2154.49L632.9 2155L631.876 2156.72L631.017 2156.2L632.041 2154.49ZM639.595 2161.31L638.736 2160.8L639.759 2159.08L640.619 2159.6L639.595 2161.31ZM649.196 2164.71L650.055 2165.22L649.031 2166.94L648.172 2166.43L649.196 2164.71ZM656.75 2171.54L655.891 2171.03L656.915 2169.31L657.774 2169.82L656.75 2171.54ZM666.351 2174.93L667.21 2175.44L666.187 2177.16L665.327 2176.65L666.351 2174.93ZM673.905 2181.76L673.046 2181.25L674.07 2179.53L674.929 2180.04L673.905 2181.76ZM683.506 2185.15L684.365 2185.66L683.342 2187.38L682.483 2186.87L683.506 2185.15ZM691.06 2191.98L690.201 2191.47L691.225 2189.75L692.084 2190.26L691.06 2191.98ZM696.302 2198.7L696.19 2199.69L694.202 2199.47L694.314 2198.48L696.302 2198.7ZM693.208 2208.3L693.32 2207.3L695.308 2207.53L695.196 2208.52L693.208 2208.3ZM694.09 2218.34L693.978 2219.34L691.99 2219.11L692.102 2218.12L694.09 2218.34ZM690.996 2227.94L691.108 2226.95L693.096 2227.17L692.984 2228.16L690.996 2227.94ZM691.878 2237.98L691.766 2238.98L689.778 2238.75L689.89 2237.76L691.878 2237.98ZM688.784 2247.58L688.896 2246.59L690.884 2246.81L690.772 2247.81L688.784 2247.58ZM689.666 2257.63L689.554 2258.62L687.566 2258.4L687.678 2257.4L689.666 2257.63ZM686.572 2267.22L686.684 2266.23L688.672 2266.45L688.56 2267.45L686.572 2267.22ZM687.454 2277.27L687.342 2278.26L685.354 2278.04L685.466 2277.05L687.454 2277.27ZM684.36 2286.87L684.472 2285.87L686.46 2286.1L686.348 2287.09L684.36 2286.87ZM685.242 2296.91L685.13 2297.91L683.142 2297.68L683.254 2296.69L685.242 2296.91ZM682.148 2306.51L682.26 2305.52L684.248 2305.74L684.136 2306.73L682.148 2306.51ZM683.03 2316.55L682.918 2317.55L680.93 2317.32L681.042 2316.33L683.03 2316.55ZM679.936 2326.15L680.048 2325.16L682.036 2325.38L681.924 2326.38L679.936 2326.15ZM680.818 2336.2L680.706 2337.19L678.718 2336.97L678.83 2335.97L680.818 2336.2ZM677.724 2345.79L677.836 2344.8L679.824 2345.02L679.712 2346.02L677.724 2345.79ZM678.606 2355.84L678.494 2356.83L676.506 2356.61L676.618 2355.62L678.606 2355.84ZM675.512 2365.44L675.624 2364.44L677.612 2364.67L677.5 2365.66L675.512 2365.44ZM676.394 2375.48L676.282 2376.48L674.294 2376.25L674.406 2375.26L676.394 2375.48ZM673.3 2385.08L673.412 2384.09L675.4 2384.31L675.288 2385.3L673.3 2385.08ZM674.182 2395.12L674.07 2396.12L672.082 2395.89L672.194 2394.9L674.182 2395.12ZM671.088 2404.72L671.2 2403.73L673.188 2403.95L673.076 2404.95L671.088 2404.72ZM671.97 2414.77L671.858 2415.76L669.87 2415.54L669.982 2414.54L671.97 2414.77ZM668.876 2424.36L668.988 2423.37L670.976 2423.59L670.864 2424.59L668.876 2424.36ZM669.758 2434.41L669.646 2435.4L667.658 2435.18L667.77 2434.19L669.758 2434.41ZM666.664 2444.01L666.776 2443.01L668.764 2443.24L668.652 2444.23L666.664 2444.01ZM667.546 2454.05L667.434 2455.05L665.446 2454.82L665.558 2453.83L667.546 2454.05ZM664.452 2463.65L664.564 2462.66L666.552 2462.88L666.44 2463.87L664.452 2463.65ZM665.334 2473.69L665.222 2474.69L663.234 2474.46L663.346 2473.47L665.334 2473.69ZM662.24 2483.29L662.352 2482.3L664.34 2482.52L664.228 2483.52L662.24 2483.29ZM663.122 2493.34L663.01 2494.33L661.022 2494.11L661.134 2493.11L663.122 2493.34ZM660.028 2502.93L660.14 2501.94L662.128 2502.16L662.016 2503.16L660.028 2502.93ZM660.91 2512.98L660.798 2513.97L658.811 2513.75L658.922 2512.75L660.91 2512.98ZM657.816 2522.58L657.928 2521.58L659.916 2521.81L659.804 2522.8L657.816 2522.58ZM658.698 2532.62L658.586 2533.61L656.599 2533.39L656.71 2532.4L658.698 2532.62ZM655.604 2542.22L655.716 2541.22L657.704 2541.45L657.592 2542.44L655.604 2542.22ZM656.486 2552.26L656.374 2553.26L654.387 2553.03L654.498 2552.04L656.486 2552.26ZM653.392 2561.86L653.504 2560.87L655.492 2561.09L655.38 2562.08L653.392 2561.86ZM654.274 2571.91L654.162 2572.9L652.175 2572.68L652.286 2571.68L654.274 2571.91ZM651.18 2581.5L651.292 2580.51L653.28 2580.73L653.168 2581.73L651.18 2581.5ZM652.062 2591.55L651.95 2592.54L649.963 2592.32L650.074 2591.32L652.062 2591.55ZM648.968 2601.15L649.08 2600.15L651.068 2600.38L650.956 2601.37L648.968 2601.15ZM649.85 2611.19L649.738 2612.18L647.751 2611.96L647.862 2610.97L649.85 2611.19ZM646.756 2620.79L646.868 2619.79L648.856 2620.02L648.744 2621.01L646.756 2620.79ZM647.638 2630.83L647.526 2631.83L645.539 2631.6L645.65 2630.61L647.638 2630.83ZM644.544 2640.43L644.656 2639.44L646.644 2639.66L646.532 2640.65L644.544 2640.43ZM645.426 2650.48L645.314 2651.47L643.327 2651.25L643.438 2650.25L645.426 2650.48ZM642.333 2660.07L642.444 2659.08L644.432 2659.3L644.32 2660.3L642.333 2660.07ZM643.214 2670.12L643.102 2671.11L641.115 2670.89L641.227 2669.89L643.214 2670.12ZM640.121 2679.72L640.232 2678.72L642.22 2678.95L642.108 2679.94L640.121 2679.72ZM641.002 2689.76L640.89 2690.75L638.903 2690.53L639.015 2689.54L641.002 2689.76ZM637.909 2699.36L638.02 2698.36L640.008 2698.59L639.896 2699.58L637.909 2699.36ZM638.79 2709.4L638.678 2710.4L636.691 2710.17L636.803 2709.18L638.79 2709.4ZM635.697 2719L635.808 2718.01L637.796 2718.23L637.684 2719.22L635.697 2719ZM636.578 2729.05L636.466 2730.04L634.479 2729.82L634.591 2728.82L636.578 2729.05ZM633.485 2738.64L633.596 2737.65L635.584 2737.87L635.472 2738.87L633.485 2738.64ZM634.366 2748.69L634.254 2749.68L632.267 2749.46L632.379 2748.46L634.366 2748.69ZM631.273 2758.29L631.384 2757.29L633.372 2757.52L633.26 2758.51L631.273 2758.29ZM632.154 2768.33L632.042 2769.32L630.055 2769.1L630.167 2768.11L632.154 2768.33ZM629.061 2777.93L629.172 2776.93L631.16 2777.16L631.048 2778.15L629.061 2777.93ZM629.942 2787.97L629.83 2788.97L627.843 2788.74L627.955 2787.75L629.942 2787.97ZM626.849 2797.57L626.961 2796.58L628.948 2796.8L628.836 2797.79L626.849 2797.57ZM624.452 2806.84L623.745 2807.55L622.331 2806.14L623.038 2805.43L624.452 2806.84ZM615.949 2812.51L616.656 2811.81L618.07 2813.22L617.363 2813.93L615.949 2812.51ZM610.274 2821.01L609.567 2821.72L608.153 2820.31L608.86 2819.6L610.274 2821.01ZM601.771 2826.69L602.479 2825.98L603.893 2827.39L603.185 2828.1L601.771 2826.69ZM596.096 2835.19L595.389 2835.89L593.975 2834.48L594.683 2833.77L596.096 2835.19ZM587.594 2840.86L588.301 2840.15L589.715 2841.57L589.008 2842.27L587.594 2840.86ZM581.919 2849.36L581.211 2850.07L579.798 2848.65L580.505 2847.94L581.919 2849.36ZM573.416 2855.03L574.123 2854.32L575.537 2855.74L574.83 2856.44L573.416 2855.03ZM567.741 2863.53L567.034 2864.24L565.62 2862.82L566.327 2862.12L567.741 2863.53ZM559.238 2869.2L559.946 2868.49L561.359 2869.91L560.652 2870.62L559.238 2869.2ZM553.563 2877.7L552.856 2878.41L551.442 2876.99L552.149 2876.29L553.563 2877.7ZM545.061 2883.37L545.768 2882.67L547.182 2884.08L546.474 2884.79L545.061 2883.37ZM539.386 2891.87L538.678 2892.58L537.264 2891.17L537.972 2890.46L539.386 2891.87ZM530.883 2897.54L531.59 2896.84L533.004 2898.25L532.297 2898.96L530.883 2897.54ZM525.208 2906.05L524.501 2906.75L523.087 2905.34L523.794 2904.63L525.208 2906.05ZM516.705 2911.72L517.412 2911.01L518.826 2912.42L518.119 2913.13L516.705 2911.72ZM511.03 2920.22L510.323 2920.92L508.909 2919.51L509.616 2918.8L511.03 2920.22ZM502.527 2925.89L503.235 2925.18L504.649 2926.6L503.941 2927.3L502.527 2925.89ZM496.852 2934.39L496.145 2935.1L494.731 2933.68L495.438 2932.97L496.852 2934.39ZM488.35 2940.06L489.057 2939.35L490.471 2940.77L489.764 2941.47L488.35 2940.06ZM482.675 2948.56L481.967 2949.27L480.554 2947.85L481.261 2947.15L482.675 2948.56ZM474.172 2954.23L474.879 2953.53L476.293 2954.94L475.586 2955.65L474.172 2954.23ZM468.497 2962.73L467.79 2963.44L466.376 2962.02L467.083 2961.32L468.497 2962.73ZM459.994 2968.4L460.701 2967.7L462.115 2969.11L461.408 2969.82L459.994 2968.4ZM454.319 2976.9L453.612 2977.61L452.198 2976.2L452.905 2975.49L454.319 2976.9ZM445.816 2982.58L446.524 2981.87L447.938 2983.28L447.23 2983.99L445.816 2982.58ZM440.141 2991.08L439.434 2991.78L438.02 2990.37L438.728 2989.66L440.141 2991.08ZM431.639 2996.75L432.346 2996.04L433.76 2997.45L433.053 2998.16L431.639 2996.75ZM425.964 3005.25L425.257 3005.95L423.843 3004.54L424.55 3003.83L425.964 3005.25ZM417.461 3010.92L418.168 3010.21L419.582 3011.63L418.875 3012.33L417.461 3010.92ZM411.786 3019.42L411.079 3020.13L409.665 3018.71L410.372 3018.01L411.786 3019.42ZM403.283 3025.09L403.991 3024.38L405.404 3025.8L404.697 3026.51L403.283 3025.09ZM397.608 3033.59L396.901 3034.3L395.487 3032.88L396.194 3032.18L397.608 3033.59ZM389.106 3039.26L389.813 3038.56L391.227 3039.97L390.519 3040.68L389.106 3039.26ZM383.431 3047.76L382.723 3048.47L381.309 3047.06L382.017 3046.35L383.431 3047.76ZM374.928 3053.43L375.635 3052.73L377.049 3054.14L376.342 3054.85L374.928 3053.43ZM369.253 3061.94L368.546 3062.64L367.132 3061.23L367.839 3060.52L369.253 3061.94ZM360.75 3067.61L361.457 3066.9L362.871 3068.31L362.164 3069.02L360.75 3067.61ZM355.075 3076.11L354.368 3076.81L352.954 3075.4L353.661 3074.69L355.075 3076.11ZM346.572 3081.78L347.28 3081.07L348.694 3082.49L347.986 3083.19L346.572 3081.78ZM340.897 3090.28L340.19 3090.99L338.776 3089.57L339.483 3088.86L340.897 3090.28ZM332.395 3095.95L333.102 3095.24L334.516 3096.66L333.809 3097.36L332.395 3095.95ZM326.72 3104.45L326.012 3105.16L324.598 3103.74L325.306 3103.04L326.72 3104.45ZM318.217 3110.12L318.924 3109.41L320.338 3110.83L319.631 3111.54L318.217 3110.12ZM312.542 3118.62L311.835 3119.33L310.421 3117.91L311.128 3117.21L312.542 3118.62ZM304.039 3124.29L304.746 3123.59L306.16 3125L305.453 3125.71L304.039 3124.29ZM298.364 3132.79L297.657 3133.5L296.243 3132.09L296.95 3131.38L298.364 3132.79ZM289.861 3138.47L290.569 3137.76L291.983 3139.17L291.275 3139.88L289.861 3138.47ZM284.186 3146.97L283.479 3147.67L282.065 3146.26L282.773 3145.55L284.186 3146.97ZM275.684 3152.64L276.391 3151.93L277.805 3153.34L277.098 3154.05L275.684 3152.64ZM270.009 3161.14L269.302 3161.84L267.888 3160.43L268.595 3159.72L270.009 3161.14ZM261.506 3166.81L262.213 3166.1L263.627 3167.52L262.92 3168.22L261.506 3166.81ZM255.831 3175.31L255.124 3176.02L253.71 3174.6L254.417 3173.89L255.831 3175.31ZM247.328 3180.98L248.036 3180.27L249.449 3181.69L248.742 3182.4L247.328 3180.98ZM241.653 3189.48L240.946 3190.19L239.532 3188.77L240.239 3188.07L241.653 3189.48ZM233.151 3195.15L233.858 3194.45L235.272 3195.86L234.564 3196.57L233.151 3195.15ZM227.476 3203.65L226.768 3204.36L225.354 3202.95L226.062 3202.24L227.476 3203.65ZM218.973 3209.32L219.68 3208.62L221.094 3210.03L220.387 3210.74L218.973 3209.32ZM213.298 3217.82L212.591 3218.53L211.177 3217.12L211.884 3216.41L213.298 3217.82ZM204.795 3223.5L205.502 3222.79L206.916 3224.2L206.209 3224.91L204.795 3223.5ZM199.12 3232L198.413 3232.7L196.999 3231.29L197.706 3230.58L199.12 3232ZM190.617 3237.67L191.325 3236.96L192.739 3238.38L192.031 3239.08L190.617 3237.67ZM184.942 3246.17L184.235 3246.88L182.821 3245.46L183.528 3244.75L184.942 3246.17ZM176.44 3251.84L177.147 3251.13L178.561 3252.55L177.854 3253.25L176.44 3251.84ZM170.765 3260.34L170.057 3261.05L168.643 3259.63L169.351 3258.93L170.765 3260.34ZM162.262 3266.01L162.969 3265.3L164.383 3266.72L163.676 3267.43L162.262 3266.01ZM156.587 3274.51L155.88 3275.22L154.466 3273.8L155.173 3273.1L156.587 3274.51ZM148.084 3280.18L148.791 3279.48L150.205 3280.89L149.498 3281.6L148.084 3280.18ZM142.409 3288.68L141.702 3289.39L140.288 3287.98L140.995 3287.27L142.409 3288.68ZM133.906 3294.36L134.614 3293.65L136.028 3295.06L135.32 3295.77L133.906 3294.36ZM128.231 3302.86L127.524 3303.56L126.11 3302.15L126.818 3301.44L128.231 3302.86ZM119.729 3308.53L120.436 3307.82L121.85 3309.23L121.143 3309.94L119.729 3308.53ZM114.054 3317.03L113.347 3317.73L111.933 3316.32L112.64 3315.61L114.054 3317.03ZM105.551 3322.7L106.258 3321.99L107.672 3323.41L106.965 3324.11L105.551 3322.7ZM99.876 3331.2L99.1688 3331.91L97.7549 3330.49L98.4621 3329.78L99.876 3331.2ZM91.3733 3336.87L92.0805 3336.16L93.4944 3337.58L92.7872 3338.29L91.3733 3336.87ZM85.6983 3345.37L84.9911 3346.08L83.5771 3344.66L84.2844 3343.96L85.6983 3345.37ZM77.1955 3351.04L77.9028 3350.34L79.3167 3351.75L78.6094 3352.46L77.1955 3351.04ZM71.5206 3359.54L70.8133 3360.25L69.3994 3358.84L70.1067 3358.13L71.5206 3359.54ZM63.0178 3365.21L63.7251 3364.51L65.139 3365.92L64.4317 3366.63L63.0178 3365.21ZM57.3429 3373.71L56.6356 3374.42L55.2217 3373.01L55.9289 3372.3L57.3429 3373.71ZM48.8401 3379.39L49.5473 3378.68L50.9612 3380.09L50.254 3380.8L48.8401 3379.39ZM43.1651 3387.89L42.4579 3388.59L41.044 3387.18L41.7512 3386.47L43.1651 3387.89ZM34.6623 3393.56L35.3696 3392.85L36.7835 3394.27L36.0763 3394.97L34.6623 3393.56ZM28.9874 3402.06L28.2801 3402.77L26.8662 3401.35L27.5735 3400.64L28.9874 3402.06ZM20.4846 3407.73L21.1919 3407.02L22.6058 3408.44L21.8985 3409.14L20.4846 3407.73ZM19.8673 3416.68L20.1123 3417.65L18.1732 3418.14L17.9282 3417.17L19.8673 3416.68ZM20.4289 3427.07L20.184 3426.1L22.123 3425.61L22.368 3426.58L20.4289 3427.07ZM24.8687 3436.48L25.1137 3437.45L23.1746 3437.94L22.9297 3436.97L24.8687 3436.48ZM25.4304 3446.86L25.1854 3445.89L27.1244 3445.4L27.3694 3446.37L25.4304 3446.86ZM29.8701 3456.27L30.1151 3457.24L28.1761 3457.73L27.9311 3456.76L29.8701 3456.27ZM30.4318 3466.65L30.1868 3465.69L32.1259 3465.2L32.3708 3466.16L30.4318 3466.65ZM34.8716 3476.06L35.1165 3477.03L33.1775 3477.52L32.9325 3476.55L34.8716 3476.06ZM35.4332 3486.45L35.1882 3485.48L37.1273 3484.99L37.3723 3485.96L35.4332 3486.45ZM39.873 3495.85L40.118 3496.82L38.1789 3497.31L37.9339 3496.34L39.873 3495.85ZM40.4346 3506.24L40.1897 3505.27L42.1287 3504.78L42.3737 3505.75L40.4346 3506.24ZM44.8744 3515.65L45.1194 3516.62L43.1803 3517.11L42.9354 3516.14L44.8744 3515.65ZM45.4361 3526.03L45.1911 3525.06L47.1301 3524.57L47.3751 3525.54L45.4361 3526.03ZM49.8758 3535.44L50.1208 3536.41L48.1818 3536.9L47.9368 3535.93L49.8758 3535.44ZM50.4375 3545.83L50.1925 3544.86L52.1316 3544.37L52.3765 3545.34L50.4375 3545.83ZM54.8773 3555.23L55.1222 3556.2L53.1832 3556.69L52.9382 3555.72L54.8773 3555.23ZM55.4389 3565.62L55.1939 3564.65L57.133 3564.16L57.378 3565.13L55.4389 3565.62ZM59.8787 3575.03L60.1237 3575.99L58.1846 3576.48L57.9396 3575.52L59.8787 3575.03ZM60.4403 3585.41L60.1954 3584.44L62.1344 3583.95L62.3794 3584.92L60.4403 3585.41ZM64.8801 3594.82L65.1251 3595.79L63.186 3596.28L62.9411 3595.31L64.8801 3594.82ZM65.4418 3605.2L65.1968 3604.23L67.1358 3603.74L67.3808 3604.71L65.4418 3605.2ZM69.8815 3614.61L70.1265 3615.58L68.1875 3616.07L67.9425 3615.1L69.8815 3614.61ZM70.4432 3625L70.1982 3624.03L72.1373 3623.54L72.3822 3624.51L70.4432 3625ZM74.883 3634.4L75.1279 3635.37L73.1889 3635.86L72.9439 3634.89L74.883 3634.4ZM75.4446 3644.79L75.1996 3643.82L77.1387 3643.33L77.3837 3644.3L75.4446 3644.79ZM79.8844 3654.2L80.1294 3655.17L78.1903 3655.66L77.9453 3654.69L79.8844 3654.2ZM80.446 3664.58L80.201 3663.61L82.1401 3663.12L82.3851 3664.09L80.446 3664.58ZM84.8858 3673.99L85.1308 3674.96L83.1917 3675.45L82.9468 3674.48L84.8858 3673.99ZM85.4475 3684.38L85.2025 3683.41L87.1415 3682.92L87.3865 3683.89L85.4475 3684.38ZM89.8872 3693.78L90.1322 3694.75L88.1932 3695.24L87.9482 3694.27L89.8872 3693.78ZM90.4489 3704.17L90.2039 3703.2L92.143 3702.71L92.3879 3703.68L90.4489 3704.17ZM94.8886 3713.57L95.1336 3714.54L93.1946 3715.03L92.9496 3714.06L94.8886 3713.57ZM95.4503 3723.96L95.2053 3722.99L97.1444 3722.5L97.3894 3723.47L95.4503 3723.96ZM99.8901 3733.37L100.135 3734.34L98.196 3734.83L97.951 3733.86L99.8901 3733.37ZM100.452 3743.75L100.207 3742.78L102.146 3742.29L102.391 3743.26L100.452 3743.75ZM107.737 3749.48L108.66 3749.87L107.891 3751.71L106.968 3751.33L107.737 3749.48ZM116.329 3755.23L115.406 3754.84L116.175 3753L117.098 3753.38L116.329 3755.23ZM126.459 3757.28L127.382 3757.67L126.613 3759.51L125.69 3759.13L126.459 3757.28ZM135.051 3763.03L134.128 3762.64L134.897 3760.8L135.82 3761.18L135.051 3763.03ZM145.181 3765.08L146.104 3765.46L145.335 3767.31L144.412 3766.93L145.181 3765.08ZM153.773 3770.82L152.85 3770.44L153.619 3768.59L154.542 3768.98L153.773 3770.82ZM163.903 3772.88L164.826 3773.26L164.057 3775.11L163.134 3774.72L163.903 3772.88ZM172.495 3778.62L171.572 3778.24L172.341 3776.39L173.264 3776.78L172.495 3778.62ZM182.625 3780.68L183.549 3781.06L182.78 3782.91L181.856 3782.52L182.625 3780.68ZM191.218 3786.42L190.294 3786.04L191.063 3784.19L191.986 3784.57L191.218 3786.42ZM201.348 3788.47L202.271 3788.86L201.502 3790.7L200.579 3790.32L201.348 3788.47ZM209.94 3794.22L209.017 3793.83L209.786 3791.99L210.709 3792.37L209.94 3794.22ZM220.07 3796.27L220.993 3796.66L220.224 3798.5L219.301 3798.12L220.07 3796.27ZM228.662 3802.02L227.739 3801.63L228.508 3799.79L229.431 3800.17L228.662 3802.02ZM238.792 3804.07L239.715 3804.45L238.946 3806.3L238.023 3805.92L238.792 3804.07ZM247.384 3809.82L246.461 3809.43L247.23 3807.58L248.153 3807.97L247.384 3809.82ZM257.514 3811.87L258.437 3812.25L257.668 3814.1L256.745 3813.71L257.514 3811.87ZM266.106 3817.61L265.183 3817.23L265.952 3815.38L266.875 3815.77L266.106 3817.61ZM276.236 3819.67L277.159 3820.05L276.39 3821.9L275.467 3821.51L276.236 3819.67ZM284.828 3825.41L283.905 3825.03L284.674 3823.18L285.597 3823.56L284.828 3825.41ZM294.958 3827.46L295.882 3827.85L295.113 3829.69L294.189 3829.31L294.958 3827.46ZM303.551 3833.21L302.627 3832.82L303.396 3830.98L304.32 3831.36L303.551 3833.21ZM313.681 3835.26L314.604 3835.65L313.835 3837.49L312.912 3837.11L313.681 3835.26ZM322.273 3841.01L321.35 3840.62L322.119 3838.78L323.042 3839.16L322.273 3841.01ZM332.403 3843.06L333.326 3843.44L332.557 3845.29L331.634 3844.91L332.403 3843.06ZM340.995 3848.81L340.072 3848.42L340.841 3846.57L341.764 3846.96L340.995 3848.81ZM351.125 3850.86L352.048 3851.24L351.279 3853.09L350.356 3852.7L351.125 3850.86ZM359.717 3856.6L358.794 3856.22L359.563 3854.37L360.486 3854.76L359.717 3856.6ZM369.847 3858.66L370.77 3859.04L370.001 3860.89L369.078 3860.5L369.847 3858.66ZM378.439 3864.4L377.516 3864.02L378.285 3862.17L379.208 3862.56L378.439 3864.4ZM388.569 3866.45L389.492 3866.84L388.723 3868.68L387.8 3868.3L388.569 3866.45ZM397.161 3872.2L396.238 3871.81L397.007 3869.97L397.93 3870.35L397.161 3872.2ZM407.291 3874.25L408.215 3874.64L407.446 3876.48L406.522 3876.1L407.291 3874.25ZM415.884 3880L414.96 3879.61L415.729 3877.77L416.653 3878.15L415.884 3880ZM426.014 3882.05L426.937 3882.43L426.168 3884.28L425.245 3883.9L426.014 3882.05ZM434.606 3887.8L433.683 3887.41L434.452 3885.56L435.375 3885.95L434.606 3887.8ZM444.736 3889.85L445.659 3890.23L444.89 3892.08L443.967 3891.69L444.736 3889.85ZM453.328 3895.59L452.405 3895.21L453.174 3893.36L454.097 3893.75L453.328 3895.59ZM463.458 3897.65L464.381 3898.03L463.612 3899.88L462.689 3899.49L463.458 3897.65ZM472.05 3903.39L471.127 3903.01L471.896 3901.16L472.819 3901.55L472.05 3903.39ZM482.18 3905.44L483.103 3905.83L482.334 3907.68L481.411 3907.29L482.18 3905.44ZM490.772 3911.19L489.849 3910.81L490.618 3908.96L491.541 3909.34L490.772 3911.19ZM500.902 3913.24L501.825 3913.63L501.056 3915.47L500.133 3915.09L500.902 3913.24ZM509.494 3918.99L508.571 3918.6L509.34 3916.76L510.263 3917.14L509.494 3918.99ZM519.624 3921.04L520.548 3921.42L519.779 3923.27L518.855 3922.89L519.624 3921.04ZM528.217 3926.79L527.293 3926.4L528.062 3924.55L528.986 3924.94L528.217 3926.79ZM538.347 3928.84L539.27 3929.22L538.501 3931.07L537.578 3930.68L538.347 3928.84ZM546.939 3934.58L546.016 3934.2L546.785 3932.35L547.708 3932.74L546.939 3934.58ZM557.069 3936.64L557.992 3937.02L557.223 3938.87L556.3 3938.48L557.069 3936.64ZM565.661 3942.38L564.738 3942L565.507 3940.15L566.43 3940.54L565.661 3942.38ZM573.18 3947.97L573.474 3948.93L571.563 3949.52L571.269 3948.56L573.18 3947.97ZM574.265 3958.28L573.97 3957.32L575.881 3956.73L576.176 3957.69L574.265 3958.28ZM579.172 3967.41L579.467 3968.36L577.556 3968.95L577.261 3968L579.172 3967.41ZM580.257 3977.71L579.963 3976.76L581.874 3976.17L582.169 3977.12L580.257 3977.71ZM585.165 3986.84L585.459 3987.8L583.548 3988.39L583.254 3987.43L585.165 3986.84ZM586.25 3997.15L585.955 3996.19L587.866 3995.6L588.161 3996.56L586.25 3997.15ZM591.157 4006.28L591.452 4007.23L589.541 4007.82L589.246 4006.87L591.157 4006.28ZM592.242 4016.58L591.948 4015.63L593.859 4015.04L594.153 4015.99L592.242 4016.58ZM597.15 4025.71L597.444 4026.67L595.533 4027.26L595.238 4026.3L597.15 4025.71ZM598.235 4036.02L597.94 4035.06L599.851 4034.47L600.146 4035.43L598.235 4036.02ZM603.142 4045.15L603.437 4046.1L601.525 4046.69L601.231 4045.74L603.142 4045.15ZM604.227 4055.45L603.932 4054.5L605.844 4053.91L606.138 4054.86L604.227 4055.45ZM609.134 4064.58L609.429 4065.54L607.518 4066.13L607.223 4065.17L609.134 4064.58ZM610.219 4074.89L609.925 4073.93L611.836 4073.34L612.131 4074.3L610.219 4074.89ZM615.127 4084.02L615.422 4084.97L613.51 4085.56L613.216 4084.61L615.127 4084.02ZM616.212 4094.32L615.917 4093.37L617.828 4092.78L618.123 4093.73L616.212 4094.32ZM621.119 4103.45L621.414 4104.41L619.503 4105L619.208 4104.04L621.119 4103.45ZM622.204 4113.76L621.91 4112.8L623.821 4112.21L624.116 4113.17L622.204 4113.76ZM627.112 4122.89L627.406 4123.84L625.495 4124.43L625.201 4123.48L627.112 4122.89ZM628.197 4133.19L627.902 4132.24L629.813 4131.65L630.108 4132.6L628.197 4133.19ZM633.104 4142.32L633.399 4143.28L631.488 4143.87L631.193 4142.91L633.104 4142.32ZM634.189 4152.63L633.895 4151.67L635.806 4151.08L636.1 4152.04L634.189 4152.63ZM639.097 4161.76L639.391 4162.71L637.48 4163.3L637.185 4162.35L639.097 4161.76ZM640.182 4172.06L639.887 4171.11L641.798 4170.52L642.093 4171.47L640.182 4172.06ZM645.089 4181.19L645.384 4182.15L643.473 4182.74L643.178 4181.78L645.089 4181.19ZM646.174 4191.5L645.879 4190.54L647.791 4189.95L648.085 4190.91L646.174 4191.5ZM651.082 4200.63L651.376 4201.58L649.465 4202.17L649.17 4201.22L651.082 4200.63ZM652.167 4210.93L651.872 4209.98L653.783 4209.39L654.078 4210.34L652.167 4210.93ZM657.074 4220.06L657.369 4221.02L655.457 4221.61L655.163 4220.65L657.074 4220.06ZM658.159 4230.37L657.864 4229.41L659.776 4228.82L660.07 4229.78L658.159 4230.37ZM663.066 4239.5L663.361 4240.45L661.45 4241.04L661.155 4240.09L663.066 4239.5ZM664.151 4249.8L663.857 4248.85L665.768 4248.26L666.063 4249.21L664.151 4249.8ZM669.059 4258.93L669.354 4259.89L667.442 4260.48L667.148 4259.52L669.059 4258.93ZM670.144 4269.24L669.849 4268.28L671.76 4267.69L672.055 4268.65L670.144 4269.24ZM675.051 4278.37L675.346 4279.32L673.435 4279.91L673.14 4278.96L675.051 4278.37ZM676.136 4288.67L675.842 4287.72L677.753 4287.13L678.048 4288.08L676.136 4288.67ZM681.044 4297.8L681.338 4298.76L679.427 4299.35L679.133 4298.39L681.044 4297.8ZM682.129 4308.11L681.834 4307.15L683.745 4306.56L684.04 4307.52L682.129 4308.11ZM687.036 4317.24L687.331 4318.19L685.42 4318.78L685.125 4317.83L687.036 4317.24ZM688.121 4327.54L687.827 4326.59L689.738 4326L690.032 4326.95L688.121 4327.54ZM693.029 4336.67L693.323 4337.63L691.412 4338.22L691.117 4337.26L693.029 4336.67ZM694.114 4346.98L693.819 4346.02L695.73 4345.43L696.025 4346.39L694.114 4346.98ZM699.021 4356.11L699.316 4357.06L697.404 4357.65L697.11 4356.69L699.021 4356.11ZM700.106 4366.41L699.811 4365.46L701.723 4364.87L702.017 4365.82L700.106 4366.41ZM798.552 23.4689L796.096 27.7879L794.357 26.7993L796.813 22.4803L798.552 23.4689ZM791.184 36.426L786.272 45.064L784.533 44.0753L789.445 35.4373L791.184 36.426ZM781.36 53.702L776.448 62.34L774.709 61.3514L779.621 52.7134L781.36 53.702ZM771.535 70.9781L766.623 79.6161L764.885 78.6274L769.797 69.9894L771.535 70.9781ZM761.711 88.2541L756.799 96.8921L755.061 95.9035L759.973 87.2655L761.711 88.2541ZM751.887 105.53L746.975 114.168L745.236 113.18L750.149 104.542L751.887 105.53ZM742.063 122.806L737.151 131.444L735.412 130.456L740.324 121.818L742.063 122.806ZM732.239 140.082L727.327 148.72L725.588 147.732L730.5 139.094L732.239 140.082ZM722.415 157.358L717.502 165.996L715.764 165.008L720.676 156.37L722.415 157.358ZM712.59 174.634L707.678 183.272L705.94 182.284L710.852 173.646L712.59 174.634ZM702.766 191.91L697.854 200.548L696.116 199.56L701.028 190.922L702.766 191.91ZM692.942 209.187L688.03 217.825L686.291 216.836L691.203 208.198L692.942 209.187ZM683.118 226.463L678.206 235.101L676.467 234.112L681.379 225.474L683.118 226.463ZM673.294 243.739L668.382 252.377L666.643 251.388L671.555 242.75L673.294 243.739ZM663.469 261.015L658.557 269.653L656.819 268.664L661.731 260.026L663.469 261.015ZM653.645 278.291L648.733 286.929L646.995 285.94L651.907 277.302L653.645 278.291ZM643.821 295.567L638.909 304.205L637.17 303.216L642.083 294.578L643.821 295.567ZM633.997 312.843L631.541 317.162L629.802 316.173L632.258 311.854L633.997 312.843ZM631.672 316.667V321.605H629.672V316.667H631.672ZM631.672 331.481V341.357H629.672V331.481H631.672ZM631.672 351.232V361.108H629.672V351.232H631.672ZM631.672 370.983V380.859H629.672V370.983H631.672ZM631.672 390.735V400.61H629.672V390.735H631.672ZM631.672 410.486V420.362H629.672V410.486H631.672ZM631.672 430.237V440.113H629.672V430.237H631.672ZM631.672 449.988V459.864H629.672V449.988H631.672ZM631.672 469.74V479.615H629.672V469.74H631.672ZM631.672 489.491V499.367H629.672V489.491H631.672ZM631.672 509.242V519.118H629.672V509.242H631.672ZM631.672 528.993V538.869H629.672V528.993H631.672ZM631.672 548.745V558.62H629.672V548.745H631.672ZM631.672 568.496V578.372H629.672V568.496H631.672ZM631.672 588.247V598.123H629.672V588.247H631.672ZM631.672 607.998V617.874H629.672V607.998H631.672ZM631.672 627.75V637.625H629.672V627.75H631.672ZM631.672 647.501V657.376H629.672V647.501H631.672ZM631.672 667.252V677.128H629.672V667.252H631.672ZM631.672 687.003V691.941H629.672V687.003H631.672ZM631.351 692.675L627.704 696.052L626.345 694.585L629.992 691.208L631.351 692.675ZM620.411 702.807L613.118 709.562L611.759 708.094L619.052 701.34L620.411 702.807ZM605.824 716.317L598.531 723.071L597.172 721.604L604.465 714.849L605.824 716.317ZM591.238 729.826L583.944 736.581L582.585 735.113L589.879 728.359L591.238 729.826ZM576.651 743.335L569.358 750.09L567.999 748.623L575.292 741.868L576.651 743.335ZM562.064 756.845L554.771 763.6L553.412 762.132L560.705 755.378L562.064 756.845ZM547.478 770.354L540.184 777.109L538.825 775.642L546.119 768.887L547.478 770.354ZM532.891 783.864L525.598 790.619L524.239 789.151L531.532 782.397L532.891 783.864ZM518.304 797.373L511.011 804.128L509.652 802.661L516.945 795.906L518.304 797.373ZM503.717 810.883L496.424 817.638L495.065 816.17L502.358 809.416L503.717 810.883ZM489.131 824.392L481.837 831.147L480.478 829.68L487.772 822.925L489.131 824.392ZM474.544 837.902L467.251 844.657L465.892 843.189L473.185 836.435L474.544 837.902ZM459.957 851.411L452.664 858.166L451.305 856.699L458.598 849.944L459.957 851.411ZM445.371 864.921L438.077 871.676L436.718 870.208L444.012 863.454L445.371 864.921ZM430.784 878.43L423.491 885.185L422.132 883.718L429.425 876.963L430.784 878.43ZM416.197 891.94L408.904 898.695L407.545 897.227L414.838 890.473L416.197 891.94ZM401.61 905.449L394.317 912.204L392.958 910.737L400.252 903.982L401.61 905.449ZM387.024 918.959L379.73 925.714L378.371 924.246L385.665 917.492L387.024 918.959ZM372.437 932.468L365.144 939.223L363.785 937.756L371.078 931.001L372.437 932.468ZM357.85 945.978L350.557 952.733L349.198 951.265L356.491 944.511L357.85 945.978ZM343.264 959.487L335.97 966.242L334.611 964.775L341.905 958.02L343.264 959.487ZM328.677 972.997L321.384 979.752L320.025 978.284L327.318 971.529L328.677 972.997ZM314.09 986.506L306.797 993.261L305.438 991.794L312.731 985.039L314.09 986.506ZM299.504 1000.02L292.21 1006.77L290.851 1005.3L298.145 998.548L299.504 1000.02ZM284.917 1013.53L277.624 1020.28L276.265 1018.81L283.558 1012.06L284.917 1013.53ZM270.33 1027.03L263.037 1033.79L261.678 1032.32L268.971 1025.57L270.33 1027.03ZM255.744 1040.54L248.45 1047.3L247.091 1045.83L254.385 1039.08L255.744 1040.54ZM241.157 1054.05L233.864 1060.81L232.505 1059.34L239.798 1052.59L241.157 1054.05ZM226.57 1067.56L219.277 1074.32L217.918 1072.85L225.211 1066.1L226.57 1067.56ZM211.983 1081.07L204.69 1087.83L203.331 1086.36L210.624 1079.61L211.983 1081.07ZM197.397 1094.58L190.103 1101.34L188.744 1099.87L196.038 1093.11L197.397 1094.58ZM182.81 1108.09L175.517 1114.85L174.158 1113.38L181.451 1106.62L182.81 1108.09ZM168.223 1121.6L160.93 1128.36L159.571 1126.89L166.864 1120.13L168.223 1121.6ZM153.637 1135.11L146.343 1141.87L144.984 1140.4L152.278 1133.64L153.637 1135.11ZM139.05 1148.62L131.757 1155.37L130.398 1153.91L137.691 1147.15L139.05 1148.62ZM124.463 1162.13L117.17 1168.88L115.811 1167.42L123.104 1160.66L124.463 1162.13ZM109.877 1175.64L102.583 1182.39L101.224 1180.93L108.518 1174.17L109.877 1175.64ZM95.2899 1189.15L91.643 1192.53L90.284 1191.06L93.931 1187.68L95.2899 1189.15ZM91.9577 1191.68L92.495 1196.63L90.5067 1196.85L89.9693 1191.9L91.9577 1191.68ZM93.5698 1206.53L94.6446 1216.42L92.6563 1216.64L91.5815 1206.74L93.5698 1206.53ZM95.7194 1226.31L96.7942 1236.21L94.8059 1236.43L93.7311 1226.53L95.7194 1226.31ZM97.869 1246.1L98.9438 1256L96.9555 1256.21L95.8807 1246.32L97.869 1246.1ZM100.019 1265.89L101.093 1275.79L99.105 1276L98.0302 1266.11L100.019 1265.89ZM102.168 1285.68L103.243 1295.58L101.255 1295.79L100.18 1285.9L102.168 1285.68ZM104.318 1305.47L105.392 1315.36L103.404 1315.58L102.329 1305.69L104.318 1305.47ZM106.467 1325.26L107.542 1335.15L105.554 1335.37L104.479 1325.47L106.467 1325.26ZM108.617 1345.05L109.692 1354.94L107.703 1355.16L106.629 1345.26L108.617 1345.05ZM110.766 1364.84L111.841 1374.73L109.853 1374.95L108.778 1365.05L110.766 1364.84ZM112.916 1384.62L113.991 1394.52L112.002 1394.74L110.928 1384.84L112.916 1384.62ZM115.066 1404.41L116.14 1414.31L114.152 1414.52L113.077 1404.63L115.066 1404.41ZM117.215 1424.2L118.29 1434.1L116.302 1434.31L115.227 1424.42L117.215 1424.2ZM119.365 1443.99L120.439 1453.89L118.451 1454.1L117.376 1444.21L119.365 1443.99ZM121.514 1463.78L122.589 1473.67L120.601 1473.89L119.526 1464L121.514 1463.78ZM123.664 1483.57L124.739 1493.46L122.75 1493.68L121.676 1483.78L123.664 1483.57ZM125.813 1503.36L126.351 1508.3L124.362 1508.52L123.825 1503.57L125.813 1503.36ZM126.335 1508.62L125.332 1513.41L123.374 1513.01L124.378 1508.21L126.335 1508.62ZM123.324 1523.01L121.317 1532.61L119.359 1532.2L121.367 1522.6L123.324 1523.01ZM119.31 1542.2L117.302 1551.8L115.345 1551.39L117.352 1541.79L119.31 1542.2ZM115.295 1561.39L113.287 1570.99L111.33 1570.58L113.337 1560.98L115.295 1561.39ZM111.28 1580.58L109.273 1590.18L107.315 1589.77L109.322 1580.17L111.28 1580.58ZM107.265 1599.77L105.258 1609.37L103.3 1608.96L105.308 1599.36L107.265 1599.77ZM103.25 1618.96L101.243 1628.56L99.2854 1628.15L101.293 1618.55L103.25 1618.96ZM99.2356 1638.15L97.2282 1647.75L95.2706 1647.34L97.278 1637.74L99.2356 1638.15ZM95.2208 1657.34L93.2135 1666.94L91.2558 1666.53L93.2632 1656.93L95.2208 1657.34ZM91.2061 1676.53L89.1987 1686.13L87.241 1685.72L89.2484 1676.12L91.2061 1676.53ZM87.1913 1695.72L85.1839 1705.32L83.2263 1704.91L85.2337 1695.32L87.1913 1695.72ZM83.1765 1714.92L81.1691 1724.51L79.2115 1724.1L81.2189 1714.51L83.1765 1714.92ZM79.1617 1734.11L77.1543 1743.7L75.1967 1743.29L77.2041 1733.7L79.1617 1734.11ZM75.1469 1753.3L73.1395 1762.89L71.1819 1762.48L73.1893 1752.89L75.1469 1753.3ZM71.1321 1772.49L69.1247 1782.08L67.1671 1781.67L69.1745 1772.08L71.1321 1772.49ZM67.1173 1791.68L65.1099 1801.27L63.1523 1800.86L65.1597 1791.27L67.1173 1791.68ZM63.1025 1810.87L62.0989 1815.67L60.1412 1815.26L61.1449 1810.46L63.1025 1810.87ZM61.6319 1814.6L65.9207 1817.16L64.897 1818.88L60.6082 1816.32L61.6319 1814.6ZM74.4983 1822.27L83.0759 1827.38L82.0521 1829.1L73.4745 1823.99L74.4983 1822.27ZM91.6535 1832.49L100.231 1837.6L99.2073 1839.32L90.6297 1834.21L91.6535 1832.49ZM108.809 1842.71L117.386 1847.82L116.362 1849.54L107.785 1844.43L108.809 1842.71ZM125.964 1852.93L134.541 1858.05L133.518 1859.76L124.94 1854.65L125.964 1852.93ZM143.119 1863.16L151.697 1868.27L150.673 1869.99L142.095 1864.87L143.119 1863.16ZM160.274 1873.38L168.852 1878.49L167.828 1880.21L159.25 1875.1L160.274 1873.38ZM177.429 1883.6L186.007 1888.71L184.983 1890.43L176.405 1885.32L177.429 1883.6ZM194.584 1893.82L203.162 1898.93L202.138 1900.65L193.561 1895.54L194.584 1893.82ZM211.74 1904.05L220.317 1909.16L219.293 1910.87L210.716 1905.76L211.74 1904.05ZM228.895 1914.27L237.472 1919.38L236.449 1921.1L227.871 1915.99L228.895 1914.27ZM246.05 1924.49L254.627 1929.6L253.604 1931.32L245.026 1926.21L246.05 1924.49ZM263.205 1934.71L271.783 1939.82L270.759 1941.54L262.181 1936.43L263.205 1934.71ZM280.36 1944.93L288.938 1950.04L287.914 1951.76L279.336 1946.65L280.36 1944.93ZM297.515 1955.16L306.093 1960.27L305.069 1961.98L296.492 1956.87L297.515 1955.16ZM314.671 1965.38L323.248 1970.49L322.224 1972.21L313.647 1967.1L314.671 1965.38ZM331.826 1975.6L340.403 1980.71L339.379 1982.43L330.802 1977.32L331.826 1975.6ZM348.981 1985.82L357.558 1990.93L356.535 1992.65L347.957 1987.54L348.981 1985.82ZM366.136 1996.04L374.714 2001.15L373.69 2002.87L365.112 1997.76L366.136 1996.04ZM383.291 2006.27L391.869 2011.38L390.845 2013.09L382.267 2007.98L383.291 2006.27ZM400.446 2016.49L409.024 2021.6L408 2023.32L399.423 2018.21L400.446 2016.49ZM417.601 2026.71L426.179 2031.82L425.155 2033.54L416.578 2028.43L417.601 2026.71ZM434.757 2036.93L443.334 2042.04L442.31 2043.76L433.733 2038.65L434.757 2036.93ZM451.912 2047.15L460.489 2052.27L459.466 2053.98L450.888 2048.87L451.912 2047.15ZM469.067 2057.38L477.644 2062.49L476.621 2064.21L468.043 2059.09L469.067 2057.38ZM486.222 2067.6L494.8 2072.71L493.776 2074.43L485.198 2069.32L486.222 2067.6ZM503.377 2077.82L511.955 2082.93L510.931 2084.65L502.353 2079.54L503.377 2077.82ZM520.532 2088.04L529.11 2093.15L528.086 2094.87L519.509 2089.76L520.532 2088.04ZM537.688 2098.26L546.265 2103.38L545.241 2105.09L536.664 2099.98L537.688 2098.26ZM554.843 2108.49L563.42 2113.6L562.397 2115.32L553.819 2110.2L554.843 2108.49ZM571.998 2118.71L580.575 2123.82L579.552 2125.54L570.974 2120.43L571.998 2118.71ZM589.153 2128.93L597.731 2134.04L596.707 2135.76L588.129 2130.65L589.153 2128.93ZM606.308 2139.15L614.886 2144.26L613.862 2145.98L605.284 2140.87L606.308 2139.15ZM623.463 2149.37L632.041 2154.49L631.017 2156.2L622.44 2151.09L623.463 2149.37ZM640.619 2159.6L649.196 2164.71L648.172 2166.43L639.595 2161.31L640.619 2159.6ZM657.774 2169.82L666.351 2174.93L665.327 2176.65L656.75 2171.54L657.774 2169.82ZM674.929 2180.04L683.506 2185.15L682.483 2186.87L673.905 2181.76L674.929 2180.04ZM692.084 2190.26L696.373 2192.82L695.349 2194.54L691.06 2191.98L692.084 2190.26ZM696.855 2193.79L696.302 2198.7L694.314 2198.48L694.867 2193.57L696.855 2193.79ZM695.196 2208.52L694.09 2218.34L692.102 2218.12L693.208 2208.3L695.196 2208.52ZM692.984 2228.16L691.878 2237.98L689.89 2237.76L690.996 2227.94L692.984 2228.16ZM690.772 2247.81L689.666 2257.63L687.678 2257.4L688.784 2247.58L690.772 2247.81ZM688.56 2267.45L687.454 2277.27L685.466 2277.05L686.572 2267.22L688.56 2267.45ZM686.348 2287.09L685.242 2296.91L683.254 2296.69L684.36 2286.87L686.348 2287.09ZM684.136 2306.73L683.03 2316.55L681.042 2316.33L682.148 2306.51L684.136 2306.73ZM681.924 2326.38L680.818 2336.2L678.83 2335.97L679.936 2326.15L681.924 2326.38ZM679.712 2346.02L678.606 2355.84L676.618 2355.62L677.724 2345.79L679.712 2346.02ZM677.5 2365.66L676.394 2375.48L674.406 2375.26L675.512 2365.44L677.5 2365.66ZM675.288 2385.3L674.182 2395.12L672.194 2394.9L673.3 2385.08L675.288 2385.3ZM673.076 2404.95L671.97 2414.77L669.982 2414.54L671.088 2404.72L673.076 2404.95ZM670.864 2424.59L669.758 2434.41L667.77 2434.19L668.876 2424.36L670.864 2424.59ZM668.652 2444.23L667.546 2454.05L665.558 2453.83L666.664 2444.01L668.652 2444.23ZM666.44 2463.87L665.334 2473.69L663.346 2473.47L664.452 2463.65L666.44 2463.87ZM664.228 2483.52L663.122 2493.34L661.134 2493.11L662.24 2483.29L664.228 2483.52ZM662.016 2503.16L660.91 2512.98L658.922 2512.75L660.028 2502.93L662.016 2503.16ZM659.804 2522.8L658.698 2532.62L656.71 2532.4L657.816 2522.58L659.804 2522.8ZM657.592 2542.44L656.486 2552.26L654.498 2552.04L655.604 2542.22L657.592 2542.44ZM655.38 2562.08L654.274 2571.91L652.286 2571.68L653.392 2561.86L655.38 2562.08ZM653.168 2581.73L652.062 2591.55L650.074 2591.32L651.18 2581.5L653.168 2581.73ZM650.956 2601.37L649.85 2611.19L647.862 2610.97L648.968 2601.15L650.956 2601.37ZM648.744 2621.01L647.638 2630.83L645.65 2630.61L646.756 2620.79L648.744 2621.01ZM646.532 2640.65L645.426 2650.48L643.438 2650.25L644.544 2640.43L646.532 2640.65ZM644.32 2660.3L643.214 2670.12L641.227 2669.89L642.333 2660.07L644.32 2660.3ZM642.108 2679.94L641.002 2689.76L639.015 2689.54L640.121 2679.72L642.108 2679.94ZM639.896 2699.58L638.79 2709.4L636.803 2709.18L637.909 2699.36L639.896 2699.58ZM637.684 2719.22L636.578 2729.05L634.591 2728.82L635.697 2719L637.684 2719.22ZM635.472 2738.87L634.366 2748.69L632.379 2748.46L633.485 2738.64L635.472 2738.87ZM633.26 2758.51L632.154 2768.33L630.167 2768.11L631.273 2758.29L633.26 2758.51ZM631.048 2778.15L629.942 2787.97L627.955 2787.75L629.061 2777.93L631.048 2778.15ZM628.836 2797.79L628.283 2802.7L626.296 2802.48L626.849 2797.57L628.836 2797.79ZM627.996 2803.3L624.452 2806.84L623.038 2805.43L626.582 2801.89L627.996 2803.3ZM617.363 2813.93L610.274 2821.01L608.86 2819.6L615.949 2812.51L617.363 2813.93ZM603.185 2828.1L596.096 2835.19L594.683 2833.77L601.771 2826.69L603.185 2828.1ZM589.008 2842.27L581.919 2849.36L580.505 2847.94L587.594 2840.86L589.008 2842.27ZM574.83 2856.44L567.741 2863.53L566.327 2862.12L573.416 2855.03L574.83 2856.44ZM560.652 2870.62L553.563 2877.7L552.149 2876.29L559.238 2869.2L560.652 2870.62ZM546.474 2884.79L539.386 2891.87L537.972 2890.46L545.061 2883.37L546.474 2884.79ZM532.297 2898.96L525.208 2906.05L523.794 2904.63L530.883 2897.54L532.297 2898.96ZM518.119 2913.13L511.03 2920.22L509.616 2918.8L516.705 2911.72L518.119 2913.13ZM503.941 2927.3L496.852 2934.39L495.438 2932.97L502.527 2925.89L503.941 2927.3ZM489.764 2941.47L482.675 2948.56L481.261 2947.15L488.35 2940.06L489.764 2941.47ZM475.586 2955.65L468.497 2962.73L467.083 2961.32L474.172 2954.23L475.586 2955.65ZM461.408 2969.82L454.319 2976.9L452.905 2975.49L459.994 2968.4L461.408 2969.82ZM447.23 2983.99L440.141 2991.08L438.728 2989.66L445.816 2982.58L447.23 2983.99ZM433.053 2998.16L425.964 3005.25L424.55 3003.83L431.639 2996.75L433.053 2998.16ZM418.875 3012.33L411.786 3019.42L410.372 3018.01L417.461 3010.92L418.875 3012.33ZM404.697 3026.51L397.608 3033.59L396.194 3032.18L403.283 3025.09L404.697 3026.51ZM390.519 3040.68L383.431 3047.76L382.017 3046.35L389.106 3039.26L390.519 3040.68ZM376.342 3054.85L369.253 3061.94L367.839 3060.52L374.928 3053.43L376.342 3054.85ZM362.164 3069.02L355.075 3076.11L353.661 3074.69L360.75 3067.61L362.164 3069.02ZM347.986 3083.19L340.897 3090.28L339.483 3088.86L346.572 3081.78L347.986 3083.19ZM333.809 3097.36L326.72 3104.45L325.306 3103.04L332.395 3095.95L333.809 3097.36ZM319.631 3111.54L312.542 3118.62L311.128 3117.21L318.217 3110.12L319.631 3111.54ZM305.453 3125.71L298.364 3132.79L296.95 3131.38L304.039 3124.29L305.453 3125.71ZM291.275 3139.88L284.186 3146.97L282.773 3145.55L289.861 3138.47L291.275 3139.88ZM277.098 3154.05L270.009 3161.14L268.595 3159.72L275.684 3152.64L277.098 3154.05ZM262.92 3168.22L255.831 3175.31L254.417 3173.89L261.506 3166.81L262.92 3168.22ZM248.742 3182.4L241.653 3189.48L240.239 3188.07L247.328 3180.98L248.742 3182.4ZM234.564 3196.57L227.476 3203.65L226.062 3202.24L233.151 3195.15L234.564 3196.57ZM220.387 3210.74L213.298 3217.82L211.884 3216.41L218.973 3209.32L220.387 3210.74ZM206.209 3224.91L199.12 3232L197.706 3230.58L204.795 3223.5L206.209 3224.91ZM192.031 3239.08L184.942 3246.17L183.528 3244.75L190.617 3237.67L192.031 3239.08ZM177.854 3253.25L170.765 3260.34L169.351 3258.93L176.44 3251.84L177.854 3253.25ZM163.676 3267.43L156.587 3274.51L155.173 3273.1L162.262 3266.01L163.676 3267.43ZM149.498 3281.6L142.409 3288.68L140.995 3287.27L148.084 3280.18L149.498 3281.6ZM135.32 3295.77L128.231 3302.86L126.818 3301.44L133.906 3294.36L135.32 3295.77ZM121.143 3309.94L114.054 3317.03L112.64 3315.61L119.729 3308.53L121.143 3309.94ZM106.965 3324.11L99.876 3331.2L98.4621 3329.78L105.551 3322.7L106.965 3324.11ZM92.7872 3338.29L85.6983 3345.37L84.2844 3343.96L91.3733 3336.87L92.7872 3338.29ZM78.6094 3352.46L71.5206 3359.54L70.1067 3358.13L77.1955 3351.04L78.6094 3352.46ZM64.4317 3366.63L57.3429 3373.71L55.9289 3372.3L63.0178 3365.21L64.4317 3366.63ZM50.254 3380.8L43.1651 3387.89L41.7512 3386.47L48.8401 3379.39L50.254 3380.8ZM36.0763 3394.97L28.9874 3402.06L27.5735 3400.64L34.6623 3393.56L36.0763 3394.97ZM21.8985 3409.14L18.3544 3412.69L16.9404 3411.27L20.4846 3407.73L21.8985 3409.14ZM18.6169 3411.73L19.8673 3416.68L17.9282 3417.17L16.6779 3412.22L18.6169 3411.73ZM22.368 3426.58L24.8687 3436.48L22.9297 3436.97L20.4289 3427.07L22.368 3426.58ZM27.3694 3446.37L29.8701 3456.27L27.9311 3456.76L25.4304 3446.86L27.3694 3446.37ZM32.3708 3466.16L34.8716 3476.06L32.9325 3476.55L30.4318 3466.65L32.3708 3466.16ZM37.3723 3485.96L39.873 3495.85L37.9339 3496.34L35.4332 3486.45L37.3723 3485.96ZM42.3737 3505.75L44.8744 3515.65L42.9354 3516.14L40.4346 3506.24L42.3737 3505.75ZM47.3751 3525.54L49.8758 3535.44L47.9368 3535.93L45.4361 3526.03L47.3751 3525.54ZM52.3765 3545.34L54.8773 3555.23L52.9382 3555.72L50.4375 3545.83L52.3765 3545.34ZM57.378 3565.13L59.8787 3575.03L57.9396 3575.52L55.4389 3565.62L57.378 3565.13ZM62.3794 3584.92L64.8801 3594.82L62.9411 3595.31L60.4403 3585.41L62.3794 3584.92ZM67.3808 3604.71L69.8815 3614.61L67.9425 3615.1L65.4418 3605.2L67.3808 3604.71ZM72.3822 3624.51L74.883 3634.4L72.9439 3634.89L70.4432 3625L72.3822 3624.51ZM77.3837 3644.3L79.8844 3654.2L77.9453 3654.69L75.4446 3644.79L77.3837 3644.3ZM82.3851 3664.09L84.8858 3673.99L82.9468 3674.48L80.446 3664.58L82.3851 3664.09ZM87.3865 3683.89L89.8872 3693.78L87.9482 3694.27L85.4475 3684.38L87.3865 3683.89ZM92.3879 3703.68L94.8886 3713.57L92.9496 3714.06L90.4489 3704.17L92.3879 3703.68ZM97.3894 3723.47L99.8901 3733.37L97.951 3733.86L95.4503 3723.96L97.3894 3723.47ZM102.391 3743.26L103.641 3748.21L101.702 3748.7L100.452 3743.75L102.391 3743.26ZM103.056 3747.53L107.737 3749.48L106.968 3751.33L102.287 3749.38L103.056 3747.53ZM117.098 3753.38L126.459 3757.28L125.69 3759.13L116.329 3755.23L117.098 3753.38ZM135.82 3761.18L145.181 3765.08L144.412 3766.93L135.051 3763.03L135.82 3761.18ZM154.542 3768.98L163.903 3772.88L163.134 3774.72L153.773 3770.82L154.542 3768.98ZM173.264 3776.78L182.625 3780.68L181.856 3782.52L172.495 3778.62L173.264 3776.78ZM191.986 3784.57L201.348 3788.47L200.579 3790.32L191.218 3786.42L191.986 3784.57ZM210.709 3792.37L220.07 3796.27L219.301 3798.12L209.94 3794.22L210.709 3792.37ZM229.431 3800.17L238.792 3804.07L238.023 3805.92L228.662 3802.02L229.431 3800.17ZM248.153 3807.97L257.514 3811.87L256.745 3813.71L247.384 3809.82L248.153 3807.97ZM266.875 3815.77L276.236 3819.67L275.467 3821.51L266.106 3817.61L266.875 3815.77ZM285.597 3823.56L294.958 3827.46L294.189 3829.31L284.828 3825.41L285.597 3823.56ZM304.32 3831.36L313.681 3835.26L312.912 3837.11L303.551 3833.21L304.32 3831.36ZM323.042 3839.16L332.403 3843.06L331.634 3844.91L322.273 3841.01L323.042 3839.16ZM341.764 3846.96L351.125 3850.86L350.356 3852.7L340.995 3848.81L341.764 3846.96ZM360.486 3854.76L369.847 3858.66L369.078 3860.5L359.717 3856.6L360.486 3854.76ZM379.208 3862.56L388.569 3866.45L387.8 3868.3L378.439 3864.4L379.208 3862.56ZM397.93 3870.35L407.291 3874.25L406.522 3876.1L397.161 3872.2L397.93 3870.35ZM416.653 3878.15L426.014 3882.05L425.245 3883.9L415.884 3880L416.653 3878.15ZM435.375 3885.95L444.736 3889.85L443.967 3891.69L434.606 3887.8L435.375 3885.95ZM454.097 3893.75L463.458 3897.65L462.689 3899.49L453.328 3895.59L454.097 3893.75ZM472.819 3901.55L482.18 3905.44L481.411 3907.29L472.05 3903.39L472.819 3901.55ZM491.541 3909.34L500.902 3913.24L500.133 3915.09L490.772 3911.19L491.541 3909.34ZM510.263 3917.14L519.624 3921.04L518.855 3922.89L509.494 3918.99L510.263 3917.14ZM528.986 3924.94L538.347 3928.84L537.578 3930.68L528.217 3926.79L528.986 3924.94ZM547.708 3932.74L557.069 3936.64L556.3 3938.48L546.939 3934.58L547.708 3932.74ZM566.43 3940.54L571.111 3942.49L570.342 3944.33L565.661 3942.38L566.43 3940.54ZM571.682 3943.11L573.18 3947.97L571.269 3948.56L569.771 3943.7L571.682 3943.11ZM576.176 3957.69L579.172 3967.41L577.261 3968L574.265 3958.28L576.176 3957.69ZM582.169 3977.12L585.165 3986.84L583.254 3987.43L580.257 3977.71L582.169 3977.12ZM588.161 3996.56L591.157 4006.28L589.246 4006.87L586.25 3997.15L588.161 3996.56ZM594.153 4015.99L597.15 4025.71L595.238 4026.3L592.242 4016.58L594.153 4015.99ZM600.146 4035.43L603.142 4045.15L601.231 4045.74L598.235 4036.02L600.146 4035.43ZM606.138 4054.86L609.134 4064.58L607.223 4065.17L604.227 4055.45L606.138 4054.86ZM612.131 4074.3L615.127 4084.02L613.216 4084.61L610.219 4074.89L612.131 4074.3ZM618.123 4093.73L621.119 4103.45L619.208 4104.04L616.212 4094.32L618.123 4093.73ZM624.116 4113.17L627.112 4122.89L625.201 4123.48L622.204 4113.76L624.116 4113.17ZM630.108 4132.6L633.104 4142.32L631.193 4142.91L628.197 4133.19L630.108 4132.6ZM636.1 4152.04L639.097 4161.76L637.185 4162.35L634.189 4152.63L636.1 4152.04ZM642.093 4171.47L645.089 4181.19L643.178 4181.78L640.182 4172.06L642.093 4171.47ZM648.085 4190.91L651.082 4200.63L649.17 4201.22L646.174 4191.5L648.085 4190.91ZM654.078 4210.34L657.074 4220.06L655.163 4220.65L652.167 4210.93L654.078 4210.34ZM660.07 4229.78L663.066 4239.5L661.155 4240.09L658.159 4230.37L660.07 4229.78ZM666.063 4249.21L669.059 4258.93L667.148 4259.52L664.151 4249.8L666.063 4249.21ZM672.055 4268.65L675.051 4278.37L673.14 4278.96L670.144 4269.24L672.055 4268.65ZM678.048 4288.08L681.044 4297.8L679.133 4298.39L676.136 4288.67L678.048 4288.08ZM684.04 4307.52L687.036 4317.24L685.125 4317.83L682.129 4308.11L684.04 4307.52ZM690.032 4326.95L693.029 4336.67L691.117 4337.26L688.121 4327.54L690.032 4326.95ZM696.025 4346.39L699.021 4356.11L697.11 4356.69L694.114 4346.98L696.025 4346.39ZM702.017 4365.82L703.515 4370.68L701.604 4371.27L700.106 4366.41L702.017 4365.82Z" fill="#C6A1FA"/>
<circle cx="19.5192" cy="19.5192" r="16.5192" transform="matrix(-1 0 0 1 819.329 0.00390625)" fill="#0C041B" stroke="#B092E7" stroke-width="6"/>
<circle cx="19.5192" cy="19.5192" r="16.5192" transform="matrix(-1 0 0 1 652.33 297.143)" fill="#0C041B" stroke="#B092E7" stroke-width="6"/>
<circle cx="19.5192" cy="19.5192" r="16.5192" transform="matrix(-1 0 0 1 649.71 667.48)" fill="#0C041B" stroke="#B092E7" stroke-width="6"/>
<circle cx="19.5192" cy="19.5192" r="16.5192" transform="matrix(-1 0 0 1 107.49 1172.21)" fill="#0C041B" stroke="#B092E7" stroke-width="6"/>
<circle cx="19.5192" cy="19.5192" r="16.5192" transform="matrix(-1 0 0 1 141.71 1491.79)" fill="#0C041B" stroke="#B092E7" stroke-width="6"/>
<circle cx="19.5192" cy="19.5192" r="16.5192" transform="matrix(-1 0 0 1 80.6396 1795.15)" fill="#0C041B" stroke="#B092E7" stroke-width="6"/>
<circle cx="19.5192" cy="19.5192" r="16.5192" transform="matrix(-1 0 0 1 717.329 2177.46)" fill="#0C041B" stroke="#B092E7" stroke-width="6"/>
<circle cx="19.5192" cy="19.5192" r="16.5192" transform="matrix(-1 0 0 1 644.692 2783.43)" fill="#0C041B" stroke="#B092E7" stroke-width="6"/>
<circle cx="19.5192" cy="19.5192" r="16.5192" transform="matrix(-1 0 0 1 723.191 4355.55)" fill="#0C041B" stroke="#B092E7" stroke-width="6"/>
<circle cx="19.5192" cy="19.5192" r="16.5192" transform="matrix(-1 0 0 1 122.672 3728.33)" fill="#0C041B" stroke="#B092E7" stroke-width="6"/>
<circle cx="19.5192" cy="19.5192" r="16.5192" transform="matrix(-1 0 0 1 587.768 3923.1)" fill="#0C041B" stroke="#B092E7" stroke-width="6"/>
<circle cx="19.5192" cy="19.5192" r="16.5192" transform="matrix(-1 0 0 1 39.71 3390.14)" fill="#0C041B" stroke="#B092E7" stroke-width="6"/>
<path d="M645.99 4432.63H642.77L635.479 4421.61V4432.63H632.259V4416.55H635.479L642.77 4427.59V4416.55H645.99V4432.63ZM654.83 4432.84C653.604 4432.84 652.5 4432.57 651.518 4432.03C650.537 4431.48 649.763 4430.7 649.195 4429.71C648.643 4428.71 648.367 4427.56 648.367 4426.26C648.367 4424.95 648.651 4423.8 649.218 4422.81C649.801 4421.81 650.591 4421.04 651.587 4420.51C652.584 4419.96 653.696 4419.68 654.922 4419.68C656.149 4419.68 657.261 4419.96 658.257 4420.51C659.254 4421.04 660.036 4421.81 660.603 4422.81C661.186 4423.8 661.477 4424.95 661.477 4426.26C661.477 4427.56 661.178 4428.71 660.58 4429.71C659.998 4430.7 659.2 4431.48 658.188 4432.03C657.192 4432.57 656.072 4432.84 654.83 4432.84ZM654.83 4430.03C655.413 4430.03 655.957 4429.89 656.463 4429.62C656.985 4429.32 657.399 4428.9 657.705 4428.33C658.012 4427.76 658.165 4427.07 658.165 4426.26C658.165 4425.05 657.843 4424.12 657.199 4423.47C656.571 4422.82 655.796 4422.49 654.876 4422.49C653.956 4422.49 653.182 4422.82 652.553 4423.47C651.94 4424.12 651.633 4425.05 651.633 4426.26C651.633 4427.47 651.932 4428.4 652.53 4429.06C653.144 4429.71 653.91 4430.03 654.83 4430.03ZM667.588 4422.53V4428.7C667.588 4429.13 667.688 4429.44 667.887 4429.64C668.102 4429.82 668.455 4429.91 668.945 4429.91H670.44V4432.63H668.416C665.702 4432.63 664.345 4431.31 664.345 4428.67V4422.53H662.827V4419.89H664.345V4416.74H667.588V4419.89H670.44V4422.53H667.588ZM689.162 4416.57V4419.17H684.884V4432.63H681.664V4419.17H677.386V4416.57H689.162ZM698.687 4419.7C699.653 4419.7 700.512 4419.92 701.263 4420.35C702.015 4420.76 702.597 4421.38 703.011 4422.21C703.441 4423.02 703.655 4424 703.655 4425.15V4432.63H700.435V4425.59C700.435 4424.58 700.182 4423.8 699.676 4423.27C699.17 4422.72 698.48 4422.44 697.606 4422.44C696.717 4422.44 696.012 4422.72 695.49 4423.27C694.984 4423.8 694.731 4424.58 694.731 4425.59V4432.63H691.511V4415.61H694.731V4421.47C695.145 4420.92 695.697 4420.49 696.387 4420.19C697.077 4419.86 697.844 4419.7 698.687 4419.7ZM718.562 4425.98C718.562 4426.44 718.532 4426.86 718.47 4427.22H709.155C709.232 4428.14 709.554 4428.86 710.121 4429.39C710.689 4429.91 711.386 4430.17 712.214 4430.17C713.41 4430.17 714.261 4429.65 714.767 4428.63H718.24C717.872 4429.85 717.167 4430.87 716.124 4431.66C715.082 4432.44 713.801 4432.84 712.283 4432.84C711.057 4432.84 709.953 4432.57 708.971 4432.03C708.005 4431.48 707.246 4430.7 706.694 4429.71C706.158 4428.71 705.889 4427.56 705.889 4426.26C705.889 4424.94 706.158 4423.78 706.694 4422.78C707.231 4421.79 707.982 4421.02 708.948 4420.48C709.914 4419.95 711.026 4419.68 712.283 4419.68C713.495 4419.68 714.576 4419.94 715.526 4420.46C716.492 4420.98 717.236 4421.73 717.757 4422.69C718.294 4423.64 718.562 4424.74 718.562 4425.98ZM715.227 4425.06C715.212 4424.23 714.913 4423.57 714.33 4423.08C713.748 4422.58 713.035 4422.32 712.191 4422.32C711.394 4422.32 710.719 4422.57 710.167 4423.06C709.631 4423.54 709.301 4424.2 709.178 4425.06H715.227ZM729.613 4419.17V4423.2H735.018V4425.75H729.613V4430.01H735.708V4432.63H726.393V4416.55H735.708V4419.17H729.613ZM745.695 4419.7C747.213 4419.7 748.44 4420.19 749.375 4421.15C750.311 4422.1 750.778 4423.44 750.778 4425.15V4432.63H747.558V4425.59C747.558 4424.58 747.305 4423.8 746.799 4423.27C746.293 4422.72 745.603 4422.44 744.729 4422.44C743.84 4422.44 743.135 4422.72 742.613 4423.27C742.107 4423.8 741.854 4424.58 741.854 4425.59V4432.63H738.634V4419.89H741.854V4421.47C742.284 4420.92 742.828 4420.49 743.487 4420.19C744.162 4419.86 744.898 4419.7 745.695 4419.7ZM753.012 4426.21C753.012 4424.92 753.265 4423.78 753.771 4422.78C754.293 4421.79 754.998 4421.02 755.887 4420.48C756.777 4419.95 757.766 4419.68 758.854 4419.68C759.682 4419.68 760.472 4419.86 761.223 4420.23C761.975 4420.58 762.573 4421.06 763.017 4421.66V4415.61H766.283V4432.63H763.017V4430.74C762.619 4431.37 762.059 4431.88 761.338 4432.26C760.618 4432.64 759.782 4432.84 758.831 4432.84C757.758 4432.84 756.777 4432.56 755.887 4432.01C754.998 4431.46 754.293 4430.68 753.771 4429.68C753.265 4428.67 753.012 4427.52 753.012 4426.21ZM763.04 4426.26C763.04 4425.48 762.887 4424.81 762.58 4424.26C762.274 4423.69 761.86 4423.26 761.338 4422.97C760.817 4422.66 760.257 4422.51 759.659 4422.51C759.061 4422.51 758.509 4422.65 758.003 4422.95C757.497 4423.24 757.083 4423.67 756.761 4424.23C756.455 4424.79 756.301 4425.45 756.301 4426.21C756.301 4426.98 756.455 4427.65 756.761 4428.24C757.083 4428.8 757.497 4429.24 758.003 4429.55C758.525 4429.85 759.077 4430.01 759.659 4430.01C760.257 4430.01 760.817 4429.86 761.338 4429.57C761.86 4429.26 762.274 4428.83 762.58 4428.28C762.887 4427.71 763.04 4427.04 763.04 4426.26ZM773.591 4416.3L773.223 4427.41H770.509L770.118 4416.3H773.591ZM771.935 4432.79C771.353 4432.79 770.87 4432.61 770.486 4432.26C770.118 4431.89 769.934 4431.44 769.934 4430.9C769.934 4430.37 770.118 4429.92 770.486 4429.57C770.87 4429.2 771.353 4429.02 771.935 4429.02C772.503 4429.02 772.97 4429.2 773.338 4429.57C773.706 4429.92 773.89 4430.37 773.89 4430.9C773.89 4431.44 773.706 4431.89 773.338 4432.26C772.97 4432.61 772.503 4432.79 771.935 4432.79Z" fill="white"/>
</svg>
