<svg width="66" height="66" viewBox="0 0 66 66" fill="none" xmlns="http://www.w3.org/2000/svg">
<circle cx="32.5664" cy="33.2251" r="32.15" fill="#130728" fill-opacity="0.44" stroke="url(#paint0_linear_1_23863)" stroke-width="0.7"/>
<path fill-rule="evenodd" clip-rule="evenodd" d="M32.5664 17.6719L48.0664 22.8029V33.1252C48.0664 39.1759 44.1569 43.8312 40.454 46.8956C38.5852 48.4422 36.7216 49.6241 35.3273 50.419C34.6291 50.8171 34.0456 51.1197 33.6342 51.324C33.4284 51.4262 33.2655 51.5039 33.1525 51.5567C33.096 51.583 33.0519 51.6032 33.0213 51.6171L32.9854 51.6333L32.9752 51.6379L32.9709 51.6398C32.9705 51.6399 32.9702 51.6401 32.5664 50.7252C32.1626 51.6401 32.1623 51.6399 32.1619 51.6398L32.1576 51.6379L32.1474 51.6333L32.1115 51.6171C32.0809 51.6032 32.0368 51.583 31.9803 51.5567C31.8673 51.5039 31.7044 51.4262 31.4986 51.324C31.0872 51.1197 30.5038 50.8171 29.8055 50.419C28.4113 49.6241 26.5476 48.4422 24.6788 46.8956C20.9759 43.8312 17.0664 39.1759 17.0664 33.1252V22.8029L32.5664 17.6719ZM32.5664 50.7252L32.1619 51.6398L32.5664 51.8183L32.9709 51.6398L32.5664 50.7252ZM32.5664 49.6203C32.6209 49.5939 32.6804 49.5646 32.7447 49.5327C33.1263 49.3432 33.6756 49.0584 34.3368 48.6815C35.6613 47.9264 37.4226 46.8083 39.1788 45.3548C42.7259 42.4193 46.0664 38.2746 46.0664 33.1252V24.2476L32.5664 19.7786L19.0664 24.2476V33.1252C19.0664 38.2746 22.4069 42.4193 25.954 45.3548C27.7102 46.8083 29.4716 47.9264 30.7961 48.6815C31.4572 49.0584 32.0065 49.3432 32.3881 49.5327C32.4524 49.5646 32.5119 49.5939 32.5664 49.6203ZM31.5664 27.4111C30.7187 27.5577 29.9135 27.8893 29.2093 28.382L26.8266 26.0157L25.4173 27.4348L27.7919 29.793C27.3 30.4897 26.9681 31.2862 26.8204 32.1252H22.8997V34.1252H26.8204C26.9681 34.9643 27.3 35.7608 27.7919 36.4575L25.4173 38.8157L26.8266 40.2348L29.2093 37.8685C29.9135 38.3612 30.7187 38.6927 31.5664 38.8394V42.7252H33.5664V38.8394C33.9872 38.7666 34.3998 38.6478 34.7965 38.4847C35.1947 38.3209 35.5725 38.114 35.9235 37.8685L38.3062 40.2348L39.7155 38.8157L37.3409 36.4575C37.5851 36.1117 37.7911 35.7394 37.9548 35.3471C38.1191 34.9532 38.2388 34.5434 38.3124 34.1252H42.2331V32.1252H38.3124C38.2388 31.7071 38.1191 31.2973 37.9548 30.9034C37.7911 30.5111 37.5851 30.1388 37.3409 29.793L39.7155 27.4348L38.3062 26.0157L35.9235 28.382C35.5725 28.1364 35.1947 27.9296 34.7965 27.7658C34.3998 27.6026 33.9872 27.4839 33.5664 27.4111V23.5252H31.5664V27.4111ZM32.5664 29.3252C31.5475 29.3252 30.5717 29.7273 29.8534 30.4407C29.1352 31.1539 28.7331 32.1197 28.7331 33.1252C28.7331 34.1308 29.1352 35.0966 29.8534 35.8098C30.5717 36.5232 31.5475 36.9252 32.5664 36.9252C33.0708 36.9252 33.57 36.8266 34.0356 36.6351C34.5012 36.4435 34.9238 36.163 35.2794 35.8098C35.6351 35.4566 35.9168 35.0377 36.1089 34.5772C36.301 34.1166 36.3997 33.6233 36.3997 33.1252C36.3997 32.6272 36.301 32.1338 36.1089 31.6733C35.9168 31.2128 35.6351 30.7939 35.2794 30.4407C34.9238 30.0875 34.5012 29.807 34.0356 29.6154C33.57 29.4239 33.0708 29.3252 32.5664 29.3252Z" fill="#8B72D8"/>
<defs>
<linearGradient id="paint0_linear_1_23863" x1="32.5664" y1="0.725098" x2="32.5664" y2="69.6061" gradientUnits="userSpaceOnUse">
<stop stop-color="#5F4B9E" stop-opacity="0.43"/>
<stop offset="0.804651" stop-color="white" stop-opacity="0"/>
</linearGradient>
</defs>
</svg>
