<svg width="66" height="66" viewBox="0 0 66 66" fill="none" xmlns="http://www.w3.org/2000/svg">
<circle cx="33.4224" cy="33.1235" r="32.15" fill="url(#paint0_radial_115_75)" stroke="url(#paint1_linear_115_75)" stroke-width="0.7"/>
<path d="M33.4224 37.701C34.0571 37.701 34.6856 37.5768 35.272 37.3356C35.8584 37.0944 36.3912 36.7408 36.84 36.2951C37.2889 35.8494 37.6449 35.3202 37.8878 34.7379C38.1307 34.1555 38.2557 33.5313 38.2557 32.901M33.4224 37.701C32.1405 37.701 30.9111 37.1953 30.0047 36.2951C29.0983 35.3949 28.589 34.174 28.589 32.901M33.4224 37.701V42.501M38.2557 32.901C38.2557 32.2706 38.1307 31.6465 37.8878 31.0641C37.6449 30.4817 37.2889 29.9526 36.84 29.5069C36.3912 29.0611 35.8584 28.7076 35.272 28.4664C34.6856 28.2251 34.0571 28.101 33.4224 28.101M38.2557 32.901H43.089M33.4224 28.101C32.1405 28.101 30.9111 28.6067 30.0047 29.5069C29.0983 30.407 28.589 31.6279 28.589 32.901M33.4224 28.101V23.301M28.589 32.901H23.7557M26.9779 26.501L30.2001 29.701M36.6446 36.101L39.8668 39.301M39.8668 26.501L36.6446 29.701M30.2001 36.101L26.9779 39.301M33.4224 50.501C33.4224 50.501 18.9224 44.101 18.9224 32.901V23.301L33.4224 18.501L47.9224 23.301V32.901C47.9224 44.101 33.4224 50.501 33.4224 50.501Z" stroke="#8B72D8" stroke-width="2"/>
<defs>
<radialGradient id="paint0_radial_115_75" cx="0" cy="0" r="1" gradientUnits="userSpaceOnUse" gradientTransform="translate(32.2179 70.218) rotate(-90.2152) scale(93.2464 84.8004)">
<stop stop-color="#2C1459"/>
<stop offset="0.151546" stop-color="#1E0E3D"/>
<stop offset="0.448217" stop-color="#0C041B"/>
</radialGradient>
<linearGradient id="paint1_linear_115_75" x1="33.4224" y1="0.623535" x2="33.4224" y2="69.5046" gradientUnits="userSpaceOnUse">
<stop offset="0.17413" stop-color="#2E1D63"/>
<stop offset="0.804651" stop-opacity="0"/>
</linearGradient>
</defs>
</svg>
