<svg width="66" height="66" viewBox="0 0 66 66" fill="none" xmlns="http://www.w3.org/2000/svg">
<circle cx="33.4224" cy="33.4009" r="32.15" fill="url(#paint0_radial_115_65)" stroke="url(#paint1_linear_115_65)" stroke-width="0.7"/>
<path d="M18.8047 45.3267V30.8139C18.8047 29.9797 19.0922 29.268 19.6671 28.6791C20.2421 28.0913 20.9382 27.7975 21.7556 27.7975H27.9406V21.475C27.9406 20.6407 28.2281 19.9291 28.8031 19.3401C29.378 18.7524 30.0742 18.4585 30.8915 18.4585H45.0888C45.9049 18.4585 46.6011 18.7524 47.1773 19.3401C47.7522 19.9278 48.0397 20.6395 48.0397 21.475V45.3267C48.0397 46.161 47.7522 46.8726 47.1773 47.4616C46.6023 48.0493 45.9061 48.3432 45.0888 48.3432H21.7556C20.9395 48.3432 20.2433 48.0493 19.6671 47.4616C19.0922 46.8738 18.8047 46.1622 18.8047 45.3267ZM40.0275 46.4754H45.0888C45.4165 46.4754 45.6857 46.3677 45.8964 46.1522C46.1071 45.9368 46.2125 45.6616 46.2125 45.3267V21.475C46.2125 21.14 46.1071 20.8648 45.8964 20.6494C45.6857 20.434 45.4165 20.3263 45.0888 20.3263H30.8915C30.5639 20.3263 30.2947 20.434 30.0839 20.6494C29.8732 20.8648 29.7678 21.14 29.7678 21.475V27.7975H35.9528C36.769 27.7975 37.4651 28.0913 38.0413 28.6791C38.6163 29.2668 38.9038 29.9784 38.9038 30.8139V45.3267C38.9038 45.6616 39.0091 45.9368 39.2199 46.1522C39.4306 46.3677 39.6998 46.4754 40.0275 46.4754ZM29.7678 46.4754H37.0766V30.8139C37.0766 30.479 36.9712 30.2038 36.7605 29.9884C36.5497 29.773 36.2805 29.6652 35.9528 29.6652H29.7678V46.4754ZM21.7556 46.4754H27.9406V29.6652H21.7556C21.4279 29.6652 21.1587 29.773 20.948 29.9884C20.7372 30.2038 20.6319 30.479 20.6319 30.8139V45.3267C20.6319 45.6616 20.7372 45.9368 20.948 46.1522C21.1587 46.3677 21.4279 46.4754 21.7556 46.4754Z" fill="#8B72D8"/>
<defs>
<radialGradient id="paint0_radial_115_65" cx="0" cy="0" r="1" gradientUnits="userSpaceOnUse" gradientTransform="translate(32.2179 70.4953) rotate(-90.2152) scale(93.2464 84.8004)">
<stop stop-color="#2C1459"/>
<stop offset="0.151546" stop-color="#1E0E3D"/>
<stop offset="0.448217" stop-color="#0C041B"/>
</radialGradient>
<linearGradient id="paint1_linear_115_65" x1="33.4224" y1="0.900879" x2="33.4224" y2="69.7819" gradientUnits="userSpaceOnUse">
<stop offset="0.17413" stop-color="#2E1D63"/>
<stop offset="0.804651" stop-opacity="0"/>
</linearGradient>
</defs>
</svg>
