<svg width="66" height="66" viewBox="0 0 66 66" fill="none" xmlns="http://www.w3.org/2000/svg">
<path d="M45.0572 34.4407C45.0572 37.0735 44.2764 39.6472 42.8137 41.8363C41.351 44.0254 39.272 45.7316 36.8396 46.7392C34.4072 47.7467 31.7306 48.0103 29.1484 47.4967C26.5661 46.983 24.1942 45.7152 22.3325 43.8535C20.4708 41.9918 19.203 39.6199 18.6894 37.0377C18.1757 34.4554 18.4394 31.7789 19.4469 29.3465C20.4544 26.9141 22.1606 24.8351 24.3497 23.3723C26.5389 21.9096 29.1126 21.1289 31.7454 21.1289M18.4336 34.4407H33.7932" stroke="#25A9CF" stroke-width="2" stroke-linecap="round" stroke-linejoin="round"/>
<path d="M31.7456 21.1279C28.67 24.9097 26.8767 29.5716 26.625 34.4397C26.8767 39.3078 28.67 43.9697 31.7456 47.7515C34.1564 44.7867 35.7898 41.2676 36.4979 37.5125" stroke="#25A9CF" stroke-width="2" stroke-linecap="round" stroke-linejoin="round"/>
<path d="M33.723 26.6905C32.9465 26.5574 32.9465 25.4392 33.723 25.3039C35.1023 25.0643 36.3789 24.4193 37.3901 23.4512C38.4012 22.4831 39.1011 21.2357 39.4005 19.8682L39.4449 19.653C39.6157 18.8831 40.7095 18.8765 40.887 19.6463L40.9424 19.8971C41.2533 21.2584 41.9595 22.4975 42.9724 23.4587C43.9853 24.4199 45.2597 25.0603 46.6354 25.2994C47.4164 25.4348 47.4164 26.5596 46.6354 26.6972C45.2597 26.9363 43.9853 27.5767 42.9724 28.5379C41.9595 29.4991 41.2533 30.7382 40.9424 32.0995L40.887 32.348C40.7095 33.1156 39.6157 33.1112 39.4449 32.3413L39.4005 32.1284C39.1011 30.7608 38.4012 29.5135 37.3901 28.5454C36.3789 27.5773 35.1023 26.9301 33.723 26.6905Z" stroke="#25A9CF" stroke-width="2" stroke-linecap="round" stroke-linejoin="round"/>
<circle cx="32.8281" cy="33.4126" r="32.15" fill="#130728" fill-opacity="0.31" stroke="url(#paint0_linear_55_75)" stroke-width="0.7"/>
<defs>
<linearGradient id="paint0_linear_55_75" x1="32.8281" y1="0.912598" x2="32.8281" y2="69.7936" gradientUnits="userSpaceOnUse">
<stop stop-color="#5F4B9E" stop-opacity="0.43"/>
<stop offset="0.804651" stop-color="white" stop-opacity="0"/>
</linearGradient>
</defs>
</svg>
