<svg xmlns="http://www.w3.org/2000/svg" width="257" height="269" viewBox="0 0 257 269" fill="none">
<path opacity="0.6" d="M88.9608 99.0304L30.6899 152.544L105.61 175.139L162.691 199.518L151.989 135.896L166.259 99.0304L128.204 81.1924L88.9608 99.0304Z" fill="#E697FF" stroke="#A155B9" stroke-width="2"/>
<path d="M28.6896 50.5886L128.204 2.66482L227.719 50.5886L252.297 158.272L183.431 244.628H72.9779L4.11147 158.272L28.6896 50.5886Z" stroke="#828282"/>
<path d="M49.1443 66.9013L128.204 28.8279L207.265 66.9013L226.791 152.451L172.08 221.057H84.3294L29.618 152.451L49.1443 66.9013Z" stroke="#828282"/>
<path d="M67.7391 81.7301L128.204 52.6116L188.669 81.7301L203.603 147.159L161.76 199.628H94.6486L52.8055 147.159L67.7391 81.7301Z" stroke="#828282"/>
<path d="M89.1236 98.7834L128.204 79.9632L167.285 98.7834L176.937 141.072L149.892 174.985H106.516L79.4714 141.072L89.1236 98.7834Z" stroke="#828282"/>
<path d="M108.648 114.354L128.204 104.936L147.76 114.354L152.59 135.515L139.057 152.485H117.352L103.819 135.515L108.648 114.354Z" stroke="#828282"/>
<path d="M4.52747 157.896L128.204 129.95L226.908 50.8677" stroke="#828282"/>
<path d="M183.882 244.853L129.149 130.479L30.1096 51.8186" stroke="#828282"/>
<path d="M129.118 3.19847L128.72 129.993L72.9808 243.525" stroke="#828282"/>
<path d="M128.799 130.544L251.881 158.49" stroke="#828282"/>
<path opacity="0.6" d="M71.1226 84.7593L128.204 3.89355L146.042 114.489L183.502 141.841L137.718 148.976L91.339 204.869L111.555 133.517L71.1226 84.7593Z" fill="#63ABFD" stroke="#165BAA" stroke-width="2"/>
<circle cx="128.204" cy="3.8939" r="2.973" fill="#165BAA"/>
<circle cx="71.1227" cy="84.7596" r="2.973" fill="#165BAA"/>
<circle cx="111.555" cy="133.517" r="2.973" fill="#165BAA"/>
<circle cx="91.3389" cy="204.869" r="2.973" fill="#165BAA"/>
<circle cx="137.718" cy="148.976" r="2.973" fill="#165BAA"/>
<circle cx="182.908" cy="141.841" r="2.973" fill="#165BAA"/>
<circle cx="146.042" cy="114.49" r="2.973" fill="#165BAA"/>
<circle cx="30.6897" cy="152.544" r="2.973" fill="#A155B9"/>
<circle cx="105.609" cy="175.139" r="2.973" fill="#A155B9"/>
<circle cx="162.691" cy="198.923" r="2.973" fill="#A155B9"/>
<circle cx="166.259" cy="99.0301" r="2.973" fill="#A155B9"/>
<circle cx="128.204" cy="30.056" r="2.973" fill="#F765A3"/>
<circle cx="207.881" cy="66.9217" r="2.973" fill="#F765A3"/>
<circle cx="203.124" cy="146.598" r="2.973" fill="#F765A3"/>
<circle cx="149.61" cy="173.95" r="2.973" fill="#F765A3"/>
<circle cx="151.988" cy="135.895" r="2.973" fill="#A155B9"/>
<circle cx="128.204" cy="81.1918" r="2.973" fill="#A155B9"/>
<circle cx="88.9606" cy="99.0301" r="2.973" fill="#A155B9"/>
<circle cx="149.61" cy="173.95" r="2.973" fill="#F765A3"/>
<circle cx="104.42" cy="134.706" r="2.973" fill="#F765A3"/>
<circle cx="48.5276" cy="66.9217" r="2.973" fill="#F765A3"/>
<circle cx="117.501" cy="152.544" r="2.973" fill="#F765A3"/>
<path opacity="0.6" d="M128.204 30.0566L48.5277 66.9219L104.42 134.706L117.501 152.544L149.61 173.95L203.124 146.598L207.881 66.9219L128.204 30.0566Z" fill="#FFA5CB" stroke="#F765A3" stroke-width="2"/>
<circle cx="48.5276" cy="66.9217" r="2.973" fill="#16BFD6"/>
<circle cx="4.5272" cy="157.301" r="2.973" fill="#16BFD6"/>
<circle cx="117.501" cy="152.544" r="2.973" fill="#16BFD6"/>
<circle cx="151.988" cy="137.085" r="2.973" fill="#16BFD6"/>
<circle cx="228.097" cy="51.4618" r="2.973" fill="#16BFD6"/>
<circle cx="128.204" cy="53.8407" r="2.973" fill="#16BFD6"/>
<path opacity="0.33" d="M4.52734 157.301L48.5278 66.9215L128.204 53.8403L228.097 51.4619L151.988 136.49L117.502 152.544L4.52734 157.301Z" fill="#8D7AFF" stroke="#16BFD6" stroke-width="2"/>
</svg>