<svg xmlns="http://www.w3.org/2000/svg" width="71" height="74" viewBox="0 0 71 74" fill="none">
<path d="M43.4602 7.22174L12.8119 35.4484C10.9186 37.2126 11.9836 40.4672 14.5277 40.7105L38.4606 43.083L24.1127 63.6447C23.4619 64.5876 23.5506 65.8955 24.3494 66.7167C25.2369 67.6292 26.6273 67.6597 27.5444 66.7776L58.1927 38.5509C60.0861 36.7867 59.0211 33.5322 56.4769 33.2888L32.544 30.9163L46.8919 10.3547C47.5427 9.41174 47.454 8.10382 46.6552 7.28257C46.237 6.8434 45.6676 6.59088 45.0698 6.5795C44.4721 6.56812 43.894 6.79879 43.4602 7.22174Z" fill="url(#paint0_linear_5548_338)"/>
<defs>
<linearGradient id="paint0_linear_5548_338" x1="35.5023" y1="6.5791" x2="35.5023" y2="67.4206" gradientUnits="userSpaceOnUse">
<stop stop-color="#F72A26"/>
<stop offset="0.75" stop-color="#8463D3"/>
</linearGradient>
</defs>
</svg>